if (_typeface_js && _typeface_js.loadFace) _typeface_js.loadFace({"glyphs":{"\u0000":{"x_min":0,"x_max":0,"ha":28},"¦":{"x_min":125.015625,"x_max":173.625,"ha":299,"o":"m 173 0 l 125 0 l 125 393 l 173 393 l 173 0 m 173 647 l 125 647 l 125 1041 l 173 1041 l 173 647 "},"Ő":{"x_min":62.5,"x_max":1145.921875,"ha":1208,"o":"m 593 -18 q 220 144 377 -18 q 62 524 62 306 q 222 900 62 741 q 605 1059 381 1059 q 987 901 829 1059 q 1145 524 1145 743 q 988 143 1145 305 q 613 -18 832 -18 l 593 -18 m 1100 521 q 954 872 1100 726 q 604 1019 809 1019 q 254 872 400 1019 q 108 521 108 726 q 254 169 108 316 q 604 22 400 22 q 954 169 808 22 q 1100 521 1100 316 m 587 1311 l 644 1311 l 451 1151 l 393 1151 l 587 1311 m 757 1311 l 813 1311 l 620 1151 l 562 1151 l 757 1311 "},"Ž":{"x_min":48.609375,"x_max":576.4375,"ha":621,"o":"m 572 40 l 572 0 l 48 0 l 506 1001 l 48 1001 l 48 1041 l 576 1041 l 116 40 l 572 40 m 515 1311 l 331 1151 l 290 1151 l 104 1311 l 162 1311 l 309 1184 l 458 1311 l 515 1311 "},"Á":{"x_min":41.671875,"x_max":1082.03125,"ha":1124,"o":"m 561 1066 l 1082 0 l 1033 0 l 836 397 l 279 397 l 84 0 l 41 0 l 561 1066 m 556 970 l 297 437 l 819 437 l 556 970 m 630 1311 l 687 1311 l 494 1151 l 436 1151 l 630 1311 "},"е":{"x_min":55.5625,"x_max":638.9375,"ha":681,"o":"m 393 -16 l 377 -16 q 150 81 245 -16 q 55 313 55 180 q 152 542 55 445 q 393 638 250 638 q 638 525 536 638 l 202 94 q 376 22 293 22 q 525 60 459 22 q 634 162 591 98 l 634 91 q 393 -16 536 -16 m 381 600 q 185 514 270 600 q 100 318 100 429 q 173 123 100 206 l 577 525 q 381 600 491 600 "},"ĥ":{"x_min":83.34375,"x_max":644.5,"ha":714,"o":"m 127 0 l 83 0 l 83 1040 l 127 1040 l 127 504 q 368 640 197 640 q 564 559 484 640 q 644 363 644 479 l 644 0 l 600 0 l 600 363 q 531 531 600 461 q 368 601 463 601 q 200 530 272 601 q 127 363 127 459 l 127 0 m 405 894 l 588 734 l 531 734 l 383 861 l 236 734 l 177 734 l 363 894 l 405 894 "},"Î":{"x_min":-56.953125,"x_max":354.1875,"ha":296,"o":"m 125 1041 l 170 1041 l 170 0 l 125 0 l 125 1041 m 170 1311 l 354 1151 l 297 1151 l 148 1277 l 1 1151 l -56 1151 l 129 1311 l 170 1311 "},"e":{"x_min":55.5625,"x_max":638.9375,"ha":688,"o":"m 395 -16 l 383 -16 q 153 82 251 -16 q 55 313 55 181 q 152 542 55 445 q 393 638 250 638 q 638 525 536 638 l 202 94 q 376 22 293 22 q 525 60 459 22 q 634 162 591 98 l 634 91 q 395 -16 536 -16 m 381 600 q 185 514 270 600 q 100 318 100 429 q 173 123 100 206 l 577 525 q 381 600 491 600 "},"»":{"x_min":27.78125,"x_max":573.65625,"ha":671,"o":"m 270 601 l 573 333 l 573 297 l 270 25 l 270 87 l 526 315 l 270 541 l 270 601 m 27 601 l 330 333 l 330 297 l 27 25 l 27 87 l 283 315 l 27 541 l 27 601 "},"ļ":{"x_min":83.34375,"x_max":320.859375,"ha":349,"o":"m 320 26 l 320 -12 q 152 53 222 -12 q 83 222 83 119 l 83 1041 l 127 1041 l 127 222 q 184 81 127 137 q 320 26 240 26 m 191 -270 l 191 -193 q 148 -150 148 -193 q 196 -106 148 -106 q 244 -150 244 -106 q 240 -172 244 -159 l 197 -270 l 191 -270 "},"Ĕ":{"x_min":104.171875,"x_max":477.8125,"ha":513,"o":"m 104 1041 l 477 1041 l 477 1001 l 150 1001 l 150 434 l 423 434 l 423 394 l 150 394 l 150 40 l 477 40 l 477 0 l 104 0 l 104 1041 m 158 1311 q 201 1223 161 1261 q 291 1184 241 1184 q 379 1223 340 1184 q 425 1311 419 1261 l 465 1311 q 413 1198 462 1245 q 297 1150 363 1150 l 286 1150 q 170 1197 219 1150 q 119 1311 122 1244 l 158 1311 "},"Ѓ":{"x_min":104.171875,"x_max":475.03125,"ha":524,"o":"m 475 1001 l 150 1001 l 150 0 l 104 0 l 104 1041 l 475 1041 l 475 1001 m 370 1319 l 427 1319 l 234 1126 l 176 1126 l 370 1319 "},"ў":{"x_min":34.71875,"x_max":670.890625,"ha":706,"o":"m 241 955 q 284 867 244 905 q 374 829 325 829 q 463 867 423 829 q 508 955 502 905 l 548 955 q 496 842 545 890 q 380 794 447 794 l 369 794 q 254 841 302 794 q 202 955 205 888 l 241 955 m 670 625 l 241 -277 l 201 -277 l 333 1 l 34 625 l 81 625 l 356 51 l 630 625 l 670 625 "},"ò":{"x_min":62.5,"x_max":723.671875,"ha":786,"o":"m 387 -15 q 158 84 254 -15 q 62 315 62 183 q 159 543 62 447 q 393 640 256 640 q 627 543 530 640 q 723 314 723 447 q 629 83 723 181 q 400 -15 534 -15 l 387 -15 m 679 311 q 595 515 679 429 q 394 601 511 601 q 192 514 277 601 q 106 311 106 427 q 192 109 106 194 q 395 23 277 23 q 595 109 512 23 q 679 311 679 194 m 266 894 l 323 894 l 518 734 l 459 734 l 266 894 "},"ﬄ":{"x_min":83.34375,"x_max":988.96875,"ha":1021,"o":"m 988 26 l 988 -12 q 820 53 890 -12 q 751 222 751 119 l 751 238 l 450 238 l 450 0 l 405 0 l 405 238 l 127 238 l 127 0 l 83 0 l 83 643 q 152 811 83 745 q 320 877 222 877 l 320 838 q 184 783 240 838 q 127 643 127 727 l 127 277 l 405 277 l 405 643 q 475 811 405 745 q 643 877 544 877 l 643 838 q 506 783 562 838 q 450 643 450 727 l 450 277 l 751 277 l 751 876 l 795 876 l 795 222 q 852 81 795 137 q 988 26 908 26 "},"ţ":{"x_min":69.453125,"x_max":306.96875,"ha":335,"o":"m 306 30 l 306 -8 q 138 57 208 -8 q 69 226 69 123 l 69 876 l 113 876 l 113 623 l 305 623 l 305 584 l 113 584 l 113 226 q 170 86 113 141 q 306 30 226 30 m 188 -270 l 188 -193 q 145 -150 145 -193 q 193 -106 145 -106 q 241 -150 241 -106 q 237 -172 241 -159 l 194 -270 l 188 -270 "},"^":{"x_min":20.828125,"x_max":437.53125,"ha":458,"o":"m 245 943 l 437 750 l 380 750 l 230 900 l 79 750 l 20 750 l 215 943 l 245 943 "},"«":{"x_min":97.234375,"x_max":643.109375,"ha":671,"o":"m 97 333 l 400 601 l 400 541 l 144 315 l 400 87 l 400 25 l 97 297 l 97 333 m 340 333 l 643 601 l 643 541 l 387 315 l 643 87 l 643 25 l 340 297 l 340 333 "},"к":{"x_min":104.171875,"x_max":525.046875,"ha":560,"o":"m 104 625 l 148 625 l 148 408 l 395 625 l 452 625 l 166 375 l 525 0 l 465 0 l 148 329 l 148 0 l 104 0 l 104 625 "},"í":{"x_min":12.5,"x_max":263.90625,"ha":275,"o":"m 159 623 l 159 0 l 115 0 l 115 623 l 159 623 m 206 894 l 263 894 l 70 734 l 12 734 l 206 894 "},"ˆ":{"x_min":25,"x_max":436.140625,"ha":458,"o":"m 252 894 l 436 734 l 379 734 l 230 861 l 83 734 l 25 734 l 211 894 l 252 894 "},"ū":{"x_min":69.453125,"x_max":630.609375,"ha":700,"o":"m 586 625 l 630 625 l 630 0 l 586 0 l 586 126 q 344 -15 515 -15 q 148 65 227 -15 q 69 261 69 145 l 69 625 l 113 625 l 113 261 q 181 94 113 165 q 344 23 248 23 q 513 94 440 23 q 586 261 586 165 l 586 625 m 486 786 l 212 786 l 212 825 l 486 825 l 486 786 "},"Ẅ":{"x_min":27.78125,"x_max":1389,"ha":1421,"o":"m 484 -18 l 27 1041 l 79 1041 l 491 87 l 684 538 l 469 1041 l 519 1041 l 712 584 l 911 1041 l 950 1041 l 733 540 l 930 83 l 1351 1041 l 1389 1041 l 926 -18 l 705 490 l 484 -18 m 637 1191 q 597 1229 597 1191 q 637 1266 597 1266 q 677 1229 677 1266 q 637 1191 677 1191 m 784 1191 q 745 1229 745 1191 q 784 1266 745 1266 q 822 1229 822 1266 q 784 1191 822 1191 "},"ņ":{"x_min":83.34375,"x_max":644.5,"ha":728,"o":"m 127 0 l 83 0 l 83 625 l 127 625 l 127 498 q 369 640 198 640 q 565 559 486 640 q 644 363 644 479 l 644 0 l 600 0 l 600 363 q 532 530 600 459 q 369 601 465 601 q 200 530 273 601 q 127 363 127 459 l 127 0 m 358 -270 l 358 -193 q 315 -150 315 -193 q 363 -106 315 -106 q 411 -150 411 -106 q 406 -172 411 -159 l 363 -270 l 358 -270 "},"µ":{"x_min":104.171875,"x_max":666.71875,"ha":771,"o":"m 104 -277 l 104 625 l 150 625 l 150 261 q 220 94 150 165 q 386 23 290 23 q 552 94 481 23 q 622 261 622 165 l 622 625 l 666 625 l 666 0 l 622 0 l 622 120 q 520 22 584 59 q 383 -15 455 -15 q 248 19 311 -15 q 148 113 186 54 l 148 -277 l 104 -277 "},"ỳ":{"x_min":69.453125,"x_max":630.609375,"ha":700,"o":"m 586 625 l 630 625 l 630 19 q 544 -190 630 -104 q 333 -276 458 -276 q 95 -161 183 -276 l 98 -91 q 200 -197 137 -158 q 333 -237 263 -237 q 511 -163 436 -237 q 586 15 586 -88 l 586 120 q 348 -15 518 -15 q 151 65 233 -15 q 69 261 69 147 l 69 625 l 113 625 l 113 261 q 184 94 113 165 q 350 23 254 23 q 516 94 445 23 q 586 261 586 165 l 586 625 m 223 894 l 280 894 l 475 734 l 416 734 l 223 894 "},"č":{"x_min":48.609375,"x_max":626.4375,"ha":661,"o":"m 386 -18 l 373 -18 q 144 80 240 -18 q 48 311 48 179 q 145 541 48 444 q 384 637 243 637 q 626 530 526 637 l 626 459 q 517 561 583 523 q 379 598 451 598 q 178 513 263 598 q 93 309 93 427 q 178 106 93 191 q 379 20 263 20 q 517 58 451 20 q 626 161 583 95 l 626 88 q 386 -18 529 -18 m 590 894 l 406 734 l 365 734 l 179 894 l 237 894 l 384 768 l 533 894 l 590 894 "},"’":{"x_min":34.71875,"x_max":166.6875,"ha":306,"o":"m 116 965 l 116 1125 l 166 1125 l 166 965 q 130 853 166 900 q 34 788 94 807 l 34 837 q 116 965 116 875 "},"-":{"x_min":55.5625,"x_max":487.53125,"ha":543,"o":"m 487 537 l 55 537 l 55 580 l 487 580 l 487 537 "},"ѕ":{"x_min":55.5625,"x_max":440.3125,"ha":496,"o":"m 230 602 q 166 579 194 602 q 138 520 138 555 q 170 456 138 486 q 245 403 201 427 q 333 351 288 379 q 409 280 377 323 q 440 181 440 237 q 378 42 440 100 q 229 -15 316 -15 q 125 9 173 -15 q 55 73 77 33 l 55 140 q 225 23 108 23 q 346 68 297 23 q 395 167 395 112 q 364 259 395 222 q 288 323 333 297 q 200 375 244 350 q 125 438 156 401 q 94 524 94 475 q 134 607 94 573 q 236 641 173 641 q 343 593 298 641 l 343 536 q 230 602 298 602 "},"Q":{"x_min":62.5,"x_max":1145.921875,"ha":1208,"o":"m 1145 522 q 1088 285 1145 398 q 934 95 1030 172 l 1047 -16 l 986 -16 l 900 69 q 611 -16 768 -16 l 595 -16 q 329 58 452 -16 q 134 257 205 133 q 62 522 62 381 q 222 902 62 743 q 605 1061 381 1061 q 987 902 829 1061 q 1145 522 1145 744 m 604 23 q 869 100 744 23 l 629 337 l 688 337 l 902 126 q 1045 302 991 197 q 1100 522 1100 408 q 954 874 1100 727 q 604 1020 809 1020 q 254 874 400 1020 q 108 522 108 727 q 254 170 108 318 q 604 23 400 23 "},"Ш":{"x_min":104.171875,"x_max":887.578125,"ha":992,"o":"m 887 0 l 104 0 l 104 1041 l 150 1041 l 150 40 l 473 40 l 473 1041 l 518 1041 l 518 40 l 841 40 l 841 1041 l 887 1041 l 887 0 "},"M":{"x_min":104.171875,"x_max":1172.3125,"ha":1276,"o":"m 1172 1041 l 1172 0 l 1126 0 l 1126 987 l 634 -19 l 145 987 l 145 0 l 104 0 l 104 1041 l 170 1041 l 638 80 l 1108 1041 l 1172 1041 "},"ј":{"x_min":13.890625,"x_max":273.640625,"ha":378,"o":"m 13 -275 l 13 -236 q 152 -180 95 -236 q 208 -40 208 -125 l 208 625 l 254 625 l 254 -40 q 184 -209 254 -143 q 13 -275 113 -275 m 233 776 q 193 813 193 776 q 233 851 193 851 q 273 813 273 851 q 233 776 273 776 "},"œ":{"x_min":76.390625,"x_max":1090.359375,"ha":1139,"o":"m 416 -15 l 395 -15 q 171 84 266 -15 q 76 315 76 183 q 173 543 76 447 q 398 640 270 640 q 622 562 526 640 q 837 643 718 643 q 1090 529 987 643 l 655 97 q 827 26 744 26 q 977 64 911 26 q 1086 166 1043 102 l 1086 95 q 847 -12 987 -12 l 826 -12 q 623 65 712 -12 q 416 -15 534 -15 m 693 311 q 609 515 693 429 q 408 601 525 601 q 206 514 291 601 q 120 311 120 427 q 206 109 120 194 q 409 23 291 23 q 609 109 526 23 q 693 311 693 194 m 1029 529 q 838 604 943 604 q 651 531 733 604 q 737 312 737 437 q 725 223 737 265 l 1029 529 "},"ě":{"x_min":55.5625,"x_max":638.9375,"ha":688,"o":"m 395 -16 l 383 -16 q 153 82 251 -16 q 55 313 55 181 q 152 542 55 445 q 393 638 250 638 q 638 525 536 638 l 202 94 q 376 22 293 22 q 525 60 459 22 q 634 162 591 98 l 634 91 q 395 -16 536 -16 m 381 600 q 185 514 270 600 q 100 318 100 429 q 173 123 100 206 l 577 525 q 381 600 491 600 m 548 894 l 365 734 l 323 734 l 137 894 l 195 894 l 343 768 l 491 894 l 548 894 "},"ũ":{"x_min":69.453125,"x_max":630.609375,"ha":700,"o":"m 586 625 l 630 625 l 630 0 l 586 0 l 586 126 q 344 -15 515 -15 q 148 65 227 -15 q 69 261 69 145 l 69 625 l 113 625 l 113 261 q 181 94 113 165 q 344 23 248 23 q 513 94 440 23 q 586 261 586 165 l 586 625 m 461 759 q 352 797 420 759 q 241 835 283 836 q 155 761 200 834 l 112 761 q 244 872 166 872 l 256 872 q 361 835 298 872 q 461 798 423 798 q 543 866 500 798 l 586 866 q 461 759 520 759 "},"ŭ":{"x_min":69.453125,"x_max":630.609375,"ha":700,"o":"m 586 625 l 630 625 l 630 0 l 586 0 l 586 126 q 344 -15 515 -15 q 148 65 227 -15 q 69 261 69 145 l 69 625 l 113 625 l 113 261 q 181 94 113 165 q 344 23 248 23 q 513 94 440 23 q 586 261 586 165 l 586 625 m 215 894 q 258 806 218 844 q 347 768 298 768 q 436 806 397 768 q 481 894 476 844 l 522 894 q 470 781 519 829 q 354 733 420 733 l 343 733 q 227 780 276 733 q 176 894 179 827 l 215 894 "},"{":{"x_min":47.21875,"x_max":329.1875,"ha":357,"o":"m 231 926 l 231 702 q 207 599 231 648 q 138 520 183 550 q 231 341 231 459 l 231 106 q 258 6 231 51 q 329 -62 284 -37 l 329 -104 q 226 -16 266 -75 q 186 106 186 41 l 186 341 q 145 453 186 402 q 47 520 105 504 q 145 589 105 537 q 186 702 186 641 l 186 926 q 226 1048 186 991 q 329 1134 266 1104 l 329 1093 q 258 1026 284 1070 q 231 926 231 982 "},"#":{"x_min":20.828125,"x_max":912.578125,"ha":933,"o":"m 20 688 l 375 688 l 529 1038 l 575 1038 l 420 688 l 677 688 l 832 1038 l 877 1038 l 723 688 l 912 688 l 912 645 l 704 645 l 609 433 l 912 433 l 912 390 l 591 390 l 419 0 l 375 0 l 547 390 l 288 390 l 116 0 l 73 0 l 244 390 l 20 390 l 20 433 l 263 433 l 356 645 l 20 645 l 20 688 m 402 645 l 308 433 l 565 433 l 659 645 l 402 645 "},"Ê":{"x_min":102.78125,"x_max":513.9375,"ha":540,"o":"m 118 1041 l 491 1041 l 491 1001 l 163 1001 l 163 434 l 437 434 l 437 394 l 163 394 l 163 40 l 491 40 l 491 0 l 118 0 l 118 1041 m 330 1311 l 513 1151 l 456 1151 l 308 1277 l 161 1151 l 102 1151 l 288 1311 l 330 1311 "},"Џ":{"x_min":104.171875,"x_max":758.390625,"ha":863,"o":"m 411 0 l 104 0 l 104 1041 l 150 1041 l 150 40 l 712 40 l 712 1041 l 758 1041 l 758 0 l 454 0 l 454 -134 l 411 -134 l 411 0 "},")":{"x_min":34.71875,"x_max":345.859375,"ha":464,"o":"m 40 1126 q 265 850 184 1011 q 345 509 345 690 q 262 163 345 327 q 34 -119 179 0 l 34 -66 q 230 192 161 44 q 300 506 300 340 q 230 822 300 673 q 34 1082 161 970 l 34 1123 l 40 1126 "},"э":{"x_min":41.671875,"x_max":619.5,"ha":675,"o":"m 218 236 l 218 273 l 572 273 q 575 309 575 293 q 489 513 575 427 q 288 598 404 598 q 150 561 216 598 q 41 458 84 523 l 41 530 q 283 637 138 637 l 295 637 q 523 538 427 637 q 619 306 619 438 q 522 78 619 175 q 283 -18 425 -18 q 41 88 141 -18 l 41 161 q 150 58 84 95 q 298 20 216 20 q 459 84 380 20 q 566 236 537 147 l 218 236 "},"ș":{"x_min":44.453125,"x_max":429.203125,"ha":478,"o":"m 219 602 q 155 579 183 602 q 127 520 127 555 q 159 456 127 486 q 234 403 190 427 q 322 351 277 379 q 397 280 366 323 q 429 181 429 237 q 367 42 429 100 q 218 -15 305 -15 q 114 9 162 -15 q 44 73 66 33 l 44 140 q 213 23 97 23 q 335 68 286 23 q 384 167 384 112 q 353 259 384 222 q 277 323 322 297 q 189 375 233 350 q 114 438 145 401 q 83 524 83 475 q 122 607 83 573 q 225 641 162 641 q 331 593 287 641 l 331 536 q 219 602 287 602 m 233 -270 l 233 -193 q 190 -150 190 -193 q 238 -106 190 -106 q 286 -150 286 -106 q 281 -172 286 -159 l 238 -270 l 233 -270 "},"Å":{"x_min":41.671875,"x_max":1082.03125,"ha":1124,"o":"m 561 1066 l 1082 0 l 1033 0 l 836 397 l 279 397 l 84 0 l 41 0 l 561 1066 m 556 970 l 297 437 l 819 437 l 556 970 m 563 1127 l 558 1127 q 486 1159 516 1127 q 456 1232 456 1190 q 487 1305 456 1275 q 561 1336 518 1336 q 636 1305 605 1336 q 666 1232 666 1275 q 636 1159 666 1190 q 563 1127 605 1127 m 630 1232 q 610 1282 630 1261 q 561 1302 590 1302 q 512 1281 533 1302 q 491 1232 491 1259 q 512 1182 491 1204 q 561 1161 533 1161 q 610 1182 590 1161 q 630 1232 630 1202 "},"ш":{"x_min":104.171875,"x_max":748.671875,"ha":853,"o":"m 748 0 l 104 0 l 104 625 l 148 625 l 148 38 l 404 38 l 404 625 l 448 625 l 448 38 l 704 38 l 704 625 l 748 625 l 748 0 "},"Я":{"x_min":48.609375,"x_max":459.765625,"ha":564,"o":"m 400 1041 l 459 1041 l 459 0 l 415 0 l 415 330 l 100 0 l 48 0 l 406 377 l 388 377 q 165 476 269 377 q 61 709 61 575 q 163 942 61 843 q 400 1041 265 1041 m 390 418 l 415 418 l 415 1001 l 397 1001 q 194 913 283 1001 q 105 708 105 826 q 191 504 105 590 q 390 418 277 418 "},"¸":{"x_min":20.828125,"x_max":176.40625,"ha":197,"o":"m 20 -104 l 20 12 l 55 12 l 55 -68 l 69 -68 q 145 -98 113 -68 q 176 -170 176 -129 l 176 -176 q 145 -247 176 -218 q 69 -277 115 -277 l 20 -277 l 20 -243 l 69 -243 q 122 -222 101 -243 q 143 -173 143 -202 q 122 -124 143 -144 q 69 -104 101 -104 l 20 -104 "},"a":{"x_min":48.609375,"x_max":707,"ha":790,"o":"m 707 625 l 707 0 l 662 0 l 662 155 q 545 30 623 76 q 379 -15 468 -15 q 145 81 243 -15 q 48 312 48 177 q 145 543 48 447 q 379 640 243 640 q 549 593 468 640 q 662 468 630 545 l 662 625 l 707 625 m 93 311 q 178 109 93 194 q 381 23 263 23 q 581 109 498 23 q 665 311 665 194 q 581 515 665 429 q 380 601 497 601 q 178 514 263 601 q 93 311 93 427 "},"Ę":{"x_min":104.171875,"x_max":477.8125,"ha":513,"o":"m 104 1041 l 477 1041 l 477 1001 l 150 1001 l 150 434 l 423 434 l 423 394 l 150 394 l 150 40 l 476 40 l 476 0 l 355 -173 q 374 -222 355 -202 q 425 -243 393 -243 l 477 -243 l 477 -277 l 422 -277 q 347 -250 376 -277 q 318 -180 318 -222 l 318 -170 l 437 0 l 104 0 l 104 1041 "},"=":{"x_min":69.453125,"x_max":501.421875,"ha":571,"o":"m 501 640 l 69 640 l 69 683 l 501 683 l 501 640 m 501 462 l 69 462 l 69 502 l 501 502 l 501 462 "},"Ћ":{"x_min":38.890625,"x_max":837.5625,"ha":921,"o":"m 320 0 l 275 0 l 275 1001 l 38 1001 l 38 1041 l 558 1041 l 558 1001 l 320 1001 l 320 515 q 555 643 394 643 q 754 561 672 643 q 837 363 837 480 l 837 0 l 793 0 l 793 363 q 722 532 793 461 q 557 604 652 604 q 391 535 462 604 q 320 373 320 466 l 320 0 "},"˚":{"x_min":20.828125,"x_max":230.578125,"ha":251,"o":"m 127 711 l 122 711 q 50 742 80 711 q 20 816 20 773 q 51 888 20 858 q 125 919 81 919 q 200 888 169 919 q 230 816 230 858 q 200 742 230 773 q 127 711 169 711 m 194 815 q 174 865 194 844 q 125 886 154 886 q 76 864 97 886 q 55 815 55 843 q 76 766 55 787 q 125 744 97 744 q 174 765 154 744 q 194 815 194 786 "},"ú":{"x_min":83.34375,"x_max":644.5,"ha":728,"o":"m 600 625 l 644 625 l 644 0 l 600 0 l 600 126 q 358 -15 529 -15 q 162 65 241 -15 q 83 261 83 145 l 83 625 l 127 625 l 127 261 q 195 94 127 165 q 358 23 262 23 q 527 94 454 23 q 600 261 600 165 l 600 625 m 431 894 l 488 894 l 295 734 l 237 734 l 431 894 "},"д":{"x_min":34.71875,"x_max":709.78125,"ha":745,"o":"m 34 -79 l 34 36 l 83 36 l 373 643 l 663 37 l 709 37 l 709 -79 l 670 -79 l 670 0 l 70 0 l 70 -79 l 34 -79 m 369 548 l 125 37 l 615 37 l 369 548 "},"¯":{"x_min":104.171875,"x_max":377.8125,"ha":474,"o":"m 377 786 l 104 786 l 104 825 l 377 825 l 377 786 "},"Z":{"x_min":34.71875,"x_max":562.546875,"ha":593,"o":"m 558 40 l 558 0 l 34 0 l 493 1001 l 34 1001 l 34 1041 l 562 1041 l 102 40 l 558 40 "},"":{"x_min":20.828125,"x_max":116.671875,"ha":138,"o":"m 63 -270 l 63 -193 q 20 -150 20 -193 q 68 -106 20 -106 q 116 -150 116 -106 q 112 -172 116 -159 l 69 -270 l 63 -270 "},"u":{"x_min":69.453125,"x_max":630.609375,"ha":700,"o":"m 586 625 l 630 625 l 630 0 l 586 0 l 586 126 q 344 -15 515 -15 q 148 65 227 -15 q 69 261 69 145 l 69 625 l 113 625 l 113 261 q 181 94 113 165 q 344 23 248 23 q 513 94 440 23 q 586 261 586 165 l 586 625 "},"k":{"x_min":83.34375,"x_max":504.203125,"ha":539,"o":"m 83 1038 l 127 1038 l 127 408 l 375 625 l 431 625 l 145 375 l 504 0 l 444 0 l 127 329 l 127 0 l 83 0 l 83 1038 "},"Ù":{"x_min":118.0625,"x_max":738.953125,"ha":857,"o":"m 436 -19 l 422 -19 q 206 69 294 -19 q 118 293 118 158 l 118 1041 l 163 1041 l 163 294 q 240 98 163 176 q 429 20 316 20 q 617 97 541 20 q 693 294 693 175 l 693 1041 l 738 1041 l 738 295 q 650 70 738 159 q 436 -19 562 -19 m 302 1311 l 359 1311 l 554 1151 l 495 1151 l 302 1311 "},"З":{"x_min":48.609375,"x_max":687.5625,"ha":743,"o":"m 540 851 q 429 670 540 734 q 614 545 541 645 q 687 326 687 444 q 583 83 687 184 q 331 -18 479 -18 q 167 21 243 -18 q 48 131 91 61 l 48 209 q 161 74 86 126 q 333 22 237 22 q 550 112 459 22 q 641 329 641 202 q 552 550 641 456 q 333 643 462 643 l 280 643 l 280 682 l 325 682 q 445 732 395 682 q 494 851 494 782 q 445 970 494 920 q 331 1019 395 1019 q 220 987 268 1019 q 156 904 173 955 l 156 976 q 316 1059 219 1059 q 477 998 413 1059 q 540 851 540 937 "},"Ů":{"x_min":104.171875,"x_max":725.0625,"ha":829,"o":"m 422 -19 l 408 -19 q 192 69 280 -19 q 104 293 104 158 l 104 1041 l 150 1041 l 150 294 q 226 98 150 176 q 415 20 302 20 q 603 97 527 20 q 679 294 679 175 l 679 1041 l 725 1041 l 725 295 q 636 70 725 159 q 422 -19 548 -19 m 416 1127 l 411 1127 q 339 1159 369 1127 q 309 1232 309 1190 q 340 1305 309 1275 q 414 1336 370 1336 q 488 1305 458 1336 q 519 1232 519 1275 q 488 1159 519 1190 q 416 1127 458 1127 m 483 1232 q 463 1282 483 1261 q 414 1302 443 1302 q 365 1281 386 1302 q 344 1232 344 1259 q 365 1182 344 1204 q 414 1161 386 1161 q 463 1182 443 1161 q 483 1232 483 1202 "},"¢":{"x_min":69.453125,"x_max":702.828125,"ha":751,"o":"m 397 -215 l 397 -12 l 391 -12 q 156 84 244 -12 q 69 311 69 180 q 154 538 69 443 q 390 633 238 633 l 397 633 l 397 783 l 444 783 l 444 633 l 451 633 q 702 530 607 633 l 702 459 q 592 558 659 522 q 451 594 525 594 l 444 594 l 444 26 l 451 26 q 593 62 526 26 q 702 161 659 98 l 702 88 q 591 13 658 40 q 450 -12 523 -12 l 444 -12 l 444 -215 l 397 -215 m 397 594 l 390 594 q 188 511 259 594 q 118 309 118 427 q 188 109 118 191 q 390 26 259 26 l 397 26 l 397 594 "},"Ş":{"x_min":55.5625,"x_max":636.15625,"ha":692,"o":"m 290 -104 l 290 -18 q 55 123 137 -4 l 55 198 q 161 70 91 119 q 336 20 231 20 q 516 87 440 20 q 593 265 593 154 l 593 273 q 556 400 593 343 q 466 495 520 458 q 348 572 412 531 q 230 647 284 612 q 140 734 176 682 q 104 850 104 787 l 104 859 q 166 1008 104 957 q 320 1059 229 1059 q 523 965 448 1059 l 523 894 q 436 986 491 952 q 313 1019 381 1019 q 197 977 245 1019 q 150 861 150 934 l 150 854 q 247 694 150 766 q 341 634 288 663 q 445 570 393 604 q 539 497 497 536 q 609 404 581 459 q 636 281 636 348 l 636 268 q 546 58 636 136 q 325 -19 456 -19 l 325 -68 l 338 -68 q 414 -98 383 -68 q 445 -170 445 -129 l 445 -176 q 415 -247 445 -218 q 338 -277 384 -277 l 290 -277 l 290 -243 l 338 -243 q 391 -222 370 -243 q 412 -173 412 -202 q 391 -124 412 -144 q 338 -104 370 -104 l 290 -104 "},"é":{"x_min":69.453125,"x_max":652.828125,"ha":715,"o":"m 409 -16 l 397 -16 q 167 82 265 -16 q 69 313 69 181 q 166 542 69 445 q 406 638 263 638 q 652 525 550 638 l 216 94 q 390 22 306 22 q 539 60 473 22 q 648 162 605 98 l 648 91 q 409 -16 550 -16 m 395 600 q 199 514 284 600 q 113 318 113 429 q 187 123 113 206 l 591 525 q 395 600 505 600 m 426 894 l 483 894 l 290 734 l 231 734 l 426 894 "},"B":{"x_min":104.171875,"x_max":495.875,"ha":538,"o":"m 104 1041 l 148 1041 q 300 985 238 1041 q 361 841 361 929 q 327 734 361 788 q 247 662 293 679 q 425 548 354 636 q 495 328 495 461 q 394 97 495 195 q 148 0 293 0 l 104 0 l 104 1041 m 148 637 l 148 38 l 159 38 q 366 127 279 38 q 452 338 452 216 q 366 549 452 461 q 159 637 280 637 l 148 637 m 148 1002 l 148 675 l 159 675 q 270 725 222 675 q 318 842 318 776 q 270 955 318 908 q 159 1002 223 1002 l 148 1002 "},"…":{"x_min":104.171875,"x_max":598.65625,"ha":703,"o":"m 152 -9 q 104 33 104 -9 q 152 76 104 76 q 200 33 200 76 q 152 -9 200 -9 m 356 -9 q 308 33 308 -9 q 356 76 308 76 q 404 33 404 76 q 356 -9 404 -9 m 550 -9 q 502 33 502 -9 q 550 76 502 76 q 598 33 598 76 q 550 -9 598 -9 "},"В":{"x_min":104.171875,"x_max":495.875,"ha":544,"o":"m 104 1041 l 148 1041 q 300 985 238 1041 q 361 841 361 929 q 327 734 361 788 q 247 662 293 679 q 425 548 354 636 q 495 328 495 461 q 394 97 495 195 q 148 0 293 0 l 104 0 l 104 1041 m 148 637 l 148 38 l 159 38 q 366 127 279 38 q 452 338 452 216 q 366 549 452 461 q 159 637 280 637 l 148 637 m 148 1002 l 148 675 l 159 675 q 270 725 222 675 q 318 842 318 776 q 270 955 318 908 q 159 1002 223 1002 l 148 1002 "},"І":{"x_min":125.015625,"x_max":170.84375,"ha":296,"o":"m 170 0 l 125 0 l 125 1041 l 170 1041 l 170 0 "},"ē":{"x_min":55.5625,"x_max":638.9375,"ha":688,"o":"m 395 -16 l 383 -16 q 153 82 251 -16 q 55 313 55 181 q 152 542 55 445 q 393 638 250 638 q 638 525 536 638 l 202 94 q 376 22 293 22 q 525 60 459 22 q 634 162 591 98 l 634 91 q 395 -16 536 -16 m 381 600 q 185 514 270 600 q 100 318 100 429 q 173 123 100 206 l 577 525 q 381 600 491 600 m 480 786 l 206 786 l 206 825 l 480 825 l 480 786 "},"H":{"x_min":104.171875,"x_max":909.796875,"ha":1014,"o":"m 863 1041 l 909 1041 l 909 0 l 863 0 l 863 397 l 150 397 l 150 0 l 104 0 l 104 1041 l 150 1041 l 150 437 l 863 437 l 863 1041 "},"î":{"x_min":-68.0625,"x_max":343.078125,"ha":275,"o":"m 159 623 l 159 0 l 115 0 l 115 623 l 159 623 m 159 894 l 343 734 l 286 734 l 137 861 l -9 734 l -68 734 l 118 894 l 159 894 "},"≠":{"x_min":104.171875,"x_max":536.15625,"ha":640,"o":"m 536 683 l 536 640 l 398 640 l 295 502 l 536 502 l 536 462 l 265 462 l 162 325 l 111 325 l 212 462 l 104 462 l 104 502 l 243 502 l 345 640 l 104 640 l 104 683 l 377 683 l 479 819 l 533 819 l 430 683 l 536 683 "},"¥":{"x_min":34.71875,"x_max":707,"ha":742,"o":"m 588 241 l 397 241 l 397 0 l 351 0 l 351 241 l 156 241 l 156 281 l 351 281 l 351 419 l 156 419 l 156 462 l 327 462 l 34 1041 l 83 1041 l 376 465 l 663 1041 l 707 1041 l 419 462 l 588 462 l 588 419 l 397 419 l 397 281 l 588 281 l 588 241 "},"Ĥ":{"x_min":104.171875,"x_max":909.796875,"ha":1014,"o":"m 863 1041 l 909 1041 l 909 0 l 863 0 l 863 397 l 150 397 l 150 0 l 104 0 l 104 1041 l 150 1041 l 150 437 l 863 437 l 863 1041 m 529 1311 l 712 1151 l 655 1151 l 506 1277 l 359 1151 l 301 1151 l 487 1311 l 529 1311 "},"U":{"x_min":104.171875,"x_max":725.0625,"ha":829,"o":"m 422 -19 l 408 -19 q 192 69 280 -19 q 104 293 104 158 l 104 1041 l 150 1041 l 150 294 q 226 98 150 176 q 415 20 302 20 q 603 97 527 20 q 679 294 679 175 l 679 1041 l 725 1041 l 725 295 q 636 70 725 159 q 422 -19 548 -19 "},"Ñ":{"x_min":118.0625,"x_max":925.078125,"ha":1043,"o":"m 884 1041 l 925 1041 l 925 -15 l 158 927 l 158 0 l 118 0 l 118 1057 l 884 115 l 884 1041 m 633 1176 q 524 1214 593 1176 q 413 1252 455 1252 q 327 1177 372 1251 l 284 1177 q 416 1288 338 1288 l 429 1288 q 533 1252 470 1288 q 634 1215 595 1215 q 715 1283 672 1215 l 758 1283 q 633 1176 693 1176 "},"F":{"x_min":104.171875,"x_max":475.03125,"ha":510,"o":"m 104 1041 l 475 1041 l 475 1001 l 150 1001 l 150 437 l 420 437 l 420 397 l 150 397 l 150 0 l 104 0 l 104 1041 "},"ĵ":{"x_min":-6.9375,"x_max":411.140625,"ha":336,"o":"m -6 -275 l -6 -236 q 131 -180 75 -236 q 188 -40 188 -125 l 188 625 l 233 625 l 233 -40 q 163 -209 233 -143 q -6 -275 93 -275 m 227 894 l 411 734 l 354 734 l 205 861 l 58 734 l 0 734 l 186 894 l 227 894 "},"ā":{"x_min":48.609375,"x_max":707,"ha":790,"o":"m 707 625 l 707 0 l 662 0 l 662 155 q 545 30 623 76 q 379 -15 468 -15 q 145 81 243 -15 q 48 312 48 177 q 145 543 48 447 q 379 640 243 640 q 549 593 468 640 q 662 468 630 545 l 662 625 l 707 625 m 93 311 q 178 109 93 194 q 381 23 263 23 q 581 109 498 23 q 665 311 665 194 q 581 515 665 429 q 380 601 497 601 q 178 514 263 601 q 93 311 93 427 m 531 786 l 258 786 l 258 825 l 531 825 l 531 786 "},"Ĩ":{"x_min":-102.78125,"x_max":370.859375,"ha":268,"o":"m 111 1041 l 156 1041 l 156 0 l 111 0 l 111 1041 m 245 1176 q 136 1214 205 1176 q 26 1252 68 1252 q -59 1177 -15 1251 l -102 1177 q 29 1288 -48 1288 l 41 1288 q 145 1252 83 1288 q 246 1215 208 1215 q 327 1283 284 1215 l 370 1283 q 245 1176 305 1176 "},"ă":{"x_min":48.609375,"x_max":707,"ha":790,"o":"m 707 625 l 707 0 l 662 0 l 662 155 q 545 30 623 76 q 379 -15 468 -15 q 145 81 243 -15 q 48 312 48 177 q 145 543 48 447 q 379 640 243 640 q 549 593 468 640 q 662 468 630 545 l 662 625 l 707 625 m 93 311 q 178 109 93 194 q 381 23 263 23 q 581 109 498 23 q 665 311 665 194 q 581 515 665 429 q 380 601 497 601 q 178 514 263 601 q 93 311 93 427 m 261 894 q 304 806 263 844 q 393 768 344 768 q 482 806 443 768 q 527 894 522 844 l 568 894 q 516 781 565 829 q 400 733 466 733 l 388 733 q 273 780 322 733 q 222 894 225 827 l 261 894 "},"*":{"x_min":48.609375,"x_max":386.140625,"ha":435,"o":"m 202 1034 l 237 1034 l 237 908 l 333 1007 l 362 979 l 265 882 l 386 882 l 386 845 l 265 845 l 361 752 l 330 723 l 237 819 l 237 695 l 202 695 l 202 820 l 106 723 l 77 752 l 173 845 l 48 845 l 48 882 l 175 882 l 76 979 l 104 1007 l 202 908 l 202 1034 "},"†":{"x_min":104.171875,"x_max":536.15625,"ha":640,"o":"m 536 394 l 343 394 l 343 0 l 297 0 l 297 394 l 104 394 l 104 437 l 297 437 l 297 1038 l 343 1038 l 343 437 l 536 437 l 536 394 "},"Ќ":{"x_min":104.171875,"x_max":766.734375,"ha":804,"o":"m 451 1320 l 505 1320 l 312 1127 l 256 1127 l 451 1320 m 104 1041 l 148 1041 l 148 659 l 588 1041 l 644 1041 l 168 626 l 766 0 l 705 0 l 150 579 l 150 0 l 104 0 l 104 1041 "},"°":{"x_min":27.78125,"x_max":237.515625,"ha":265,"o":"m 134 833 l 129 833 q 57 864 87 833 q 27 938 27 895 q 58 1011 27 980 q 132 1041 88 1041 q 206 1011 176 1041 q 237 938 237 980 q 206 864 237 895 q 134 833 176 833 m 201 937 q 181 987 201 966 q 132 1008 161 1008 q 83 986 104 1008 q 62 937 62 965 q 83 888 62 909 q 132 866 104 866 q 181 887 161 866 q 201 937 201 908 "},"å":{"x_min":62.5,"x_max":720.890625,"ha":818,"o":"m 720 625 l 720 0 l 676 0 l 676 155 q 559 30 637 76 q 393 -15 481 -15 q 159 81 256 -15 q 62 312 62 177 q 159 543 62 447 q 393 640 256 640 q 563 593 481 640 q 676 468 644 545 l 676 625 l 720 625 m 106 311 q 192 109 106 194 q 395 23 277 23 q 595 109 512 23 q 679 311 679 194 q 595 515 679 429 q 394 601 511 601 q 192 514 277 601 q 106 311 106 427 m 411 711 l 405 711 q 334 742 363 711 q 304 816 304 773 q 334 888 304 858 q 409 919 365 919 q 483 888 452 919 q 513 816 513 858 q 483 742 513 773 q 411 711 452 711 m 477 815 q 457 865 477 844 q 409 886 437 886 q 359 864 380 886 q 338 815 338 843 q 359 766 338 787 q 409 744 380 744 q 457 765 437 744 q 477 815 477 786 "},"0":{"x_min":55.5625,"x_max":1133.421875,"ha":1189,"o":"m 604 -18 l 583 -18 q 211 143 368 -18 q 55 521 55 304 q 213 897 55 738 q 594 1057 372 1057 q 975 898 816 1057 q 1133 518 1133 740 q 1062 254 1133 377 q 868 56 991 130 q 604 -18 745 -18 m 1087 518 q 942 870 1087 723 q 593 1016 797 1016 q 245 870 390 1016 q 101 518 101 723 q 245 168 101 313 q 593 22 390 22 q 942 168 797 22 q 1087 518 1087 313 "},"ō":{"x_min":48.609375,"x_max":709.78125,"ha":758,"o":"m 373 -15 q 144 84 240 -15 q 48 315 48 183 q 145 543 48 447 q 379 640 243 640 q 613 543 516 640 q 709 314 709 447 q 615 83 709 181 q 386 -15 520 -15 l 373 -15 m 665 311 q 581 515 665 429 q 380 601 497 601 q 178 514 263 601 q 93 311 93 427 q 178 109 93 194 q 381 23 263 23 q 581 109 498 23 q 665 311 665 194 m 515 786 l 241 786 l 241 825 l 515 825 l 515 786 "},"”":{"x_min":34.71875,"x_max":338.921875,"ha":478,"o":"m 288 963 l 288 1125 l 338 1125 l 338 963 q 302 852 338 898 q 206 787 266 805 l 206 836 q 288 963 288 873 m 116 963 l 116 1125 l 166 1125 l 166 963 q 130 852 166 898 q 34 787 94 805 l 34 836 q 116 963 116 873 "},"ŵ":{"x_min":34.71875,"x_max":915.34375,"ha":950,"o":"m 34 625 l 80 625 l 337 79 l 458 333 l 323 622 l 368 622 l 480 376 l 595 625 l 637 625 l 501 333 l 620 76 l 875 623 l 915 623 l 619 -15 l 477 288 l 334 -15 l 34 625 m 497 894 l 680 734 l 623 734 l 475 861 l 327 734 l 269 734 l 455 894 l 497 894 "},"Ķ":{"x_min":104.171875,"x_max":766.734375,"ha":795,"o":"m 104 1041 l 148 1041 l 148 659 l 588 1041 l 644 1041 l 168 626 l 766 0 l 705 0 l 150 579 l 150 0 l 104 0 l 104 1041 m 391 -270 l 391 -193 q 348 -150 348 -193 q 396 -106 348 -106 q 444 -150 444 -106 q 440 -172 444 -159 l 397 -270 l 391 -270 "},"ö":{"x_min":62.5,"x_max":723.671875,"ha":786,"o":"m 387 -15 q 158 84 254 -15 q 62 315 62 183 q 159 543 62 447 q 393 640 256 640 q 627 543 530 640 q 723 314 723 447 q 629 83 723 181 q 400 -15 534 -15 l 387 -15 m 679 311 q 595 515 679 429 q 394 601 511 601 q 192 514 277 601 q 106 311 106 427 q 192 109 106 194 q 395 23 277 23 q 595 109 512 23 q 679 311 679 194 m 320 775 q 280 812 280 775 q 320 850 280 850 q 361 812 361 850 q 320 775 361 775 m 467 775 q 429 812 429 775 q 467 850 429 850 q 505 812 505 850 q 467 775 505 775 "},"ǽ":{"x_min":55.5625,"x_max":1245.9375,"ha":1295,"o":"m 1002 -15 l 982 -15 q 822 31 895 -15 q 705 155 748 79 l 705 0 l 669 0 l 669 145 q 548 27 625 70 q 386 -15 472 -15 q 152 81 250 -15 q 55 312 55 177 q 152 543 55 447 q 386 640 250 640 q 548 597 472 640 q 669 479 625 554 l 669 625 l 705 625 l 705 470 q 825 593 748 547 q 993 640 901 640 q 1245 526 1143 640 l 809 95 q 983 23 900 23 q 1132 61 1066 23 q 1241 163 1198 100 l 1241 93 q 1002 -15 1143 -15 m 100 311 q 185 109 100 194 q 388 23 270 23 q 588 109 505 23 q 672 311 672 194 q 588 515 672 429 q 387 601 504 601 q 185 514 270 601 q 100 311 100 427 m 987 601 q 791 516 876 601 q 705 320 705 430 q 780 125 705 209 l 1184 526 q 987 601 1098 601 m 715 894 l 772 894 l 579 734 l 520 734 l 715 894 "},"Ļ":{"x_min":104.171875,"x_max":472.265625,"ha":500,"o":"m 150 1041 l 150 40 l 472 40 l 472 0 l 104 0 l 104 1041 l 150 1041 m 244 -270 l 244 -193 q 201 -150 201 -193 q 249 -106 201 -106 q 297 -150 297 -106 q 293 -172 297 -159 l 250 -270 l 244 -270 "},"Õ":{"x_min":76.390625,"x_max":1159.8125,"ha":1236,"o":"m 607 -18 q 234 144 391 -18 q 76 524 76 306 q 236 900 76 741 q 619 1059 395 1059 q 1001 901 843 1059 q 1159 524 1159 743 q 1002 143 1159 305 q 627 -18 845 -18 l 607 -18 m 1113 521 q 968 872 1113 726 q 618 1019 823 1019 q 268 872 413 1019 q 122 521 122 726 q 268 169 122 316 q 618 22 413 22 q 968 169 822 22 q 1113 521 1113 316 m 729 1176 q 620 1214 688 1176 q 509 1252 551 1252 q 423 1177 468 1251 l 380 1177 q 512 1288 434 1288 l 525 1288 q 629 1252 566 1288 q 729 1215 691 1215 q 811 1283 768 1215 l 854 1283 q 729 1176 788 1176 "},"№":{"x_min":104.171875,"x_max":1487.625,"ha":1543,"o":"m 1263 600 l 1250 600 q 1095 668 1161 600 q 1030 827 1030 736 q 1097 986 1030 919 q 1259 1052 1163 1052 q 1420 986 1354 1052 q 1487 827 1487 919 q 1421 668 1487 736 q 1263 600 1355 600 m 1443 825 q 1388 956 1443 900 q 1259 1012 1333 1012 q 1130 956 1186 1012 q 1075 825 1075 900 q 1130 695 1075 751 q 1259 640 1186 640 q 1388 695 1333 640 q 1443 825 1443 751 m 1487 395 l 1030 395 l 1030 438 l 1487 438 l 1487 395 m 870 1041 l 911 1041 l 911 -15 l 144 927 l 144 0 l 104 0 l 104 1057 l 870 115 l 870 1041 "},"ć":{"x_min":48.609375,"x_max":626.4375,"ha":661,"o":"m 386 -18 l 373 -18 q 144 80 240 -18 q 48 311 48 179 q 145 541 48 444 q 384 637 243 637 q 626 530 526 637 l 626 459 q 517 561 583 523 q 379 598 451 598 q 178 513 263 598 q 93 309 93 427 q 178 106 93 191 q 379 20 263 20 q 517 58 451 20 q 626 161 583 95 l 626 88 q 386 -18 529 -18 m 398 894 l 455 894 l 262 734 l 204 734 l 398 894 "},"þ":{"x_min":104.171875,"x_max":762.5625,"ha":818,"o":"m 104 -277 l 104 873 l 148 873 l 148 479 q 271 595 194 552 q 431 638 348 638 q 666 542 569 638 q 762 311 762 445 q 666 79 762 176 q 431 -16 569 -16 q 270 26 347 -16 q 148 143 194 69 l 148 -277 l 104 -277 m 718 311 q 634 514 718 429 q 434 600 551 600 q 231 514 316 600 q 145 311 145 429 q 231 107 145 193 q 434 22 316 22 q 634 107 551 22 q 718 311 718 193 "},"]":{"x_min":20.828125,"x_max":201.40625,"ha":299,"o":"m 155 -75 l 155 1093 l 20 1093 l 20 1133 l 201 1133 l 201 -115 l 20 -115 l 20 -75 l 155 -75 "},"А":{"x_min":34.71875,"x_max":1075.09375,"ha":1110,"o":"m 554 1066 l 1075 0 l 1026 0 l 829 397 l 272 397 l 77 0 l 34 0 l 554 1066 m 550 970 l 290 437 l 812 437 l 550 970 "},"Ы":{"x_min":104.171875,"x_max":648.65625,"ha":753,"o":"m 602 0 l 602 1041 l 648 1041 l 648 0 l 602 0 m 104 1041 l 150 1041 l 150 634 l 162 634 q 376 540 276 634 q 476 318 476 445 q 378 95 476 190 q 150 0 280 0 l 104 0 l 104 1041 m 161 594 l 150 594 l 150 40 l 161 40 q 347 123 265 40 q 430 318 430 206 q 348 511 430 429 q 161 594 266 594 "},"ẁ":{"x_min":34.71875,"x_max":915.34375,"ha":950,"o":"m 34 625 l 80 625 l 337 79 l 458 333 l 323 622 l 368 622 l 480 376 l 595 625 l 637 625 l 501 333 l 620 76 l 875 623 l 915 623 l 619 -15 l 477 288 l 334 -15 l 34 625 m 348 894 l 405 894 l 600 734 l 541 734 l 348 894 "},"ĭ":{"x_min":-48.609375,"x_max":297.25,"ha":247,"o":"m 145 623 l 145 0 l 101 0 l 101 623 l 145 623 m -9 894 q 33 806 -6 844 q 122 768 73 768 q 211 806 172 768 q 256 894 251 844 l 297 894 q 245 781 294 829 q 129 733 195 733 l 118 733 q 2 780 51 733 q -48 894 -45 827 l -9 894 "},"8":{"x_min":41.671875,"x_max":748.671875,"ha":790,"o":"m 604 845 q 573 740 604 788 q 490 663 543 691 q 675 540 602 636 q 748 330 748 444 q 645 83 748 186 q 395 -19 541 -19 q 145 84 250 -19 q 41 330 41 187 q 111 534 41 441 q 291 661 181 627 q 206 737 240 686 q 173 845 173 788 q 236 994 173 933 q 388 1055 298 1055 q 541 994 477 1055 q 604 845 604 933 m 388 1016 q 268 966 319 1016 q 218 847 218 915 q 268 728 218 779 q 388 677 319 677 q 508 728 456 677 q 559 847 559 779 q 508 966 559 915 q 388 1016 456 1016 m 87 328 q 178 111 87 202 q 395 20 269 20 q 612 111 522 20 q 702 329 702 202 q 612 547 702 455 q 396 638 522 638 q 179 546 270 638 q 87 328 87 454 "},"R":{"x_min":104.171875,"x_max":523.65625,"ha":565,"o":"m 104 1041 l 163 1041 q 400 942 298 1041 q 502 709 502 843 q 398 476 502 575 q 175 377 294 377 l 165 377 l 523 0 l 463 0 l 148 330 l 148 0 l 104 0 l 104 1041 m 148 418 l 173 418 q 372 504 286 418 q 458 708 458 590 q 369 913 458 826 q 166 1001 280 1001 l 148 1001 l 148 418 "},"ť":{"x_min":69.453125,"x_max":318.078125,"ha":381,"o":"m 306 30 l 306 -8 q 138 57 208 -8 q 69 226 69 123 l 69 876 l 113 876 l 113 623 l 305 623 l 305 584 l 113 584 l 113 226 q 170 86 113 141 q 306 30 226 30 m 265 712 l 265 790 q 222 833 222 790 q 270 876 222 876 q 318 833 318 876 q 313 811 318 823 l 270 712 l 265 712 "},"Ľ":{"x_min":104.171875,"x_max":472.265625,"ha":500,"o":"m 150 1041 l 150 40 l 472 40 l 472 0 l 104 0 l 104 1041 l 150 1041 m 350 876 l 350 954 q 306 997 306 954 q 354 1040 306 1040 q 402 997 402 1040 q 398 975 402 987 l 355 876 l 350 876 "},"Ż":{"x_min":34.71875,"x_max":562.546875,"ha":593,"o":"m 558 40 l 558 0 l 34 0 l 493 1001 l 34 1001 l 34 1041 l 562 1041 l 102 40 l 558 40 m 295 1193 q 255 1230 255 1193 q 295 1268 255 1268 q 336 1230 336 1268 q 295 1193 336 1193 "},"o":{"x_min":48.609375,"x_max":709.78125,"ha":758,"o":"m 373 -15 q 144 84 240 -15 q 48 315 48 183 q 145 543 48 447 q 379 640 243 640 q 613 543 516 640 q 709 314 709 447 q 615 83 709 181 q 386 -15 520 -15 l 373 -15 m 665 311 q 581 515 665 429 q 380 601 497 601 q 178 514 263 601 q 93 311 93 427 q 178 109 93 194 q 381 23 263 23 q 581 109 498 23 q 665 311 665 194 "},"5":{"x_min":62.5,"x_max":838.953125,"ha":901,"o":"m 723 1041 l 723 1001 l 194 1001 l 156 644 q 281 740 205 707 q 443 773 358 773 q 723 657 608 773 q 838 378 838 541 q 722 100 838 215 q 443 -13 607 -13 q 202 69 311 -13 q 62 280 93 152 l 105 280 q 233 97 138 169 q 443 25 327 25 q 691 128 588 25 q 794 378 794 231 q 691 629 794 525 q 443 734 588 734 q 280 692 356 734 q 154 577 204 650 l 105 577 l 154 1041 l 723 1041 "},"Ѕ":{"x_min":69.453125,"x_max":679.21875,"ha":749,"o":"m 562 893 q 472 984 527 951 q 350 1018 418 1018 q 222 968 281 1018 q 163 840 163 919 q 266 679 163 744 q 366 622 311 650 q 476 562 420 594 q 577 493 531 530 q 650 400 622 456 q 679 275 679 344 q 584 57 679 134 q 348 -19 488 -19 q 69 123 170 -19 l 69 198 q 181 69 106 118 q 363 20 256 20 q 552 88 470 20 q 633 272 633 155 q 595 401 633 344 q 500 492 556 458 q 375 563 443 526 q 251 631 308 600 q 156 717 194 663 q 118 838 118 770 q 191 1000 118 941 q 358 1058 265 1058 q 562 963 486 1058 l 562 893 "},"ħ":{"x_min":20.828125,"x_max":658.390625,"ha":732,"o":"m 141 0 l 97 0 l 97 807 l 20 807 l 20 847 l 97 847 l 97 1040 l 141 1040 l 141 847 l 320 847 l 320 807 l 141 807 l 141 504 q 381 640 211 640 q 578 559 498 640 q 658 363 658 479 l 658 0 l 613 0 l 613 363 q 545 531 613 461 q 381 601 477 601 q 213 530 286 601 q 141 363 141 459 l 141 0 "},"õ":{"x_min":62.5,"x_max":723.671875,"ha":786,"o":"m 387 -15 q 158 84 254 -15 q 62 315 62 183 q 159 543 62 447 q 393 640 256 640 q 627 543 530 640 q 723 314 723 447 q 629 83 723 181 q 400 -15 534 -15 l 387 -15 m 679 311 q 595 515 679 429 q 394 601 511 601 q 192 514 277 601 q 106 311 106 427 q 192 109 106 194 q 395 23 277 23 q 595 109 512 23 q 679 311 679 194 m 504 759 q 395 797 463 759 q 284 835 326 836 q 198 761 243 834 l 155 761 q 287 872 209 872 l 300 872 q 404 835 341 872 q 504 798 466 798 q 586 866 543 798 l 629 866 q 504 759 563 759 "},",":{"x_min":48.609375,"x_max":144.453125,"ha":193,"o":"m 91 -87 l 91 -9 q 48 33 48 -9 q 96 76 48 76 q 144 33 144 76 q 140 11 144 23 l 97 -87 l 91 -87 "},"d":{"x_min":48.609375,"x_max":707,"ha":790,"o":"m 707 1041 l 707 0 l 662 0 l 662 151 q 541 29 620 75 q 379 -15 462 -15 q 145 81 241 -15 q 48 312 48 177 q 145 543 48 447 q 379 640 241 640 q 545 594 465 640 q 662 472 625 548 l 662 1041 l 707 1041 m 93 311 q 176 109 93 194 q 377 23 259 23 q 579 109 494 23 q 665 311 665 194 q 579 514 665 427 q 377 601 494 601 q 177 515 261 601 q 93 311 93 429 "},"\"":{"x_min":97.234375,"x_max":284.75,"ha":382,"o":"m 97 876 l 97 1125 l 143 1125 l 143 876 l 97 876 m 238 876 l 238 1125 l 284 1125 l 284 876 l 238 876 "},"˙":{"x_min":20.828125,"x_max":101.390625,"ha":122,"o":"m 61 776 q 20 813 20 776 q 61 851 20 851 q 101 813 101 851 q 61 776 101 776 "},"ê":{"x_min":69.453125,"x_max":652.828125,"ha":715,"o":"m 409 -16 l 397 -16 q 167 82 265 -16 q 69 313 69 181 q 166 542 69 445 q 406 638 263 638 q 652 525 550 638 l 216 94 q 390 22 306 22 q 539 60 473 22 q 648 162 605 98 l 648 91 q 409 -16 550 -16 m 395 600 q 199 514 284 600 q 113 318 113 429 q 187 123 113 206 l 591 525 q 395 600 505 600 m 379 894 l 562 734 l 505 734 l 356 861 l 209 734 l 151 734 l 337 894 l 379 894 "},"„":{"x_min":27.78125,"x_max":331.96875,"ha":457,"o":"m 281 -101 l 281 41 l 331 41 l 331 -101 q 295 -213 331 -166 q 200 -277 259 -259 l 200 -229 q 281 -101 281 -191 m 109 -101 l 109 41 l 159 41 l 159 -101 q 123 -213 159 -166 q 27 -277 87 -259 l 27 -229 q 109 -101 109 -191 "},"ч":{"x_min":55.5625,"x_max":501.421875,"ha":606,"o":"m 55 430 l 55 625 l 100 625 l 100 434 q 152 301 100 356 q 279 245 204 245 q 405 301 354 245 q 456 434 456 356 l 456 625 l 501 625 l 501 0 l 458 0 l 458 308 q 386 236 433 263 q 284 209 340 209 l 276 209 q 120 275 186 209 q 55 430 55 341 "},"ľ":{"x_min":83.34375,"x_max":347.25,"ha":368,"o":"m 320 26 l 320 -12 q 152 53 222 -12 q 83 222 83 119 l 83 1041 l 127 1041 l 127 222 q 184 81 127 137 q 320 26 240 26 m 294 877 l 294 955 q 251 998 251 955 q 299 1041 251 1041 q 347 998 347 1041 q 343 976 347 988 l 300 877 l 294 877 "},"Â":{"x_min":41.671875,"x_max":1082.03125,"ha":1124,"o":"m 561 1066 l 1082 0 l 1033 0 l 836 397 l 279 397 l 84 0 l 41 0 l 561 1066 m 556 970 l 297 437 l 819 437 l 556 970 m 584 1311 l 768 1151 l 711 1151 l 562 1277 l 415 1151 l 356 1151 l 543 1311 l 584 1311 "},"Į":{"x_min":-2.78125,"x_max":156.953125,"ha":268,"o":"m 111 1041 l 156 1041 l 156 0 l 155 0 l 34 -173 q 53 -222 34 -202 q 104 -243 72 -243 l 156 -243 l 156 -277 l 101 -277 q 26 -250 55 -277 q -2 -180 -2 -222 l -2 -170 l 116 0 l 111 0 l 111 1041 "},"ė":{"x_min":55.5625,"x_max":638.9375,"ha":688,"o":"m 395 -16 l 383 -16 q 153 82 251 -16 q 55 313 55 181 q 152 542 55 445 q 393 638 250 638 q 638 525 536 638 l 202 94 q 376 22 293 22 q 525 60 459 22 q 634 162 591 98 l 634 91 q 395 -16 536 -16 m 381 600 q 185 514 270 600 q 100 318 100 429 q 173 123 100 206 l 577 525 q 381 600 491 600 m 343 776 q 302 813 302 776 q 343 851 302 851 q 383 813 383 851 q 343 776 383 776 "},"Ţ":{"x_min":27.78125,"x_max":551.4375,"ha":579,"o":"m 551 1041 l 551 1001 l 313 1001 l 313 0 l 268 0 l 268 1001 l 27 1001 l 27 1041 l 551 1041 m 284 -270 l 284 -193 q 241 -150 241 -193 q 289 -106 241 -106 q 337 -150 337 -106 q 333 -172 337 -159 l 290 -270 l 284 -270 "},"Í":{"x_min":22.21875,"x_max":273.640625,"ha":296,"o":"m 125 1041 l 170 1041 l 170 0 l 125 0 l 125 1041 m 216 1311 l 273 1311 l 80 1151 l 22 1151 l 216 1311 "},"´":{"x_min":20.828125,"x_max":272.25,"ha":293,"o":"m 215 894 l 272 894 l 79 734 l 20 734 l 215 894 "},"Ú":{"x_min":118.0625,"x_max":738.953125,"ha":857,"o":"m 436 -19 l 422 -19 q 206 69 294 -19 q 118 293 118 158 l 118 1041 l 163 1041 l 163 294 q 240 98 163 176 q 429 20 316 20 q 617 97 541 20 q 693 294 693 175 l 693 1041 l 738 1041 l 738 295 q 650 70 738 159 q 436 -19 562 -19 m 497 1311 l 554 1311 l 361 1151 l 302 1151 l 497 1311 "},"Ŷ":{"x_min":27.78125,"x_max":700.0625,"ha":728,"o":"m 390 0 l 344 0 l 344 416 l 27 1041 l 77 1041 l 370 465 l 658 1041 l 700 1041 l 390 416 l 390 0 m 386 1311 l 569 1151 l 512 1151 l 363 1277 l 216 1151 l 158 1151 l 344 1311 l 386 1311 "},"ŝ":{"x_min":33.34375,"x_max":444.484375,"ha":478,"o":"m 219 602 q 155 579 183 602 q 127 520 127 555 q 159 456 127 486 q 234 403 190 427 q 322 351 277 379 q 397 280 366 323 q 429 181 429 237 q 367 42 429 100 q 218 -15 305 -15 q 114 9 162 -15 q 44 73 66 33 l 44 140 q 213 23 97 23 q 335 68 286 23 q 384 167 384 112 q 353 259 384 222 q 277 323 322 297 q 189 375 233 350 q 114 438 145 401 q 83 524 83 475 q 122 607 83 573 q 225 641 162 641 q 331 593 287 641 l 331 536 q 219 602 287 602 m 261 894 l 444 734 l 387 734 l 238 861 l 91 734 l 33 734 l 219 894 l 261 894 "},"Ý":{"x_min":41.671875,"x_max":713.953125,"ha":756,"o":"m 404 0 l 358 0 l 358 416 l 41 1041 l 91 1041 l 384 465 l 672 1041 l 713 1041 l 404 416 l 404 0 m 445 1311 l 502 1311 l 309 1151 l 251 1151 l 445 1311 "},"Ĉ":{"x_min":62.5,"x_max":886.1875,"ha":970,"o":"m 611 -15 l 595 -15 q 329 59 452 -15 q 134 259 205 134 q 62 523 62 383 q 222 903 62 744 q 604 1062 381 1062 q 886 984 752 1062 l 886 933 q 604 1022 755 1022 q 254 875 400 1022 q 108 524 108 729 q 254 172 108 319 q 604 25 400 25 q 886 113 755 25 l 886 62 q 611 -15 759 -15 m 627 1311 l 811 1151 l 754 1151 l 605 1277 l 458 1151 l 400 1151 l 586 1311 l 627 1311 "},"И":{"x_min":104.171875,"x_max":919.515625,"ha":1024,"o":"m 919 1041 l 919 0 l 873 0 l 873 976 l 147 0 l 104 0 l 104 1041 l 150 1041 l 150 68 l 873 1041 l 919 1041 "},"ą":{"x_min":48.609375,"x_max":707,"ha":790,"o":"m 707 625 l 707 0 l 705 0 l 584 -173 q 603 -222 584 -202 q 654 -243 622 -243 l 707 -243 l 707 -277 l 651 -277 q 576 -250 605 -277 q 547 -180 547 -222 l 547 -170 l 666 0 l 662 0 l 662 155 q 545 30 623 76 q 379 -15 468 -15 q 145 81 243 -15 q 48 312 48 177 q 145 543 48 447 q 379 640 243 640 q 549 593 468 640 q 662 468 630 545 l 662 625 l 707 625 m 93 311 q 178 109 93 194 q 381 23 263 23 q 581 109 498 23 q 665 311 665 194 q 581 515 665 429 q 380 601 497 601 q 178 514 263 601 q 93 311 93 427 "},"Љ":{"x_min":34.71875,"x_max":1051.46875,"ha":1108,"o":"m 680 0 l 680 1001 l 345 1001 l 345 334 q 262 94 345 188 q 44 0 179 0 l 34 0 l 34 40 q 223 125 147 40 q 300 334 300 211 l 300 1041 l 725 1041 l 725 636 l 737 636 q 951 541 851 636 q 1051 318 1051 445 q 954 95 1051 190 q 730 0 858 0 l 680 0 m 725 41 l 732 41 q 925 124 841 41 q 1009 318 1009 206 q 926 511 1009 429 q 736 594 843 594 l 725 594 l 725 41 "},"р":{"x_min":104.171875,"x_max":762.5625,"ha":818,"o":"m 104 -277 l 104 625 l 148 625 l 148 472 q 265 594 186 548 q 431 640 345 640 q 666 543 569 640 q 762 312 762 447 q 666 81 762 177 q 431 -15 569 -15 q 269 29 348 -15 q 148 151 190 75 l 148 -277 l 104 -277 m 145 311 q 231 109 145 194 q 434 23 316 23 q 634 109 551 23 q 718 311 718 194 q 634 515 718 429 q 433 601 550 601 q 231 514 316 601 q 145 311 145 427 "},"т":{"x_min":34.71875,"x_max":556.984375,"ha":592,"o":"m 556 623 l 556 584 l 318 584 l 318 0 l 273 0 l 273 584 l 34 584 l 34 623 l 556 623 "},"П":{"x_min":104.171875,"x_max":759.78125,"ha":864,"o":"m 104 1041 l 759 1041 l 759 0 l 713 0 l 713 1001 l 150 1001 l 150 0 l 104 0 l 104 1041 "},"Ö":{"x_min":76.390625,"x_max":1159.8125,"ha":1236,"o":"m 607 -18 q 234 144 391 -18 q 76 524 76 306 q 236 900 76 741 q 619 1059 395 1059 q 1001 901 843 1059 q 1159 524 1159 743 q 1002 143 1159 305 q 627 -18 845 -18 l 607 -18 m 1113 521 q 968 872 1113 726 q 618 1019 823 1019 q 268 872 413 1019 q 122 521 122 726 q 268 169 122 316 q 618 22 413 22 q 968 169 822 22 q 1113 521 1113 316 m 545 1191 q 505 1229 505 1191 q 545 1266 505 1266 q 586 1229 586 1266 q 545 1191 586 1191 m 692 1191 q 654 1229 654 1191 q 692 1266 654 1266 q 730 1229 730 1266 q 692 1191 730 1191 "},"z":{"x_min":34.71875,"x_max":469.484375,"ha":504,"o":"m 465 38 l 465 0 l 34 0 l 390 586 l 72 586 l 72 625 l 469 625 l 112 38 l 465 38 "},"™":{"x_min":48.609375,"x_max":880.625,"ha":929,"o":"m 476 647 l 476 1041 l 513 1041 l 679 722 l 847 1041 l 880 1041 l 880 647 l 837 647 l 837 940 l 675 634 l 515 941 l 515 647 l 476 647 m 379 1041 l 379 1005 l 234 1005 l 234 648 l 193 648 l 193 1005 l 48 1005 l 48 1041 l 379 1041 "},"Ř":{"x_min":54.171875,"x_max":523.65625,"ha":565,"o":"m 104 1041 l 163 1041 q 400 942 298 1041 q 502 709 502 843 q 398 476 502 575 q 175 377 294 377 l 165 377 l 523 0 l 463 0 l 148 330 l 148 0 l 104 0 l 104 1041 m 148 418 l 173 418 q 372 504 286 418 q 458 708 458 590 q 369 913 458 826 q 166 1001 280 1001 l 148 1001 l 148 418 m 465 1311 l 281 1151 l 240 1151 l 54 1311 l 112 1311 l 259 1184 l 408 1311 l 465 1311 "},"ã":{"x_min":62.5,"x_max":720.890625,"ha":818,"o":"m 720 625 l 720 0 l 676 0 l 676 155 q 559 30 637 76 q 393 -15 481 -15 q 159 81 256 -15 q 62 312 62 177 q 159 543 62 447 q 393 640 256 640 q 563 593 481 640 q 676 468 644 545 l 676 625 l 720 625 m 106 311 q 192 109 106 194 q 395 23 277 23 q 595 109 512 23 q 679 311 679 194 q 595 515 679 429 q 394 601 511 601 q 192 514 277 601 q 106 311 106 427 m 520 759 q 411 797 480 759 q 301 835 343 836 q 215 761 259 834 l 172 761 q 304 872 226 872 l 316 872 q 420 835 358 872 q 521 798 483 798 q 602 866 559 798 l 645 866 q 520 759 580 759 "},"Ň":{"x_min":104.171875,"x_max":911.1875,"ha":1015,"o":"m 870 1041 l 911 1041 l 911 -15 l 144 927 l 144 0 l 104 0 l 104 1057 l 870 115 l 870 1041 m 712 1311 l 529 1151 l 487 1151 l 301 1311 l 359 1311 l 506 1184 l 655 1311 l 712 1311 "},"æ":{"x_min":55.5625,"x_max":1245.9375,"ha":1295,"o":"m 1002 -15 l 982 -15 q 822 31 895 -15 q 705 155 748 79 l 705 0 l 669 0 l 669 145 q 548 27 625 70 q 386 -15 472 -15 q 152 81 250 -15 q 55 312 55 177 q 152 543 55 447 q 386 640 250 640 q 548 597 472 640 q 669 479 625 554 l 669 625 l 705 625 l 705 470 q 825 593 748 547 q 993 640 901 640 q 1245 526 1143 640 l 809 95 q 983 23 900 23 q 1132 61 1066 23 q 1241 163 1198 100 l 1241 93 q 1002 -15 1143 -15 m 100 311 q 185 109 100 194 q 388 23 270 23 q 588 109 505 23 q 672 311 672 194 q 588 515 672 429 q 387 601 504 601 q 185 514 270 601 q 100 311 100 427 m 987 601 q 791 516 876 601 q 705 320 705 430 q 780 125 705 209 l 1184 526 q 987 601 1098 601 "},"ĩ":{"x_min":-112.515625,"x_max":361.140625,"ha":247,"o":"m 145 623 l 145 0 l 101 0 l 101 623 l 145 623 m 236 759 q 127 797 195 759 q 16 835 58 836 q -69 761 -25 834 l -112 761 q 19 872 -58 872 l 31 872 q 136 835 73 872 q 236 798 198 798 q 318 866 275 798 l 361 866 q 236 759 295 759 "},"É":{"x_min":118.0625,"x_max":491.703125,"ha":540,"o":"m 118 1041 l 491 1041 l 491 1001 l 163 1001 l 163 434 l 437 434 l 437 394 l 163 394 l 163 40 l 491 40 l 491 0 l 118 0 l 118 1041 m 375 1311 l 431 1311 l 238 1151 l 180 1151 l 375 1311 "},"и":{"x_min":104.171875,"x_max":636.15625,"ha":740,"o":"m 636 623 l 636 0 l 593 0 l 593 554 l 143 0 l 104 0 l 104 623 l 147 623 l 147 69 l 595 623 l 636 623 "},"ŀ":{"x_min":83.34375,"x_max":338.921875,"ha":401,"o":"m 320 26 l 320 -12 q 152 53 222 -12 q 83 222 83 119 l 83 1041 l 127 1041 l 127 222 q 184 81 127 137 q 320 26 240 26 m 295 362 q 252 405 252 362 q 295 448 252 448 q 338 405 338 448 q 295 362 338 362 "},"~":{"x_min":104.171875,"x_max":636.15625,"ha":740,"o":"m 636 500 q 524 436 580 436 q 374 486 468 436 q 227 536 280 536 q 104 438 159 530 l 104 509 q 226 576 158 570 q 382 526 291 576 q 526 476 473 476 q 636 566 579 476 l 636 500 "},"Ċ":{"x_min":62.5,"x_max":886.1875,"ha":970,"o":"m 611 -15 l 595 -15 q 329 59 452 -15 q 134 259 205 134 q 62 523 62 383 q 222 903 62 744 q 604 1062 381 1062 q 886 984 752 1062 l 886 933 q 604 1022 755 1022 q 254 875 400 1022 q 108 524 108 729 q 254 172 108 319 q 604 25 400 25 q 886 113 755 25 l 886 62 q 611 -15 759 -15 m 609 1193 q 569 1230 569 1193 q 609 1268 569 1268 q 650 1230 650 1268 q 609 1193 650 1193 "},"¡":{"x_min":111.125,"x_max":202.796875,"ha":314,"o":"m 181 0 l 136 0 l 136 902 l 181 902 l 181 0 m 156 965 q 111 1008 111 965 q 156 1051 111 1051 q 202 1008 202 1051 q 156 965 202 965 "},"ẅ":{"x_min":34.71875,"x_max":915.34375,"ha":950,"o":"m 34 625 l 80 625 l 337 79 l 458 333 l 323 622 l 368 622 l 480 376 l 595 625 l 637 625 l 501 333 l 620 76 l 875 623 l 915 623 l 619 -15 l 477 288 l 334 -15 l 34 625 m 402 775 q 362 812 362 775 q 402 850 362 850 q 443 812 443 850 q 402 775 443 775 m 549 775 q 511 812 511 775 q 549 850 511 850 q 587 812 587 850 q 549 775 587 775 "},"[":{"x_min":100.015625,"x_max":277.796875,"ha":299,"o":"m 145 1093 l 145 -75 l 277 -75 l 277 -115 l 100 -115 l 100 1133 l 277 1133 l 277 1093 l 145 1093 "},"К":{"x_min":104.171875,"x_max":766.734375,"ha":801,"o":"m 104 1041 l 148 1041 l 148 659 l 588 1041 l 644 1041 l 168 626 l 766 0 l 705 0 l 150 579 l 150 0 l 104 0 l 104 1041 "},"%":{"x_min":27.78125,"x_max":933.40625,"ha":961,"o":"m 709 -15 l 695 -15 q 541 52 607 -15 q 476 212 476 120 q 543 370 476 304 q 704 437 609 437 q 866 370 800 437 q 933 212 933 304 q 867 52 933 120 q 709 -15 801 -15 m 888 210 q 834 341 888 284 q 705 397 779 397 q 576 341 632 397 q 520 210 520 284 q 576 80 520 136 q 705 25 632 25 q 834 80 779 25 q 888 210 888 136 m 261 604 l 247 604 q 92 672 156 604 q 27 832 27 740 q 93 990 27 923 q 254 1057 159 1057 q 416 990 350 1057 q 481 832 481 923 q 416 672 481 740 q 261 604 351 604 m 384 960 q 255 1016 330 1016 q 125 960 180 1016 q 69 829 69 904 q 125 700 69 755 q 255 644 180 644 q 384 699 330 644 q 437 829 437 754 q 384 960 437 904 m 822 1041 l 876 1041 l 100 0 l 48 0 l 822 1041 "},"P":{"x_min":102.78125,"x_max":495.875,"ha":542,"o":"m 102 1041 l 148 1041 q 394 942 293 1041 q 495 708 495 843 q 391 476 495 573 q 159 379 286 379 l 148 379 l 148 0 l 102 0 l 102 1041 m 148 418 l 159 418 q 363 504 276 418 q 450 708 450 590 q 361 913 450 826 q 159 1001 273 1001 l 148 1001 l 148 418 "},"_":{"x_min":34.71875,"x_max":462.53125,"ha":497,"o":"m 462 0 l 34 0 l 34 43 l 462 43 l 462 0 "},"Ŕ":{"x_min":104.171875,"x_max":523.65625,"ha":565,"o":"m 104 1041 l 163 1041 q 400 942 298 1041 q 502 709 502 843 q 398 476 502 575 q 175 377 294 377 l 165 377 l 523 0 l 463 0 l 148 330 l 148 0 l 104 0 l 104 1041 m 148 418 l 173 418 q 372 504 286 418 q 458 708 458 590 q 369 913 458 826 q 166 1001 280 1001 l 148 1001 l 148 418 m 312 1311 l 369 1311 l 176 1151 l 118 1151 l 312 1311 "},"ñ":{"x_min":97.234375,"x_max":658.390625,"ha":756,"o":"m 141 0 l 97 0 l 97 625 l 141 625 l 141 498 q 383 640 212 640 q 579 559 500 640 q 658 363 658 479 l 658 0 l 613 0 l 613 363 q 546 530 613 459 q 383 601 479 601 q 214 530 287 601 q 141 363 141 459 l 141 0 m 488 759 q 379 797 448 759 q 269 835 311 836 q 183 761 227 834 l 140 761 q 272 872 194 872 l 284 872 q 388 835 326 872 q 489 798 451 798 q 570 866 527 798 l 613 866 q 488 759 548 759 "},"‚":{"x_min":27.78125,"x_max":159.734375,"ha":285,"o":"m 109 -100 l 109 44 l 159 44 l 159 -100 q 123 -211 159 -165 q 27 -276 87 -258 l 27 -227 q 109 -100 109 -190 "},"Æ":{"x_min":34.71875,"x_max":925.078125,"ha":960,"o":"m 925 1041 l 925 1001 l 597 1001 l 597 438 l 870 438 l 870 398 l 597 398 l 597 40 l 925 40 l 925 0 l 551 0 l 551 397 l 272 397 l 77 0 l 34 0 l 551 1041 l 925 1041 m 551 437 l 551 961 l 290 437 l 551 437 "},"₣":{"x_min":33.34375,"x_max":475.03125,"ha":510,"o":"m 419 234 l 150 234 l 150 0 l 104 0 l 104 234 l 33 234 l 33 273 l 104 273 l 104 1041 l 475 1041 l 475 1001 l 150 1001 l 150 437 l 420 437 l 420 397 l 150 397 l 150 273 l 419 273 l 419 234 "},"ğ":{"x_min":48.609375,"x_max":708.390625,"ha":792,"o":"m 663 625 l 708 625 l 708 58 q 619 -195 708 -102 q 386 -288 530 -288 q 231 -252 306 -288 q 115 -158 156 -216 l 115 -94 q 228 -205 151 -161 q 386 -250 305 -250 q 586 -167 508 -250 q 663 58 663 -84 l 663 151 q 545 29 626 75 q 379 -16 465 -16 q 145 79 243 -16 q 48 311 48 176 q 145 542 48 445 q 379 638 243 638 q 547 593 469 638 q 663 469 626 548 l 663 625 m 93 311 q 178 107 93 193 q 381 22 263 22 q 581 107 498 22 q 665 311 665 193 q 581 514 665 429 q 381 600 498 600 q 178 514 263 600 q 93 311 93 429 m 261 894 q 304 806 263 844 q 393 768 344 768 q 482 806 443 768 q 527 894 522 844 l 568 894 q 516 781 565 829 q 400 733 466 733 l 388 733 q 273 780 322 733 q 222 894 225 827 l 261 894 "},"ѓ":{"x_min":104.171875,"x_max":380.59375,"ha":415,"o":"m 379 586 l 147 586 l 147 0 l 104 0 l 104 623 l 379 623 l 379 586 m 323 976 l 380 976 l 187 783 l 129 783 l 323 976 "},"ы":{"x_min":104.171875,"x_max":586.15625,"ha":692,"o":"m 543 625 l 586 625 l 586 0 l 543 0 l 543 625 m 104 625 l 148 625 l 148 409 l 216 409 q 359 348 300 409 q 419 204 419 287 q 358 60 419 120 q 212 0 297 0 l 104 0 l 104 625 m 148 372 l 148 37 l 213 37 q 327 86 279 37 q 376 203 376 136 q 327 321 376 270 q 213 372 277 372 l 148 372 "},"Ū":{"x_min":104.171875,"x_max":725.0625,"ha":829,"o":"m 422 -19 l 408 -19 q 192 69 280 -19 q 104 293 104 158 l 104 1041 l 150 1041 l 150 294 q 226 98 150 176 q 415 20 302 20 q 603 97 527 20 q 679 294 679 175 l 679 1041 l 725 1041 l 725 295 q 636 70 725 159 q 422 -19 548 -19 m 551 1202 l 277 1202 l 277 1241 l 551 1241 l 551 1202 "},"ї":{"x_min":27.78125,"x_max":252.796875,"ha":281,"o":"m 68 776 q 27 813 27 776 q 68 851 27 851 q 108 813 108 851 q 68 776 108 776 m 214 776 q 176 813 176 776 q 214 851 176 851 q 252 813 252 851 q 214 776 252 776 m 163 623 l 163 0 l 119 0 l 119 623 l 163 623 "},"Œ":{"x_min":69.453125,"x_max":1005.640625,"ha":1054,"o":"m 1005 1001 l 677 1001 l 677 434 l 951 434 l 951 394 l 677 394 l 677 40 l 1005 40 l 1005 0 l 593 0 q 222 154 376 0 q 69 526 69 309 q 225 892 69 743 q 604 1041 380 1041 l 1005 1041 l 1005 1001 m 604 40 l 632 40 l 632 1001 l 604 1001 q 256 864 398 1001 q 115 523 115 727 q 257 179 115 319 q 604 40 400 40 "},"ﬀ":{"x_min":83.34375,"x_max":644.5,"ha":672,"o":"m 643 877 l 643 838 q 506 783 562 838 q 450 643 450 727 l 450 277 l 644 277 l 644 238 l 450 238 l 450 0 l 405 0 l 405 238 l 127 238 l 127 0 l 83 0 l 83 643 q 152 811 83 745 q 320 877 222 877 l 320 838 q 184 783 240 838 q 127 643 127 727 l 127 277 l 405 277 l 405 643 q 475 811 405 745 q 643 877 544 877 "},"Ą":{"x_min":27.78125,"x_max":1068.140625,"ha":1096,"o":"m 1019 -243 l 1068 -243 l 1068 -277 l 1012 -277 q 937 -250 966 -277 q 908 -180 908 -222 l 908 -170 l 1019 0 l 822 397 l 265 397 l 70 0 l 27 0 l 547 1066 l 1068 0 l 957 -173 q 972 -223 957 -204 q 1019 -243 988 -243 m 543 970 l 283 437 l 805 437 l 543 970 "},"T":{"x_min":27.78125,"x_max":551.4375,"ha":579,"o":"m 551 1041 l 551 1001 l 313 1001 l 313 0 l 268 0 l 268 1001 l 27 1001 l 27 1041 l 551 1041 "},"Њ":{"x_min":104.171875,"x_max":988.96875,"ha":993,"o":"m 662 1041 l 662 636 l 675 636 q 888 541 788 636 q 988 318 988 445 q 892 95 988 190 q 668 0 795 0 l 618 0 l 618 593 l 150 593 l 150 0 l 104 0 l 104 1041 l 150 1041 l 150 636 l 618 636 l 618 1041 l 662 1041 m 662 41 l 669 41 q 863 124 779 41 q 947 318 947 206 q 863 511 947 429 q 673 594 780 594 l 662 594 l 662 41 "},"š":{"x_min":47.21875,"x_max":458.375,"ha":506,"o":"m 233 602 q 169 579 197 602 q 141 520 141 555 q 172 456 141 486 q 247 403 204 427 q 336 351 291 379 q 411 280 380 323 q 443 181 443 237 q 381 42 443 100 q 231 -15 319 -15 q 128 9 176 -15 q 58 73 80 33 l 58 140 q 227 23 111 23 q 349 68 300 23 q 398 167 398 112 q 367 259 398 222 q 291 323 336 297 q 203 375 247 350 q 128 438 159 401 q 97 524 97 475 q 136 607 97 573 q 238 641 176 641 q 345 593 301 641 l 345 536 q 233 602 301 602 m 458 894 l 275 734 l 233 734 l 47 894 l 105 894 l 252 768 l 401 894 l 458 894 "},"є":{"x_min":55.5625,"x_max":633.390625,"ha":682,"o":"m 456 273 l 456 236 l 108 236 q 215 84 137 147 q 376 20 294 20 q 524 58 458 20 q 633 161 590 95 l 633 88 q 391 -18 533 -18 q 152 78 250 -18 q 55 306 55 175 q 150 538 55 438 q 375 637 245 637 l 395 637 q 633 530 536 637 l 633 458 q 524 561 590 523 q 386 598 458 598 q 185 513 270 598 q 100 309 100 427 q 102 273 100 293 l 456 273 "},"Þ":{"x_min":104.171875,"x_max":500.046875,"ha":569,"o":"m 104 0 l 104 1040 l 148 1040 l 148 876 l 161 876 q 397 777 295 876 q 500 543 500 677 q 394 310 500 408 q 161 212 288 212 l 148 212 l 148 0 l 104 0 m 148 836 l 148 252 l 161 252 q 366 337 277 252 q 455 541 455 422 q 366 748 455 661 q 161 836 277 836 l 148 836 "},"j":{"x_min":-6.9375,"x_max":252.796875,"ha":336,"o":"m -6 -275 l -6 -236 q 131 -180 75 -236 q 188 -40 188 -125 l 188 625 l 233 625 l 233 -40 q 163 -209 233 -143 q -6 -275 93 -275 m 212 776 q 172 813 172 776 q 212 851 172 851 q 252 813 252 851 q 212 776 252 776 "},"1":{"x_min":20.828125,"x_max":230.578125,"ha":335,"o":"m 184 0 l 184 998 l 20 998 l 20 1038 l 230 1038 l 230 0 l 184 0 "},"›":{"x_min":27.78125,"x_max":330.578125,"ha":435,"o":"m 27 601 l 330 333 l 330 297 l 27 25 l 27 87 l 283 315 l 27 541 l 27 601 "},"ћ":{"x_min":34.71875,"x_max":784.78125,"ha":889,"o":"m 34 804 l 34 844 l 223 844 l 223 1038 l 269 1038 l 269 844 l 504 844 l 504 804 l 269 804 l 269 512 q 504 640 343 640 q 703 559 622 640 q 784 363 784 479 l 784 0 l 738 0 l 738 363 q 669 530 738 459 q 504 601 600 601 q 339 532 409 601 q 269 373 269 463 l 269 0 l 223 0 l 223 804 l 34 804 "},"<":{"x_min":104.171875,"x_max":538.9375,"ha":567,"o":"m 104 616 l 538 869 l 538 816 l 162 595 l 538 373 l 538 318 l 104 575 l 104 616 "},"Ц":{"x_min":104.171875,"x_max":865.34375,"ha":900,"o":"m 825 0 l 104 0 l 104 1041 l 150 1041 l 150 40 l 712 40 l 712 1041 l 758 1041 l 758 40 l 865 40 l 865 -134 l 825 -134 l 825 0 "},"t":{"x_min":69.453125,"x_max":306.96875,"ha":335,"o":"m 306 30 l 306 -8 q 138 57 208 -8 q 69 226 69 123 l 69 876 l 113 876 l 113 623 l 305 623 l 305 584 l 113 584 l 113 226 q 170 86 113 141 q 306 30 226 30 "},"¬":{"x_min":69.453125,"x_max":500.046875,"ha":569,"o":"m 456 261 l 456 391 l 69 391 l 69 434 l 500 434 l 500 261 l 456 261 "},"ù":{"x_min":83.34375,"x_max":644.5,"ha":728,"o":"m 600 625 l 644 625 l 644 0 l 600 0 l 600 126 q 358 -15 529 -15 q 162 65 241 -15 q 83 261 83 145 l 83 625 l 127 625 l 127 261 q 195 94 127 165 q 358 23 262 23 q 527 94 454 23 q 600 261 600 165 l 600 625 m 237 894 l 294 894 l 488 734 l 430 734 l 237 894 "},"Ф":{"x_min":69.453125,"x_max":1107.03125,"ha":1176,"o":"m 565 -34 l 565 48 l 555 48 q 213 190 356 48 q 69 525 69 333 q 213 856 69 716 q 554 995 356 995 l 565 995 l 565 1076 l 611 1076 l 611 995 l 620 995 q 963 853 819 995 q 1107 520 1107 711 q 962 189 1107 330 q 620 48 818 48 l 611 48 l 611 -34 l 565 -34 m 555 86 l 565 86 l 565 958 l 554 958 q 245 829 375 958 q 115 522 115 700 q 245 215 115 345 q 555 86 375 86 m 622 958 l 611 958 l 611 86 l 620 86 q 931 215 800 86 q 1062 520 1062 344 q 929 827 1062 697 q 622 958 797 958 "},"ĉ":{"x_min":48.609375,"x_max":626.4375,"ha":661,"o":"m 386 -18 l 373 -18 q 144 80 240 -18 q 48 311 48 179 q 145 541 48 444 q 384 637 243 637 q 626 530 526 637 l 626 459 q 517 561 583 523 q 379 598 451 598 q 178 513 263 598 q 93 309 93 427 q 178 106 93 191 q 379 20 263 20 q 517 58 451 20 q 626 161 583 95 l 626 88 q 386 -18 529 -18 m 406 894 l 590 734 l 533 734 l 384 861 l 237 734 l 179 734 l 365 894 l 406 894 "},"ï":{"x_min":25,"x_max":250.015625,"ha":275,"o":"m 159 623 l 159 0 l 115 0 l 115 623 l 159 623 m 65 775 q 25 812 25 775 q 65 850 25 850 q 105 812 105 850 q 65 775 105 775 m 211 775 q 173 812 173 775 q 211 850 173 850 q 250 812 250 850 q 211 775 250 775 "},"ī":{"x_min":-12.5,"x_max":261.125,"ha":247,"o":"m 145 623 l 145 0 l 101 0 l 101 623 l 145 623 m 261 786 l -12 786 l -12 825 l 261 825 l 261 786 "},"Ò":{"x_min":76.390625,"x_max":1159.8125,"ha":1236,"o":"m 607 -18 q 234 144 391 -18 q 76 524 76 306 q 236 900 76 741 q 619 1059 395 1059 q 1001 901 843 1059 q 1159 524 1159 743 q 1002 143 1159 305 q 627 -18 845 -18 l 607 -18 m 1113 521 q 968 872 1113 726 q 618 1019 823 1019 q 268 872 413 1019 q 122 521 122 726 q 268 169 122 316 q 618 22 413 22 q 968 169 822 22 q 1113 521 1113 316 m 491 1311 l 548 1311 l 743 1151 l 684 1151 l 491 1311 "},"О":{"x_min":69.453125,"x_max":1152.875,"ha":1222,"o":"m 600 -16 q 227 145 384 -16 q 69 525 69 308 q 229 902 69 743 q 612 1061 388 1061 q 994 902 836 1061 q 1152 525 1152 744 q 995 145 1152 306 q 620 -16 838 -16 l 600 -16 m 1107 522 q 961 874 1107 727 q 611 1020 816 1020 q 261 874 406 1020 q 115 522 115 727 q 261 170 115 318 q 611 23 406 23 q 961 170 815 23 q 1107 522 1107 318 "},"Ď":{"x_min":79.171875,"x_max":668.109375,"ha":731,"o":"m 104 1041 l 148 1041 q 525 888 381 1041 q 668 520 668 734 q 525 152 668 305 q 148 0 383 0 l 104 0 l 104 1041 m 159 1000 l 148 1000 l 148 43 l 159 43 q 492 183 362 43 q 622 520 622 323 q 492 858 622 716 q 159 1000 362 1000 m 490 1311 l 306 1151 l 265 1151 l 79 1311 l 137 1311 l 284 1184 l 433 1311 l 490 1311 "},"&":{"x_min":48.609375,"x_max":945.90625,"ha":967,"o":"m 48 330 q 117 534 48 441 q 295 661 186 627 q 211 737 244 686 q 177 845 177 788 q 240 994 177 933 q 397 1055 302 1055 q 555 983 491 1055 l 555 909 q 490 986 536 955 q 384 1016 444 1016 q 272 966 323 1016 q 222 847 222 915 q 272 728 222 779 q 393 677 323 677 l 412 677 l 412 638 l 401 638 q 184 546 276 638 q 91 328 91 454 q 183 111 91 202 q 401 20 275 20 q 619 111 527 20 q 711 329 711 201 l 711 638 l 518 638 l 518 677 l 945 677 l 945 638 l 752 638 l 752 0 l 711 0 l 711 177 q 592 37 680 94 q 401 -19 504 -19 q 152 84 255 -19 q 48 330 48 187 "},"˝":{"x_min":20.828125,"x_max":441.703125,"ha":458,"o":"m 215 894 l 272 894 l 79 734 l 20 734 l 215 894 m 384 894 l 441 894 l 248 734 l 190 734 l 384 894 "},"I":{"x_min":111.125,"x_max":156.953125,"ha":268,"o":"m 111 1041 l 156 1041 l 156 0 l 111 0 l 111 1041 "},"G":{"x_min":62.5,"x_max":886.1875,"ha":963,"o":"m 495 397 l 495 437 l 886 437 l 886 61 q 611 -15 763 -15 l 595 -15 q 329 59 452 -15 q 134 259 205 134 q 62 523 62 383 q 222 903 62 744 q 604 1062 381 1062 q 886 984 752 1062 l 886 933 q 604 1022 755 1022 q 254 875 400 1022 q 108 524 108 729 q 254 172 108 319 q 604 25 400 25 q 840 83 718 25 l 840 397 l 495 397 "},"`":{"x_min":20.828125,"x_max":272.25,"ha":293,"o":"m 20 894 l 77 894 l 272 734 l 213 734 l 20 894 "},"·":{"x_min":104.171875,"x_max":190.296875,"ha":294,"o":"m 147 362 q 104 405 104 362 q 147 448 104 448 q 190 405 190 448 q 147 362 190 362 "},"ŏ":{"x_min":48.609375,"x_max":709.78125,"ha":758,"o":"m 373 -15 q 144 84 240 -15 q 48 315 48 183 q 145 543 48 447 q 379 640 243 640 q 613 543 516 640 q 709 314 709 447 q 615 83 709 181 q 386 -15 520 -15 l 373 -15 m 665 311 q 581 515 665 429 q 380 601 497 601 q 178 514 263 601 q 93 311 93 427 q 178 109 93 194 q 381 23 263 23 q 581 109 498 23 q 665 311 665 194 m 244 894 q 287 806 247 844 q 377 768 327 768 q 466 806 426 768 q 511 894 505 844 l 551 894 q 499 781 548 829 q 383 733 450 733 l 372 733 q 256 780 305 733 q 205 894 208 827 l 244 894 "},"¿":{"x_min":76.390625,"x_max":793.125,"ha":870,"o":"m 793 338 q 687 87 784 184 q 435 -9 590 -9 q 178 91 280 -9 q 76 327 76 193 q 175 583 76 461 q 408 686 270 677 l 408 915 l 452 915 l 452 645 l 433 645 q 207 554 294 645 q 120 334 120 462 q 211 118 120 205 q 437 30 302 30 q 656 114 572 30 q 745 338 740 198 l 793 338 m 427 1058 q 475 1015 475 1058 q 427 972 475 972 q 379 1015 379 972 q 427 1058 379 1058 "},"ý":{"x_min":83.34375,"x_max":644.5,"ha":728,"o":"m 600 625 l 644 625 l 644 19 q 558 -190 644 -104 q 347 -276 472 -276 q 109 -161 197 -276 l 112 -91 q 214 -197 151 -158 q 347 -237 277 -237 q 525 -163 450 -237 q 600 15 600 -88 l 600 120 q 362 -15 531 -15 q 165 65 247 -15 q 83 261 83 147 l 83 625 l 127 625 l 127 261 q 197 94 127 165 q 363 23 268 23 q 529 94 459 23 q 600 261 600 165 l 600 625 m 431 894 l 488 894 l 295 734 l 237 734 l 431 894 "},"Ђ":{"x_min":34.71875,"x_max":838.953125,"ha":921,"o":"m 598 -275 l 598 -238 q 736 -182 680 -238 q 793 -40 793 -126 l 793 363 q 722 532 793 461 q 557 604 652 604 q 391 535 462 604 q 320 373 320 466 l 320 0 l 275 0 l 275 1001 l 34 1001 l 34 1041 l 558 1041 l 558 1001 l 320 1001 l 320 515 q 555 643 394 643 q 756 561 673 643 q 838 363 838 480 l 838 -40 q 768 -209 838 -144 q 598 -275 698 -275 "},"ź":{"x_min":34.71875,"x_max":469.484375,"ha":504,"o":"m 465 38 l 465 0 l 34 0 l 390 586 l 72 586 l 72 625 l 469 625 l 112 38 l 465 38 m 320 894 l 377 894 l 184 734 l 126 734 l 320 894 "},"ű":{"x_min":69.453125,"x_max":630.609375,"ha":700,"o":"m 586 625 l 630 625 l 630 0 l 586 0 l 586 126 q 344 -15 515 -15 q 148 65 227 -15 q 69 261 69 145 l 69 625 l 113 625 l 113 261 q 181 94 113 165 q 344 23 248 23 q 513 94 440 23 q 586 261 586 165 l 586 625 m 333 894 l 390 894 l 197 734 l 138 734 l 333 894 m 502 894 l 559 894 l 366 734 l 308 734 l 502 894 "},"я":{"x_min":55.5625,"x_max":351.421875,"ha":456,"o":"m 216 219 q 105 291 148 236 q 62 425 62 347 q 122 564 62 504 q 268 625 183 625 l 351 625 l 351 0 l 306 0 l 306 215 l 261 215 l 102 0 l 55 0 l 216 219 m 306 252 l 306 587 l 265 587 q 152 536 201 587 q 102 420 102 486 q 152 303 102 354 q 265 252 201 252 l 306 252 "},"Ё":{"x_min":104.171875,"x_max":477.8125,"ha":526,"o":"m 477 1001 l 150 1001 l 150 434 l 423 434 l 423 394 l 150 394 l 150 40 l 477 40 l 477 0 l 104 0 l 104 1041 l 477 1041 l 477 1001 m 216 1193 q 176 1230 176 1193 q 216 1268 176 1268 q 256 1230 256 1268 q 216 1193 256 1193 m 363 1193 q 325 1230 325 1193 q 363 1268 325 1268 q 401 1230 401 1268 q 363 1193 401 1193 "},"Ǽ":{"x_min":34.71875,"x_max":925.078125,"ha":960,"o":"m 925 1041 l 925 1001 l 597 1001 l 597 438 l 870 438 l 870 398 l 597 398 l 597 40 l 925 40 l 925 0 l 551 0 l 551 397 l 272 397 l 77 0 l 34 0 l 551 1041 l 925 1041 m 551 437 l 551 961 l 290 437 l 551 437 m 830 1311 l 887 1311 l 694 1151 l 636 1151 l 830 1311 "},"ń":{"x_min":83.34375,"x_max":644.5,"ha":728,"o":"m 127 0 l 83 0 l 83 625 l 127 625 l 127 498 q 369 640 198 640 q 565 559 486 640 q 644 363 644 479 l 644 0 l 600 0 l 600 363 q 532 530 600 459 q 369 601 465 601 q 200 530 273 601 q 127 363 127 459 l 127 0 m 431 894 l 488 894 l 295 734 l 237 734 l 431 894 "},"Ș":{"x_min":55.5625,"x_max":636.15625,"ha":692,"o":"m 523 894 q 436 986 491 952 q 313 1019 381 1019 q 197 977 245 1019 q 150 861 150 934 l 150 854 q 247 694 150 766 q 341 634 288 663 q 445 570 393 604 q 539 497 497 536 q 609 404 581 459 q 636 281 636 348 l 636 268 q 546 58 636 136 q 325 -19 456 -19 q 55 123 151 -19 l 55 198 q 161 70 91 119 q 336 20 231 20 q 516 87 440 20 q 593 265 593 154 l 593 273 q 556 400 593 343 q 466 495 520 458 q 348 572 412 531 q 230 647 284 612 q 140 734 176 682 q 104 850 104 787 l 104 859 q 166 1008 104 957 q 320 1059 229 1059 q 523 965 448 1059 l 523 894 m 322 -270 l 322 -193 q 279 -150 279 -193 q 327 -106 279 -106 q 375 -150 375 -106 q 370 -172 375 -159 l 327 -270 l 322 -270 "},";":{"x_min":118.0625,"x_max":213.90625,"ha":332,"o":"m 165 362 q 118 405 118 362 q 165 448 118 448 q 213 405 213 448 q 165 362 213 362 m 161 -87 l 161 -9 q 118 33 118 -9 q 165 76 118 76 q 213 33 213 76 q 209 11 213 23 l 166 -87 l 161 -87 "},"Г":{"x_min":104.171875,"x_max":475.03125,"ha":510,"o":"m 475 1001 l 150 1001 l 150 0 l 104 0 l 104 1041 l 475 1041 l 475 1001 "},"Ġ":{"x_min":62.5,"x_max":886.1875,"ha":963,"o":"m 495 397 l 495 437 l 886 437 l 886 61 q 611 -15 763 -15 l 595 -15 q 329 59 452 -15 q 134 259 205 134 q 62 523 62 383 q 222 903 62 744 q 604 1062 381 1062 q 886 984 752 1062 l 886 933 q 604 1022 755 1022 q 254 875 400 1022 q 108 524 108 729 q 254 172 108 319 q 604 25 400 25 q 840 83 718 25 l 840 397 l 495 397 m 604 1193 q 563 1230 563 1193 q 604 1268 563 1268 q 644 1230 644 1268 q 604 1193 644 1193 "},"6":{"x_min":45.84375,"x_max":834.78125,"ha":876,"o":"m 450 770 q 718 652 602 770 q 834 373 834 534 q 718 97 834 212 q 438 -16 601 -16 q 160 97 275 -16 q 45 371 45 211 q 186 693 45 531 l 490 1041 l 543 1041 l 268 726 q 345 757 291 744 q 450 770 400 770 m 88 374 q 191 125 88 229 q 438 22 294 22 q 683 125 581 22 q 784 375 784 229 q 682 626 784 520 q 438 732 580 732 q 193 625 297 732 q 88 374 88 519 "},"Ь":{"x_min":104.171875,"x_max":476.421875,"ha":546,"o":"m 104 1041 l 150 1041 l 150 634 l 162 634 q 376 540 276 634 q 476 318 476 445 q 378 95 476 190 q 150 0 280 0 l 104 0 l 104 1041 m 161 594 l 150 594 l 150 40 l 161 40 q 347 123 265 40 q 430 318 430 206 q 348 511 430 429 q 161 594 266 594 "},"n":{"x_min":83.34375,"x_max":644.5,"ha":728,"o":"m 127 0 l 83 0 l 83 625 l 127 625 l 127 498 q 369 640 198 640 q 565 559 486 640 q 644 363 644 479 l 644 0 l 600 0 l 600 363 q 532 530 600 459 q 369 601 465 601 q 200 530 273 601 q 127 363 127 459 l 127 0 "},"ģ":{"x_min":48.609375,"x_max":708.390625,"ha":792,"o":"m 379 800 l 379 734 l 329 734 l 329 800 q 365 911 329 865 q 461 976 401 958 l 461 927 q 379 800 379 890 m 663 625 l 708 625 l 708 58 q 619 -195 708 -102 q 386 -288 530 -288 q 231 -252 306 -288 q 115 -158 156 -216 l 115 -94 q 228 -205 151 -161 q 386 -250 305 -250 q 586 -167 508 -250 q 663 58 663 -84 l 663 151 q 545 29 626 75 q 379 -16 465 -16 q 145 79 243 -16 q 48 311 48 176 q 145 542 48 445 q 379 638 243 638 q 547 593 469 638 q 663 469 626 548 l 663 625 m 93 311 q 178 107 93 193 q 381 22 263 22 q 581 107 498 22 q 665 311 665 193 q 581 514 665 429 q 381 600 498 600 q 178 514 263 600 q 93 311 93 429 "},"¤":{"x_min":48.609375,"x_max":1122.3125,"ha":1171,"o":"m 220 922 q 579 1057 372 1057 q 947 913 787 1057 l 1070 1038 l 1101 1002 l 980 882 q 1122 516 1122 719 q 983 156 1122 313 l 1101 41 l 1068 6 l 952 122 q 580 -16 790 -16 q 223 122 370 -16 l 104 2 l 70 37 l 188 156 q 48 515 48 306 q 187 888 48 723 l 69 1004 l 104 1040 l 220 922 m 938 871 q 590 1011 798 1011 q 238 868 381 1011 q 95 515 95 725 q 239 166 95 305 q 581 27 383 27 q 929 171 779 27 q 1079 523 1079 315 q 938 871 1079 732 "},"Ĝ":{"x_min":62.5,"x_max":886.1875,"ha":963,"o":"m 495 397 l 495 437 l 886 437 l 886 61 q 611 -15 763 -15 l 595 -15 q 329 59 452 -15 q 134 259 205 134 q 62 523 62 383 q 222 903 62 744 q 604 1062 381 1062 q 886 984 752 1062 l 886 933 q 604 1022 755 1022 q 254 875 400 1022 q 108 524 108 729 q 254 172 108 319 q 604 25 400 25 q 840 83 718 25 l 840 397 l 495 397 m 625 1311 l 808 1151 l 751 1151 l 602 1277 l 455 1151 l 397 1151 l 583 1311 l 625 1311 "},"p":{"x_min":83.34375,"x_max":741.71875,"ha":790,"o":"m 83 -277 l 83 625 l 127 625 l 127 472 q 245 594 165 548 q 411 640 325 640 q 645 543 548 640 q 741 312 741 447 q 645 81 741 177 q 411 -15 548 -15 q 248 29 327 -15 q 127 151 169 75 l 127 -277 l 83 -277 m 125 311 q 210 109 125 194 q 413 23 295 23 q 613 109 530 23 q 697 311 697 194 q 613 515 697 429 q 412 601 529 601 q 210 514 295 601 q 125 311 125 427 "},"‡":{"x_min":104.171875,"x_max":536.15625,"ha":640,"o":"m 536 394 l 343 394 l 343 0 l 297 0 l 297 394 l 104 394 l 104 434 l 297 434 l 297 647 l 104 647 l 104 690 l 297 690 l 297 1038 l 343 1038 l 343 690 l 536 690 l 536 647 l 343 647 l 343 434 l 536 434 l 536 394 "},"ň":{"x_min":83.34375,"x_max":644.5,"ha":728,"o":"m 127 0 l 83 0 l 83 625 l 127 625 l 127 498 q 369 640 198 640 q 565 559 486 640 q 644 363 644 479 l 644 0 l 600 0 l 600 363 q 532 530 600 459 q 369 601 465 601 q 200 530 273 601 q 127 363 127 459 l 127 0 m 569 894 l 386 734 l 344 734 l 158 894 l 216 894 l 363 768 l 512 894 l 569 894 "},"Ю":{"x_min":104.171875,"x_max":1482.0625,"ha":1552,"o":"m 104 0 l 104 1041 l 150 1041 l 150 437 l 405 437 q 398 520 398 481 q 558 900 398 741 q 940 1059 718 1059 q 1322 901 1162 1059 q 1482 525 1482 743 q 1323 144 1482 306 q 950 -18 1165 -18 l 929 -18 q 606 102 750 -18 q 412 397 462 223 l 150 397 l 150 0 l 104 0 m 1436 521 q 1289 872 1436 726 q 938 1019 1143 1019 q 589 872 734 1019 q 444 521 444 726 q 590 169 444 316 q 939 22 736 22 q 1289 169 1143 22 q 1436 521 1436 316 "},"ę":{"x_min":55.5625,"x_max":638.9375,"ha":688,"o":"m 402 -16 l 383 -16 q 153 82 251 -16 q 55 313 55 181 q 152 542 55 445 q 393 638 250 638 q 638 525 536 638 l 202 94 q 376 22 293 22 q 525 60 459 22 q 634 162 591 98 l 634 91 q 444 -12 555 2 l 333 -173 q 352 -222 333 -202 q 402 -243 370 -243 l 455 -243 l 455 -277 l 400 -277 q 325 -250 354 -277 q 295 -180 295 -222 l 295 -170 l 402 -16 m 381 600 q 185 514 270 600 q 100 318 100 429 q 173 123 100 206 l 577 525 q 381 600 491 600 "},"S":{"x_min":55.5625,"x_max":636.15625,"ha":692,"o":"m 523 894 q 436 986 491 952 q 313 1019 381 1019 q 197 977 245 1019 q 150 861 150 934 l 150 854 q 247 694 150 766 q 341 634 288 663 q 445 570 393 604 q 539 497 497 536 q 609 404 581 459 q 636 281 636 348 l 636 268 q 546 58 636 136 q 325 -19 456 -19 q 55 123 151 -19 l 55 198 q 161 70 91 119 q 336 20 231 20 q 516 87 440 20 q 593 265 593 154 l 593 273 q 556 400 593 343 q 466 495 520 458 q 348 572 412 531 q 230 647 284 612 q 140 734 176 682 q 104 850 104 787 l 104 859 q 166 1008 104 957 q 320 1059 229 1059 q 523 965 448 1059 l 523 894 "},"/":{"x_min":34.71875,"x_max":862.5625,"ha":897,"o":"m 808 1038 l 862 1038 l 86 0 l 34 0 l 808 1038 "},"į":{"x_min":-11.109375,"x_max":163.90625,"ha":247,"o":"m 95 -243 l 148 -243 l 148 -277 l 93 -277 q 18 -250 47 -277 q -11 -180 -11 -222 l -11 -170 l 108 0 l 101 0 l 101 623 l 145 623 l 145 0 l 147 0 l 26 -173 q 45 -222 26 -202 q 95 -243 63 -243 m 123 776 q 83 813 83 776 q 123 851 83 851 q 163 813 163 851 q 123 776 163 776 "},"Ŧ":{"x_min":27.78125,"x_max":551.4375,"ha":579,"o":"m 551 1041 l 551 1001 l 313 1001 l 313 422 l 477 422 l 477 381 l 313 381 l 313 0 l 268 0 l 268 381 l 104 381 l 104 422 l 268 422 l 268 1001 l 27 1001 l 27 1041 l 551 1041 "},"ђ":{"x_min":34.71875,"x_max":784.78125,"ha":889,"o":"m 34 804 l 34 844 l 223 844 l 223 1038 l 269 1038 l 269 844 l 504 844 l 504 804 l 269 804 l 269 512 q 504 640 343 640 q 703 559 622 640 q 784 363 784 479 l 784 -40 q 715 -209 784 -143 q 547 -275 645 -275 l 547 -236 q 684 -181 629 -236 q 738 -40 738 -126 l 738 363 q 669 530 738 459 q 504 601 600 601 q 339 532 409 601 q 269 373 269 463 l 269 0 l 223 0 l 223 804 l 34 804 "},"y":{"x_min":69.453125,"x_max":630.609375,"ha":700,"o":"m 586 625 l 630 625 l 630 19 q 544 -190 630 -104 q 333 -276 458 -276 q 95 -161 183 -276 l 98 -91 q 200 -197 137 -158 q 333 -237 263 -237 q 511 -163 436 -237 q 586 15 586 -88 l 586 120 q 348 -15 518 -15 q 151 65 233 -15 q 69 261 69 147 l 69 625 l 113 625 l 113 261 q 184 94 113 165 q 350 23 254 23 q 516 94 445 23 q 586 261 586 165 l 586 625 "},"≈":{"x_min":104.171875,"x_max":636.15625,"ha":740,"o":"m 636 329 q 524 265 580 265 q 374 315 468 265 q 227 365 280 365 q 104 268 159 359 l 104 341 q 226 408 158 402 q 382 358 291 408 q 526 308 473 308 q 636 398 579 308 l 636 329 m 226 583 q 382 533 291 583 q 526 483 473 483 q 636 573 579 483 l 636 504 q 524 440 580 440 q 374 490 468 440 q 227 540 280 540 q 104 443 159 534 l 104 516 q 226 583 158 577 "},"ǿ":{"x_min":55.5625,"x_max":716.71875,"ha":758,"o":"m 600 561 q 716 321 716 461 q 622 83 716 181 q 395 -15 529 -15 l 375 -15 q 206 36 280 -15 l 180 0 l 129 0 l 175 61 q 55 303 55 159 q 152 543 55 447 q 386 640 250 640 q 566 587 484 640 l 594 625 l 648 625 l 600 561 m 386 601 q 185 514 270 601 q 100 305 100 427 q 200 94 100 183 l 541 554 q 386 601 469 601 m 386 23 q 588 109 505 23 q 672 317 672 194 q 575 527 672 440 l 233 69 q 386 23 302 23 m 447 894 l 504 894 l 311 734 l 252 734 l 447 894 "},"g":{"x_min":48.609375,"x_max":708.390625,"ha":792,"o":"m 663 625 l 708 625 l 708 58 q 619 -195 708 -102 q 386 -288 530 -288 q 231 -252 306 -288 q 115 -158 156 -216 l 115 -94 q 228 -205 151 -161 q 386 -250 305 -250 q 586 -167 508 -250 q 663 58 663 -84 l 663 151 q 545 29 626 75 q 379 -16 465 -16 q 145 79 243 -16 q 48 311 48 176 q 145 542 48 445 q 379 638 243 638 q 547 593 469 638 q 663 469 626 548 l 663 625 m 93 311 q 178 107 93 193 q 381 22 263 22 q 581 107 498 22 q 665 311 665 193 q 581 514 665 429 q 381 600 498 600 q 178 514 263 600 q 93 311 93 429 "},"–":{"x_min":69.453125,"x_max":497.265625,"ha":567,"o":"m 497 391 l 69 391 l 69 434 l 497 434 l 497 391 "},"ë":{"x_min":69.453125,"x_max":652.828125,"ha":715,"o":"m 409 -16 l 397 -16 q 167 82 265 -16 q 69 313 69 181 q 166 542 69 445 q 406 638 263 638 q 652 525 550 638 l 216 94 q 390 22 306 22 q 539 60 473 22 q 648 162 605 98 l 648 91 q 409 -16 550 -16 m 395 600 q 199 514 284 600 q 113 318 113 429 q 187 123 113 206 l 591 525 q 395 600 505 600 m 284 775 q 244 812 244 775 q 284 850 244 850 q 325 812 325 850 q 284 775 325 775 m 431 775 q 393 812 393 775 q 431 850 393 850 q 469 812 469 850 q 431 775 469 775 "},"б":{"x_min":76.390625,"x_max":737.5625,"ha":793,"o":"m 120 308 q 206 106 120 191 q 409 20 291 20 q 609 106 526 20 q 693 309 693 191 q 609 512 693 426 q 408 598 525 598 q 206 511 291 598 q 120 308 120 425 m 406 637 q 641 541 544 637 q 737 311 737 444 q 643 80 737 179 q 416 -18 550 -18 l 395 -18 q 171 83 266 -18 q 76 316 76 184 l 76 422 q 140 673 76 576 q 215 749 166 713 q 304 802 265 784 q 408 847 343 820 l 661 947 l 661 907 l 408 805 q 119 472 119 690 l 119 459 q 238 590 159 543 q 406 637 318 637 "},"ƒ":{"x_min":34.71875,"x_max":468.09375,"ha":503,"o":"m 34 -275 l 34 -236 q 172 -180 116 -236 q 229 -40 229 -125 l 229 586 l 91 586 l 91 625 l 229 625 l 229 805 q 298 974 229 908 q 468 1040 368 1040 l 468 1001 q 329 945 386 1001 q 273 805 273 890 l 273 625 l 423 625 l 423 586 l 275 586 l 275 -40 q 204 -209 275 -143 q 34 -275 134 -275 "},"у":{"x_min":34.71875,"x_max":670.890625,"ha":706,"o":"m 670 625 l 241 -277 l 201 -277 l 333 1 l 34 625 l 81 625 l 356 51 l 630 625 l 670 625 "},"J":{"x_min":27.78125,"x_max":544.484375,"ha":649,"o":"m 241 1001 l 241 1041 l 544 1041 l 544 319 q 461 73 544 168 q 245 -20 379 -20 l 231 -20 q 27 58 120 -20 l 27 115 q 237 19 115 19 q 429 102 359 19 q 498 313 498 184 l 498 1001 l 241 1001 "},"Ã":{"x_min":41.671875,"x_max":1082.03125,"ha":1124,"o":"m 561 1066 l 1082 0 l 1033 0 l 836 397 l 279 397 l 84 0 l 41 0 l 561 1066 m 556 970 l 297 437 l 819 437 l 556 970 m 673 1176 q 564 1214 633 1176 q 454 1252 495 1252 q 368 1177 412 1251 l 325 1177 q 456 1288 379 1288 l 469 1288 q 573 1252 511 1288 q 674 1215 636 1215 q 755 1283 712 1215 l 798 1283 q 673 1176 733 1176 "},"ŷ":{"x_min":69.453125,"x_max":630.609375,"ha":700,"o":"m 586 625 l 630 625 l 630 19 q 544 -190 630 -104 q 333 -276 458 -276 q 95 -161 183 -276 l 98 -91 q 200 -197 137 -158 q 333 -237 263 -237 q 511 -163 436 -237 q 586 15 586 -88 l 586 120 q 348 -15 518 -15 q 151 65 233 -15 q 69 261 69 147 l 69 625 l 113 625 l 113 261 q 184 94 113 165 q 350 23 254 23 q 516 94 445 23 q 586 261 586 165 l 586 625 m 372 894 l 555 734 l 498 734 l 350 861 l 202 734 l 144 734 l 330 894 l 372 894 "},"ŕ":{"x_min":83.34375,"x_max":448.640625,"ha":483,"o":"m 448 540 q 313 601 387 601 q 184 545 240 601 q 127 416 127 490 l 127 0 l 83 0 l 83 625 l 127 625 l 127 531 q 205 609 152 579 q 323 640 258 640 q 448 595 388 640 l 448 540 m 348 894 l 405 894 l 212 734 l 154 734 l 348 894 "},"Ј":{"x_min":34.71875,"x_max":551.4375,"ha":656,"o":"m 248 1001 l 248 1041 l 551 1041 l 551 319 q 468 73 551 168 q 252 -20 386 -20 l 238 -20 q 34 58 127 -20 l 34 115 q 244 19 122 19 q 436 102 366 19 q 505 313 505 184 l 505 1001 l 248 1001 "},"©":{"x_min":76.390625,"x_max":1159.8125,"ha":1236,"o":"m 627 -18 l 607 -18 q 234 144 391 -18 q 76 524 76 306 q 236 900 76 741 q 619 1059 395 1059 q 1001 901 843 1059 q 1159 524 1159 743 q 1002 143 1159 305 q 627 -18 845 -18 m 1113 521 q 968 872 1113 726 q 618 1019 823 1019 q 268 872 413 1019 q 122 521 122 726 q 268 169 122 316 q 618 22 413 22 q 968 169 822 22 q 1113 521 1113 316 m 629 194 l 608 194 q 384 293 479 194 q 288 525 288 393 q 386 753 288 657 q 625 850 483 850 q 866 743 766 850 l 866 672 q 757 773 823 736 q 619 811 691 811 q 418 725 504 811 q 333 522 333 640 q 418 318 333 404 q 619 233 504 233 q 757 270 691 233 q 866 373 823 308 l 866 301 q 629 194 769 194 "},"˘":{"x_min":20.828125,"x_max":366.703125,"ha":388,"o":"m 59 894 q 102 806 62 844 q 192 768 143 768 q 281 806 241 768 q 326 894 320 844 l 366 894 q 314 781 363 829 q 198 733 265 733 l 187 733 q 72 780 120 733 q 20 894 23 827 l 59 894 "},"≥":{"x_min":104.171875,"x_max":538.9375,"ha":643,"o":"m 104 922 l 538 669 l 538 627 l 104 370 l 104 426 l 480 648 l 104 869 l 104 922 m 536 218 l 104 218 l 104 261 l 536 261 l 536 218 "},"Ă":{"x_min":27.78125,"x_max":1068.140625,"ha":1096,"o":"m 547 1066 l 1068 0 l 1019 0 l 822 397 l 265 397 l 70 0 l 27 0 l 547 1066 m 543 970 l 283 437 l 805 437 l 543 970 m 413 1311 q 456 1223 416 1261 q 546 1184 497 1184 q 635 1223 595 1184 q 680 1311 675 1261 l 720 1311 q 668 1198 718 1245 q 552 1150 619 1150 l 541 1150 q 426 1197 475 1150 q 375 1311 377 1244 l 413 1311 "},"ґ":{"x_min":104.171875,"x_max":380.59375,"ha":415,"o":"m 148 586 l 148 0 l 104 0 l 104 625 l 337 625 l 337 768 l 380 768 l 380 586 l 148 586 "},"D":{"x_min":104.171875,"x_max":668.109375,"ha":731,"o":"m 104 1041 l 148 1041 q 525 888 381 1041 q 668 520 668 734 q 525 152 668 305 q 148 0 383 0 l 104 0 l 104 1041 m 159 1000 l 148 1000 l 148 43 l 159 43 q 492 183 362 43 q 622 520 622 323 q 492 858 622 716 q 159 1000 362 1000 "},"ÿ":{"x_min":83.34375,"x_max":644.5,"ha":728,"o":"m 600 625 l 644 625 l 644 19 q 558 -190 644 -104 q 347 -276 472 -276 q 109 -161 197 -276 l 112 -91 q 214 -197 151 -158 q 347 -237 277 -237 q 525 -163 450 -237 q 600 15 600 -88 l 600 120 q 362 -15 531 -15 q 165 65 247 -15 q 83 261 83 147 l 83 625 l 127 625 l 127 261 q 197 94 127 165 q 363 23 268 23 q 529 94 459 23 q 600 261 600 165 l 600 625 m 291 775 q 251 812 251 775 q 291 850 251 850 q 331 812 331 850 q 291 775 331 775 m 438 775 q 400 812 400 775 q 438 850 400 850 q 476 812 476 850 q 438 775 476 775 "},"ĺ":{"x_min":25,"x_max":320.859375,"ha":349,"o":"m 320 26 l 320 -12 q 152 53 222 -12 q 83 222 83 119 l 83 1041 l 127 1041 l 127 222 q 184 81 127 137 q 320 26 240 26 m 219 1305 l 276 1305 l 83 1145 l 25 1145 l 219 1305 "},"ł":{"x_min":11.109375,"x_max":361.140625,"ha":392,"o":"m 361 26 l 361 -12 q 193 53 262 -12 q 123 222 123 119 l 123 363 l 38 279 l 11 306 l 123 419 l 123 1041 l 168 1041 l 168 463 l 316 612 l 344 584 l 168 408 l 168 222 q 224 81 168 137 q 361 26 280 26 "},"ц":{"x_min":104.171875,"x_max":705.609375,"ha":740,"o":"m 562 625 l 607 625 l 607 40 l 705 40 l 705 -134 l 666 -134 l 666 0 l 104 0 l 104 625 l 148 625 l 148 38 l 562 38 l 562 625 "},"Ł":{"x_min":11.109375,"x_max":472.265625,"ha":500,"o":"m 150 1041 l 150 445 l 316 612 l 344 584 l 150 390 l 150 40 l 472 40 l 472 0 l 104 0 l 104 344 l 38 279 l 11 306 l 104 400 l 104 1041 l 150 1041 "},"Л":{"x_min":34.71875,"x_max":1070.921875,"ha":1106,"o":"m 552 1065 l 1070 0 l 1020 0 l 548 965 l 79 0 l 34 0 l 552 1065 "},"$":{"x_min":48.609375,"x_max":655.609375,"ha":704,"o":"m 325 586 q 161 686 220 632 q 101 833 101 740 q 169 985 101 926 q 325 1054 237 1044 l 325 1132 l 368 1132 l 368 1054 q 554 961 483 1045 l 554 894 q 477 972 530 938 q 368 1013 423 1005 l 368 616 q 452 578 422 593 q 527 534 483 563 q 595 477 572 505 q 655 306 655 405 q 572 90 655 181 q 368 -16 488 0 l 368 -101 l 325 -101 l 325 -19 q 164 22 238 -16 q 48 123 90 61 l 48 195 q 161 72 84 122 q 325 20 237 23 l 325 586 m 533 475 q 368 569 470 525 l 368 23 q 541 118 470 40 q 612 304 612 197 q 533 475 612 411 m 325 1013 q 200 950 254 1001 q 147 829 147 900 q 193 716 147 758 q 325 633 238 673 l 325 1013 "},"w":{"x_min":34.71875,"x_max":915.34375,"ha":950,"o":"m 34 625 l 80 625 l 337 79 l 458 333 l 323 622 l 368 622 l 480 376 l 595 625 l 637 625 l 501 333 l 620 76 l 875 623 l 915 623 l 619 -15 l 477 288 l 334 -15 l 34 625 "},"\\":{"x_min":34.71875,"x_max":862.5625,"ha":897,"o":"m 34 1038 l 87 1038 l 862 0 l 809 0 l 34 1038 "},"о":{"x_min":55.5625,"x_max":716.71875,"ha":772,"o":"m 55 315 q 152 543 55 447 q 386 640 250 640 q 620 543 523 640 q 716 314 716 447 q 622 83 716 181 q 393 -15 527 -15 l 379 -15 q 152 84 248 -15 q 55 315 55 183 m 672 311 q 588 515 672 429 q 387 601 504 601 q 185 514 270 601 q 100 311 100 427 q 185 109 100 194 q 388 23 270 23 q 588 109 505 23 q 672 311 672 194 "},"Д":{"x_min":48.609375,"x_max":1194.546875,"ha":1243,"o":"m 48 -134 l 48 40 l 125 40 l 626 1065 l 1127 40 l 1194 40 l 1194 -134 l 1151 -134 l 1151 0 l 88 0 l 88 -134 l 48 -134 m 622 969 l 168 40 l 1080 40 l 622 969 "},"Ì":{"x_min":22.21875,"x_max":273.640625,"ha":296,"o":"m 125 1041 l 170 1041 l 170 0 l 125 0 l 125 1041 m 22 1311 l 79 1311 l 273 1151 l 215 1151 l 22 1311 "},"Ç":{"x_min":76.390625,"x_max":900.078125,"ha":997,"o":"m 579 -104 l 579 -13 q 224 157 372 -2 q 76 531 76 318 q 236 903 76 744 q 618 1062 395 1062 q 900 984 766 1062 l 900 933 q 618 1022 769 1022 q 268 875 413 1022 q 122 524 122 729 q 268 172 122 319 q 618 25 413 25 q 900 113 769 25 l 900 62 q 625 -15 773 -15 l 613 -15 l 613 -68 l 627 -68 q 703 -98 672 -68 q 734 -170 734 -129 l 734 -176 q 704 -247 734 -218 q 627 -277 673 -277 l 579 -277 l 579 -243 l 627 -243 q 680 -222 659 -243 q 701 -173 701 -202 q 680 -124 701 -144 q 627 -104 659 -104 l 579 -104 "},"ъ":{"x_min":34.71875,"x_max":475.03125,"ha":531,"o":"m 34 625 l 204 625 l 204 409 l 272 409 q 415 348 355 409 q 475 204 475 287 q 413 60 475 120 q 268 0 352 0 l 159 0 l 159 586 l 34 586 l 34 625 m 204 372 l 204 37 l 269 37 q 383 86 334 37 q 431 203 431 136 q 382 321 431 270 q 269 372 333 372 l 204 372 "},"Ŝ":{"x_min":55.5625,"x_max":636.15625,"ha":692,"o":"m 523 894 q 436 986 491 952 q 313 1019 381 1019 q 197 977 245 1019 q 150 861 150 934 l 150 854 q 247 694 150 766 q 341 634 288 663 q 445 570 393 604 q 539 497 497 536 q 609 404 581 459 q 636 281 636 348 l 636 268 q 546 58 636 136 q 325 -19 456 -19 q 55 123 151 -19 l 55 198 q 161 70 91 119 q 336 20 231 20 q 516 87 440 20 q 593 265 593 154 l 593 273 q 556 400 593 343 q 466 495 520 458 q 348 572 412 531 q 230 647 284 612 q 140 734 176 682 q 104 850 104 787 l 104 859 q 166 1008 104 957 q 320 1059 229 1059 q 523 965 448 1059 l 523 894 m 368 1311 l 551 1151 l 494 1151 l 345 1277 l 198 1151 l 140 1151 l 326 1311 l 368 1311 "},"C":{"x_min":62.5,"x_max":886.1875,"ha":970,"o":"m 611 -15 l 595 -15 q 329 59 452 -15 q 134 259 205 134 q 62 523 62 383 q 222 903 62 744 q 604 1062 381 1062 q 886 984 752 1062 l 886 933 q 604 1022 755 1022 q 254 875 400 1022 q 108 524 108 729 q 254 172 108 319 q 604 25 400 25 q 886 113 755 25 l 886 62 q 611 -15 759 -15 "},"Ē":{"x_min":104.171875,"x_max":477.8125,"ha":513,"o":"m 104 1041 l 477 1041 l 477 1001 l 150 1001 l 150 434 l 423 434 l 423 394 l 150 394 l 150 40 l 477 40 l 477 0 l 104 0 l 104 1041 "},"!":{"x_min":111.125,"x_max":202.796875,"ha":314,"o":"m 136 1041 l 181 1041 l 181 138 l 136 138 l 136 1041 m 156 -9 q 111 33 111 -9 q 156 76 111 76 q 202 33 202 76 q 156 -9 202 -9 "},"ç":{"x_min":62.5,"x_max":640.328125,"ha":689,"o":"m 331 -104 l 331 -12 q 139 101 216 6 q 62 320 62 195 q 159 541 62 444 q 398 637 256 637 q 640 530 540 637 l 640 459 q 531 561 597 523 q 393 598 465 598 q 192 513 277 598 q 106 309 106 427 q 192 106 106 191 q 393 20 277 20 q 531 58 465 20 q 640 161 597 95 l 640 88 q 400 -18 543 -18 l 387 -18 q 366 -16 370 -18 l 366 -68 l 380 -68 q 456 -98 425 -68 q 487 -170 487 -129 l 487 -176 q 456 -247 487 -218 q 380 -277 426 -277 l 331 -277 l 331 -243 l 380 -243 q 433 -222 412 -243 q 454 -173 454 -202 q 433 -124 454 -144 q 380 -104 412 -104 l 331 -104 "},"Ĵ":{"x_min":27.78125,"x_max":602.828125,"ha":649,"o":"m 241 1001 l 241 1041 l 544 1041 l 544 319 q 461 73 544 168 q 245 -20 379 -20 l 231 -20 q 27 58 120 -20 l 27 115 q 237 19 115 19 q 429 102 359 19 q 498 313 498 184 l 498 1001 l 241 1001 m 419 1311 l 602 1151 l 545 1151 l 397 1277 l 250 1151 l 191 1151 l 377 1311 l 419 1311 "},"Й":{"x_min":104.171875,"x_max":919.515625,"ha":1024,"o":"m 395 1295 q 438 1207 400 1244 q 528 1170 477 1170 q 618 1208 579 1170 q 662 1295 657 1245 l 702 1295 q 650 1182 700 1230 q 534 1134 601 1134 l 523 1134 q 408 1182 456 1134 q 356 1295 359 1229 l 395 1295 m 919 1041 l 919 0 l 873 0 l 873 976 l 147 0 l 104 0 l 104 1041 l 150 1041 l 150 68 l 873 1041 l 919 1041 "},"È":{"x_min":118.0625,"x_max":491.703125,"ha":540,"o":"m 118 1041 l 491 1041 l 491 1001 l 163 1001 l 163 434 l 437 434 l 437 394 l 163 394 l 163 40 l 491 40 l 491 0 l 118 0 l 118 1041 m 181 1311 l 238 1311 l 433 1151 l 375 1151 l 181 1311 "},"ﬁ":{"x_min":83.34375,"x_max":486.15625,"ha":569,"o":"m 468 623 l 468 0 l 423 0 l 423 238 l 127 238 l 127 0 l 83 0 l 83 643 q 152 811 83 745 q 320 877 222 877 l 320 838 q 184 783 240 838 q 127 643 127 727 l 127 277 l 423 277 l 423 623 l 468 623 m 445 819 q 405 857 405 819 q 445 894 405 894 q 486 857 486 894 q 445 819 486 819 "},"X":{"x_min":27.78125,"x_max":643.109375,"ha":671,"o":"m 581 1041 l 358 583 l 643 0 l 591 0 l 331 534 l 70 0 l 27 0 l 309 581 l 80 1041 l 133 1041 l 336 629 l 537 1041 l 581 1041 "},"ô":{"x_min":62.5,"x_max":723.671875,"ha":786,"o":"m 387 -15 q 158 84 254 -15 q 62 315 62 183 q 159 543 62 447 q 393 640 256 640 q 627 543 530 640 q 723 314 723 447 q 629 83 723 181 q 400 -15 534 -15 l 387 -15 m 679 311 q 595 515 679 429 q 394 601 511 601 q 192 514 277 601 q 106 311 106 427 q 192 109 106 194 q 395 23 277 23 q 595 109 512 23 q 679 311 679 194 m 415 894 l 598 734 l 541 734 l 393 861 l 245 734 l 187 734 l 373 894 l 415 894 "},"Б":{"x_min":104.171875,"x_max":497.265625,"ha":546,"o":"m 104 0 l 104 1041 l 437 1041 l 437 1001 l 150 1001 l 150 662 l 162 662 q 395 563 294 662 q 497 330 497 465 q 393 97 497 195 q 150 0 288 0 l 104 0 m 150 623 l 150 38 l 161 38 q 363 125 275 38 q 451 331 451 212 q 366 536 451 450 q 161 623 281 623 l 150 623 "},"Ė":{"x_min":104.171875,"x_max":477.8125,"ha":513,"o":"m 104 1041 l 477 1041 l 477 1001 l 150 1001 l 150 434 l 423 434 l 423 394 l 150 394 l 150 40 l 477 40 l 477 0 l 104 0 l 104 1041 m 295 1193 q 255 1230 255 1193 q 295 1268 255 1268 q 336 1230 336 1268 q 295 1193 336 1193 "},"г":{"x_min":104.171875,"x_max":380.59375,"ha":415,"o":"m 380 584 l 148 584 l 148 0 l 104 0 l 104 623 l 380 623 l 380 584 "},"Ā":{"x_min":27.78125,"x_max":1068.140625,"ha":1096,"o":"m 547 1066 l 1068 0 l 1019 0 l 822 397 l 265 397 l 70 0 l 27 0 l 547 1066 m 543 970 l 283 437 l 805 437 l 543 970 "},"ċ":{"x_min":48.609375,"x_max":626.4375,"ha":661,"o":"m 386 -18 l 373 -18 q 144 80 240 -18 q 48 311 48 179 q 145 541 48 444 q 384 637 243 637 q 626 530 526 637 l 626 459 q 517 561 583 523 q 379 598 451 598 q 178 513 263 598 q 93 309 93 427 q 178 106 93 191 q 379 20 263 20 q 517 58 451 20 q 626 161 583 95 l 626 88 q 386 -18 529 -18 m 375 776 q 334 813 334 776 q 375 851 334 851 q 415 813 415 851 q 375 776 415 776 "},"đ":{"x_min":48.609375,"x_max":800.0625,"ha":826,"o":"m 707 1041 l 707 826 l 800 826 l 800 786 l 707 786 l 707 0 l 662 0 l 662 151 q 541 29 620 75 q 379 -15 462 -15 q 145 81 241 -15 q 48 312 48 177 q 145 543 48 447 q 379 640 241 640 q 545 594 465 640 q 662 472 625 548 l 662 786 l 500 786 l 500 826 l 662 826 l 662 1041 l 707 1041 m 93 311 q 176 109 93 194 q 377 23 259 23 q 579 109 494 23 q 665 311 665 194 q 579 514 665 427 q 377 601 494 601 q 177 515 261 601 q 93 311 93 429 "},"Ẃ":{"x_min":27.78125,"x_max":1389,"ha":1421,"o":"m 484 -18 l 27 1041 l 79 1041 l 491 87 l 684 538 l 469 1041 l 519 1041 l 712 584 l 911 1041 l 950 1041 l 733 540 l 930 83 l 1351 1041 l 1389 1041 l 926 -18 l 705 490 l 484 -18 m 779 1311 l 836 1311 l 643 1151 l 584 1151 l 779 1311 "},"Ŀ":{"x_min":104.171875,"x_max":472.265625,"ha":500,"o":"m 150 1041 l 150 40 l 472 40 l 472 0 l 104 0 l 104 1041 l 150 1041 m 394 509 q 351 552 351 509 q 394 595 351 595 q 437 552 437 595 q 394 509 437 509 "},"х":{"x_min":34.71875,"x_max":579.21875,"ha":614,"o":"m 327 379 l 579 0 l 527 0 l 302 340 l 79 0 l 34 0 l 280 375 l 115 625 l 166 625 l 305 413 l 444 625 l 488 625 l 327 379 "},"}":{"x_min":27.78125,"x_max":309.75,"ha":357,"o":"m 173 926 l 173 702 q 213 590 173 643 q 309 520 254 537 q 213 453 254 504 q 173 341 173 402 l 173 106 q 131 -16 173 43 q 27 -104 90 -76 l 27 -62 q 127 106 127 -8 l 127 341 q 219 520 127 461 q 152 598 176 548 q 127 702 127 648 l 127 926 q 100 1026 127 982 q 27 1093 73 1070 l 27 1134 q 132 1048 91 1104 q 173 926 173 991 "},"â":{"x_min":62.5,"x_max":720.890625,"ha":818,"o":"m 720 625 l 720 0 l 676 0 l 676 155 q 559 30 637 76 q 393 -15 481 -15 q 159 81 256 -15 q 62 312 62 177 q 159 543 62 447 q 393 640 256 640 q 563 593 481 640 q 676 468 644 545 l 676 625 l 720 625 m 106 311 q 192 109 106 194 q 395 23 277 23 q 595 109 512 23 q 679 311 679 194 q 595 515 679 429 q 394 601 511 601 q 192 514 277 601 q 106 311 106 427 m 430 894 l 613 734 l 556 734 l 408 861 l 261 734 l 202 734 l 388 894 l 430 894 "},"ø":{"x_min":55.5625,"x_max":716.71875,"ha":772,"o":"m 600 561 q 716 321 716 461 q 622 83 716 181 q 395 -15 529 -15 l 375 -15 q 206 36 280 -15 l 180 0 l 129 0 l 175 61 q 55 303 55 159 q 152 543 55 447 q 386 640 250 640 q 566 587 484 640 l 594 625 l 648 625 l 600 561 m 386 601 q 185 514 270 601 q 100 305 100 427 q 200 94 100 183 l 541 554 q 386 601 469 601 m 386 23 q 588 109 505 23 q 672 317 672 194 q 575 527 672 440 l 233 69 q 386 23 302 23 "},"‰":{"x_min":76.390625,"x_max":1534.84375,"ha":1604,"o":"m 758 -15 l 744 -15 q 590 52 655 -15 q 525 212 525 120 q 591 370 525 304 q 753 437 658 437 q 915 370 848 437 q 982 212 982 304 q 916 52 982 120 q 758 -15 850 -15 m 937 210 q 882 341 937 284 q 754 397 827 397 q 625 341 680 397 q 569 210 569 284 q 625 80 569 136 q 754 25 680 25 q 882 80 827 25 q 937 210 937 136 m 309 604 l 295 604 q 140 672 205 604 q 76 832 76 740 q 142 990 76 923 q 303 1057 208 1057 q 464 990 398 1057 q 530 832 530 923 q 465 672 530 740 q 309 604 400 604 m 432 960 q 304 1016 379 1016 q 173 960 229 1016 q 118 829 118 904 q 173 700 118 755 q 304 644 229 644 q 432 699 379 644 q 486 829 486 754 q 432 960 486 904 m 1311 -15 l 1297 -15 q 1143 52 1208 -15 q 1077 212 1077 120 q 1144 370 1077 304 q 1306 437 1211 437 q 1468 370 1401 437 q 1534 212 1534 304 q 1468 52 1534 120 q 1311 -15 1402 -15 m 1490 210 q 1435 341 1490 284 q 1307 397 1380 397 q 1177 341 1233 397 q 1122 210 1122 284 q 1177 80 1122 136 q 1307 25 1233 25 q 1435 80 1380 25 q 1490 210 1490 136 m 879 1038 l 933 1038 l 156 0 l 105 0 l 879 1038 "},"Ä":{"x_min":41.671875,"x_max":1082.03125,"ha":1124,"o":"m 561 1066 l 1082 0 l 1033 0 l 836 397 l 279 397 l 84 0 l 41 0 l 561 1066 m 556 970 l 297 437 l 819 437 l 556 970 m 488 1191 q 448 1229 448 1191 q 488 1266 448 1266 q 529 1229 529 1266 q 488 1191 529 1191 m 635 1191 q 597 1229 597 1191 q 635 1266 597 1266 q 673 1229 673 1266 q 635 1191 673 1191 "},"ř":{"x_min":69.453125,"x_max":480.59375,"ha":483,"o":"m 448 540 q 313 601 387 601 q 184 545 240 601 q 127 416 127 490 l 127 0 l 83 0 l 83 625 l 127 625 l 127 531 q 205 609 152 579 q 323 640 258 640 q 448 595 388 640 l 448 540 m 480 894 l 297 734 l 255 734 l 69 894 l 127 894 l 275 768 l 423 894 l 480 894 "},"Ч":{"x_min":83.34375,"x_max":704.21875,"ha":808,"o":"m 83 701 l 83 1041 l 129 1041 l 129 711 q 206 516 129 597 q 393 434 283 434 q 581 516 504 434 q 658 711 658 597 l 658 1041 l 704 1041 l 704 0 l 658 0 l 658 563 q 554 442 623 490 q 401 394 484 394 l 387 394 q 173 486 263 394 q 83 701 83 579 "},"—":{"x_min":20.828125,"x_max":665.328125,"ha":686,"o":"m 665 391 l 20 391 l 20 434 l 665 434 l 665 391 "},"N":{"x_min":104.171875,"x_max":911.1875,"ha":1015,"o":"m 870 1041 l 911 1041 l 911 -15 l 144 927 l 144 0 l 104 0 l 104 1057 l 870 115 l 870 1041 "},"2":{"x_min":41.671875,"x_max":818.125,"ha":885,"o":"m 772 666 q 680 911 772 807 q 437 1015 588 1015 q 185 906 286 1015 q 84 641 84 797 l 41 641 q 155 936 41 818 q 439 1054 269 1054 q 713 938 609 1054 q 818 665 818 823 q 572 281 818 436 l 194 45 l 813 45 l 813 0 l 50 0 l 534 306 q 772 666 772 456 "},"М":{"x_min":104.171875,"x_max":1172.3125,"ha":1276,"o":"m 1172 1041 l 1172 0 l 1126 0 l 1126 987 l 634 -19 l 145 987 l 145 0 l 104 0 l 104 1041 l 170 1041 l 638 80 l 1108 1041 l 1172 1041 "},"ü":{"x_min":83.34375,"x_max":644.5,"ha":728,"o":"m 600 625 l 644 625 l 644 0 l 600 0 l 600 126 q 358 -15 529 -15 q 162 65 241 -15 q 83 261 83 145 l 83 625 l 127 625 l 127 261 q 195 94 127 165 q 358 23 262 23 q 527 94 454 23 q 600 261 600 165 l 600 625 m 291 775 q 251 812 251 775 q 291 850 251 850 q 331 812 331 850 q 291 775 331 775 m 438 775 q 400 812 400 775 q 438 850 400 850 q 476 812 476 850 q 438 775 476 775 "},"ь":{"x_min":104.171875,"x_max":419.484375,"ha":475,"o":"m 104 625 l 148 625 l 148 409 l 216 409 q 359 348 300 409 q 419 204 419 287 q 358 60 419 120 q 212 0 297 0 l 104 0 l 104 625 m 148 372 l 148 37 l 213 37 q 327 86 279 37 q 376 203 376 136 q 327 321 376 270 q 213 372 277 372 l 148 372 "},"˜":{"x_min":20.828125,"x_max":494.484375,"ha":515,"o":"m 369 759 q 260 797 329 759 q 150 835 191 836 q 63 761 108 834 l 20 761 q 152 872 75 872 l 165 872 q 269 835 206 872 q 370 798 331 798 q 451 866 408 798 l 494 866 q 369 759 429 759 "},"Ó":{"x_min":76.390625,"x_max":1159.8125,"ha":1236,"o":"m 607 -18 q 234 144 391 -18 q 76 524 76 306 q 236 900 76 741 q 619 1059 395 1059 q 1001 901 843 1059 q 1159 524 1159 743 q 1002 143 1159 305 q 627 -18 845 -18 l 607 -18 m 1113 521 q 968 872 1113 726 q 618 1019 823 1019 q 268 872 413 1019 q 122 521 122 726 q 268 169 122 316 q 618 22 413 22 q 968 169 822 22 q 1113 521 1113 316 m 686 1311 l 743 1311 l 550 1151 l 491 1151 l 686 1311 "},"ˇ":{"x_min":25,"x_max":436.140625,"ha":458,"o":"m 436 894 l 252 734 l 211 734 l 25 894 l 83 894 l 230 768 l 379 894 l 436 894 "},"Ў":{"x_min":44.453125,"x_max":851.453125,"ha":888,"o":"m 330 1286 q 373 1198 333 1236 q 463 1159 413 1159 q 552 1198 512 1159 q 597 1286 591 1236 l 637 1286 q 585 1173 634 1220 q 469 1125 536 1125 l 458 1125 q 343 1172 391 1125 q 291 1286 294 1219 l 330 1286 m 851 1041 l 356 0 l 313 0 l 433 251 l 44 1041 l 94 1041 l 458 300 l 808 1041 l 851 1041 "},"Ÿ":{"x_min":41.671875,"x_max":713.953125,"ha":756,"o":"m 404 0 l 358 0 l 358 416 l 41 1041 l 91 1041 l 384 465 l 672 1041 l 713 1041 l 404 416 l 404 0 m 305 1191 q 265 1229 265 1191 q 305 1266 265 1266 q 345 1229 345 1266 q 305 1191 345 1191 m 452 1191 q 413 1229 413 1191 q 452 1266 413 1266 q 490 1229 490 1266 q 452 1191 490 1191 "},"ų":{"x_min":69.453125,"x_max":630.609375,"ha":700,"o":"m 586 625 l 630 625 l 630 0 l 629 0 l 508 -173 q 527 -222 508 -202 q 577 -243 545 -243 l 630 -243 l 630 -277 l 575 -277 q 500 -250 529 -277 q 470 -180 470 -222 l 470 -170 l 590 0 l 586 0 l 586 126 q 344 -15 515 -15 q 148 65 227 -15 q 69 261 69 145 l 69 625 l 113 625 l 113 261 q 181 94 113 165 q 344 23 248 23 q 513 94 440 23 q 586 261 586 165 l 586 625 "},"€":{"x_min":104.171875,"x_max":925.078125,"ha":974,"o":"m 643 1057 q 925 976 790 1057 l 908 934 q 634 1016 790 1016 q 341 901 479 1016 q 158 625 204 786 l 775 625 l 759 584 l 151 584 q 147 517 147 552 q 154 437 147 481 l 695 437 l 680 397 l 162 397 q 342 129 208 237 q 634 22 476 22 q 922 111 791 22 l 922 59 q 652 -18 795 -18 l 632 -18 q 260 143 416 -18 q 104 521 104 304 q 262 897 104 738 q 643 1057 420 1057 "},"в":{"x_min":104.171875,"x_max":426.421875,"ha":482,"o":"m 104 625 l 220 625 q 310 588 275 625 q 345 490 345 551 q 294 395 345 429 q 388 323 350 379 q 426 194 426 268 q 366 60 426 120 q 220 0 306 0 l 104 0 l 104 625 m 223 372 l 148 372 l 148 37 l 223 37 q 338 86 290 37 q 386 205 386 136 q 338 323 386 275 q 223 372 290 372 m 222 587 l 148 587 l 148 409 l 225 409 q 283 435 258 409 q 308 496 308 461 q 281 559 308 531 q 222 587 255 587 "},"Ŭ":{"x_min":104.171875,"x_max":725.0625,"ha":829,"o":"m 422 -19 l 408 -19 q 192 69 280 -19 q 104 293 104 158 l 104 1041 l 150 1041 l 150 294 q 226 98 150 176 q 415 20 302 20 q 603 97 527 20 q 679 294 679 175 l 679 1041 l 725 1041 l 725 295 q 636 70 725 159 q 422 -19 548 -19 m 280 1311 q 323 1223 283 1261 q 413 1184 363 1184 q 502 1223 462 1184 q 547 1311 541 1261 l 587 1311 q 535 1198 584 1245 q 419 1150 486 1150 l 408 1150 q 293 1197 341 1150 q 241 1311 244 1244 l 280 1311 "},"С":{"x_min":69.453125,"x_max":893.125,"ha":942,"o":"m 618 -15 l 602 -15 q 336 59 459 -15 q 140 259 212 134 q 69 523 69 383 q 229 903 69 744 q 611 1062 388 1062 q 893 984 759 1062 l 893 933 q 611 1022 762 1022 q 261 875 406 1022 q 115 524 115 729 q 261 172 115 319 q 611 25 406 25 q 893 113 762 25 l 893 62 q 618 -15 766 -15 "},"ĝ":{"x_min":48.609375,"x_max":708.390625,"ha":792,"o":"m 663 625 l 708 625 l 708 58 q 619 -195 708 -102 q 386 -288 530 -288 q 231 -252 306 -288 q 115 -158 156 -216 l 115 -94 q 228 -205 151 -161 q 386 -250 305 -250 q 586 -167 508 -250 q 663 58 663 -84 l 663 151 q 545 29 626 75 q 379 -16 465 -16 q 145 79 243 -16 q 48 311 48 176 q 145 542 48 445 q 379 638 243 638 q 547 593 469 638 q 663 469 626 548 l 663 625 m 93 311 q 178 107 93 193 q 381 22 263 22 q 581 107 498 22 q 665 311 665 193 q 581 514 665 429 q 381 600 498 600 q 178 514 263 600 q 93 311 93 429 m 418 894 l 601 734 l 544 734 l 395 861 l 248 734 l 190 734 l 376 894 l 418 894 "},"ß":{"x_min":104.171875,"x_max":738.953125,"ha":795,"o":"m 301 982 q 441 925 383 982 q 498 783 498 868 q 420 633 498 698 q 646 534 554 627 q 738 309 738 441 q 643 81 738 176 q 412 -13 547 -13 q 280 13 347 -13 l 280 61 q 412 26 344 26 q 612 110 527 26 q 697 310 697 194 q 613 509 697 426 q 412 593 529 593 l 300 593 l 300 633 q 408 679 362 633 q 454 788 454 726 q 408 895 454 850 q 301 941 362 941 q 194 895 240 941 q 148 787 148 850 l 148 0 l 104 0 l 104 787 q 161 925 104 868 q 301 982 219 982 "},"њ":{"x_min":104.171875,"x_max":779.234375,"ha":835,"o":"m 501 625 l 544 625 l 544 409 l 577 409 q 720 349 662 409 q 779 204 779 288 q 719 60 779 120 q 573 0 659 0 l 501 0 l 501 372 l 148 372 l 148 0 l 104 0 l 104 625 l 148 625 l 148 411 l 501 411 l 501 625 m 544 372 l 544 37 l 576 37 q 691 86 643 37 q 738 203 738 136 q 691 321 738 270 q 576 372 643 372 l 544 372 "},"s":{"x_min":44.453125,"x_max":429.203125,"ha":478,"o":"m 219 602 q 155 579 183 602 q 127 520 127 555 q 159 456 127 486 q 234 403 190 427 q 322 351 277 379 q 397 280 366 323 q 429 181 429 237 q 367 42 429 100 q 218 -15 305 -15 q 114 9 162 -15 q 44 73 66 33 l 44 140 q 213 23 97 23 q 335 68 286 23 q 384 167 384 112 q 353 259 384 222 q 277 323 322 297 q 189 375 233 350 q 114 438 145 401 q 83 524 83 475 q 122 607 83 573 q 225 641 162 641 q 331 593 287 641 l 331 536 q 219 602 287 602 "},"Ű":{"x_min":104.171875,"x_max":725.0625,"ha":829,"o":"m 422 -19 l 408 -19 q 192 69 280 -19 q 104 293 104 158 l 104 1041 l 150 1041 l 150 294 q 226 98 150 176 q 415 20 302 20 q 603 97 527 20 q 679 294 679 175 l 679 1041 l 725 1041 l 725 295 q 636 70 725 159 q 422 -19 548 -19 m 398 1311 l 455 1311 l 262 1151 l 204 1151 l 398 1311 m 568 1311 l 625 1311 l 431 1151 l 373 1151 l 568 1311 "},"?":{"x_min":62.5,"x_max":779.234375,"ha":897,"o":"m 62 709 q 168 961 70 863 q 420 1058 265 1058 q 677 957 575 1058 q 779 721 779 855 q 680 465 779 587 q 447 362 584 370 l 447 133 l 402 133 l 402 402 l 422 402 q 647 494 561 402 q 734 714 734 586 q 643 930 734 843 q 418 1018 552 1018 q 199 934 283 1018 q 109 709 115 850 l 62 709 m 428 -9 q 380 33 380 -9 q 428 76 380 76 q 476 33 476 76 q 428 -9 476 -9 "},"c":{"x_min":48.609375,"x_max":626.4375,"ha":661,"o":"m 386 -18 l 373 -18 q 144 80 240 -18 q 48 311 48 179 q 145 541 48 444 q 384 637 243 637 q 626 530 526 637 l 626 459 q 517 561 583 523 q 379 598 451 598 q 178 513 263 598 q 93 309 93 427 q 178 106 93 191 q 379 20 263 20 q 517 58 451 20 q 626 161 583 95 l 626 88 q 386 -18 529 -18 "},"Ņ":{"x_min":104.171875,"x_max":911.1875,"ha":1015,"o":"m 870 1041 l 911 1041 l 911 -15 l 144 927 l 144 0 l 104 0 l 104 1057 l 870 115 l 870 1041 m 502 -270 l 502 -193 q 459 -150 459 -193 q 507 -106 459 -106 q 555 -150 555 -106 q 551 -172 555 -159 l 508 -270 l 502 -270 "},"¶":{"x_min":104.171875,"x_max":741.71875,"ha":783,"o":"m 376 -277 l 333 -277 l 333 632 l 305 632 q 162 692 220 632 q 104 836 104 752 q 163 981 104 920 q 309 1041 223 1041 l 741 1041 l 741 1001 l 616 1001 l 616 -277 l 573 -277 l 573 1001 l 376 1001 l 376 -277 "},"Ī":{"x_min":0,"x_max":273.640625,"ha":268,"o":"m 111 1041 l 156 1041 l 156 0 l 111 0 l 111 1041 m 273 1202 l 0 1202 l 0 1241 l 273 1241 l 273 1202 "},"•":{"x_min":152.796875,"x_max":284.75,"ha":438,"o":"m 218 331 q 152 397 152 331 q 218 462 152 462 q 284 397 284 462 q 266 349 284 366 q 218 331 248 331 "},"н":{"x_min":104.171875,"x_max":616.71875,"ha":721,"o":"m 572 625 l 616 625 l 616 0 l 572 0 l 572 234 l 148 234 l 148 0 l 104 0 l 104 625 l 148 625 l 148 273 l 572 273 l 572 625 "},"(":{"x_min":118.0625,"x_max":427.8125,"ha":463,"o":"m 427 -120 q 201 165 284 0 q 118 510 118 330 q 200 854 118 690 q 427 1136 283 1018 l 427 1086 q 163 506 163 844 q 233 193 163 340 q 427 -66 302 45 l 427 -120 "},"м":{"x_min":104.171875,"x_max":747.28125,"ha":851,"o":"m 104 0 l 104 625 l 154 625 l 427 72 l 705 625 l 747 625 l 747 0 l 702 0 l 702 543 l 420 -16 l 143 548 l 143 0 l 104 0 "},"­":{"x_min":69.453125,"x_max":501.421875,"ha":571,"o":"m 501 391 l 69 391 l 69 434 l 501 434 l 501 391 "},"Ħ":{"x_min":27.78125,"x_max":987.578125,"ha":1014,"o":"m 863 1041 l 909 1041 l 909 775 l 987 775 l 987 734 l 909 734 l 909 0 l 863 0 l 863 397 l 150 397 l 150 0 l 104 0 l 104 734 l 27 734 l 27 775 l 104 775 l 104 1041 l 150 1041 l 150 775 l 863 775 l 863 1041 m 150 437 l 863 437 l 863 734 l 150 734 l 150 437 "},"з":{"x_min":41.671875,"x_max":441.703125,"ha":497,"o":"m 213 636 q 313 597 273 636 q 352 514 352 559 q 334 440 352 469 q 290 398 315 411 q 397 322 352 381 q 441 186 441 263 q 377 45 441 108 q 223 -18 312 -18 q 41 76 105 -18 l 41 159 q 109 58 62 97 q 225 19 156 19 q 345 72 293 19 q 397 196 397 125 q 345 321 397 268 q 223 375 293 375 l 190 375 l 190 412 l 218 412 q 281 440 255 412 q 308 505 308 468 q 281 570 308 543 q 218 598 255 598 q 109 500 140 598 l 109 587 q 213 636 154 636 "},":":{"x_min":118.0625,"x_max":211.125,"ha":329,"o":"m 164 -9 q 118 33 118 -9 q 164 76 118 76 q 211 33 211 76 q 164 -9 211 -9 m 164 362 q 118 405 118 362 q 164 448 118 448 q 211 405 211 448 q 164 362 211 362 "},"Ґ":{"x_min":104.171875,"x_max":475.03125,"ha":510,"o":"m 150 1001 l 150 0 l 104 0 l 104 1041 l 429 1041 l 429 1179 l 475 1179 l 475 1001 l 150 1001 "},"і":{"x_min":111.125,"x_max":191.6875,"ha":303,"o":"m 173 623 l 173 0 l 129 0 l 129 623 l 173 623 m 151 776 q 111 813 111 776 q 151 851 111 851 q 191 813 191 851 q 151 776 191 776 "},"Û":{"x_min":118.0625,"x_max":738.953125,"ha":857,"o":"m 436 -19 l 422 -19 q 206 69 294 -19 q 118 293 118 158 l 118 1041 l 163 1041 l 163 294 q 240 98 163 176 q 429 20 316 20 q 617 97 541 20 q 693 294 693 175 l 693 1041 l 738 1041 l 738 295 q 650 70 738 159 q 436 -19 562 -19 m 450 1311 l 633 1151 l 576 1151 l 427 1277 l 280 1151 l 222 1151 l 408 1311 l 450 1311 "},"ś":{"x_min":44.453125,"x_max":429.203125,"ha":478,"o":"m 219 602 q 155 579 183 602 q 127 520 127 555 q 159 456 127 486 q 234 403 190 427 q 322 351 277 379 q 397 280 366 323 q 429 181 429 237 q 367 42 429 100 q 218 -15 305 -15 q 114 9 162 -15 q 44 73 66 33 l 44 140 q 213 23 97 23 q 335 68 286 23 q 384 167 384 112 q 353 259 384 222 q 277 323 322 297 q 189 375 233 350 q 114 438 145 401 q 83 524 83 475 q 122 607 83 573 q 225 641 162 641 q 331 593 287 641 l 331 536 q 219 602 287 602 m 306 894 l 363 894 l 170 734 l 112 734 l 306 894 "},"V":{"x_min":27.78125,"x_max":1063.96875,"ha":1092,"o":"m 545 -23 l 27 1041 l 77 1041 l 550 76 l 1019 1041 l 1063 1041 l 545 -23 "},"Ŗ":{"x_min":104.171875,"x_max":523.65625,"ha":565,"o":"m 104 1041 l 163 1041 q 400 942 298 1041 q 502 709 502 843 q 398 476 502 575 q 175 377 294 377 l 165 377 l 523 0 l 463 0 l 148 330 l 148 0 l 104 0 l 104 1041 m 148 418 l 173 418 q 372 504 286 418 q 458 708 458 590 q 369 913 458 826 q 166 1001 280 1001 l 148 1001 l 148 418 m 277 -270 l 277 -193 q 234 -150 234 -193 q 282 -106 234 -106 q 330 -150 330 -106 q 326 -172 330 -159 l 283 -270 l 277 -270 "},"У":{"x_min":34.71875,"x_max":841.734375,"ha":876,"o":"m 841 1041 l 347 0 l 304 0 l 423 251 l 34 1041 l 84 1041 l 448 300 l 798 1041 l 841 1041 "},"@":{"x_min":69.453125,"x_max":1152.875,"ha":1222,"o":"m 620 -18 l 600 -18 q 227 144 384 -18 q 69 524 69 306 q 229 900 69 741 q 612 1059 388 1059 q 994 901 836 1059 q 1152 524 1152 743 q 995 143 1152 305 q 620 -18 838 -18 m 1107 521 q 961 872 1107 726 q 611 1019 816 1019 q 261 872 406 1019 q 115 521 115 726 q 261 169 115 316 q 611 22 406 22 q 961 169 815 22 q 1107 521 1107 316 m 938 833 l 938 208 l 894 208 l 894 354 q 773 236 850 279 q 611 193 697 193 q 377 289 475 193 q 280 520 280 386 q 377 752 280 655 q 611 848 475 848 q 773 805 697 848 q 894 687 850 762 l 894 833 l 938 833 m 325 519 q 410 317 325 402 q 613 231 495 231 q 813 317 730 231 q 897 520 897 402 q 813 723 897 637 q 612 809 729 809 q 410 722 495 809 q 325 519 325 636 "},"i":{"x_min":83.34375,"x_max":163.90625,"ha":247,"o":"m 145 623 l 145 0 l 101 0 l 101 623 l 145 623 m 123 776 q 83 813 83 776 q 123 851 83 851 q 163 813 163 851 q 123 776 163 776 "},"ŉ":{"x_min":81.953125,"x_max":644.5,"ha":728,"o":"m 127 0 l 83 0 l 83 625 l 127 625 l 127 498 q 369 640 198 640 q 565 559 486 640 q 644 363 644 479 l 644 0 l 600 0 l 600 363 q 532 530 600 459 q 369 601 465 601 q 200 530 273 601 q 127 363 127 459 l 127 0 m 125 734 l 125 812 q 81 855 81 812 q 129 898 81 898 q 177 855 177 898 q 173 833 177 845 l 130 734 l 125 734 "},"ќ":{"x_min":104.171875,"x_max":525.046875,"ha":560,"o":"m 351 976 l 408 976 l 215 783 l 156 783 l 351 976 m 104 625 l 148 625 l 148 408 l 395 625 l 452 625 l 166 375 l 525 0 l 465 0 l 148 329 l 148 0 l 104 0 l 104 625 "},"≤":{"x_min":104.171875,"x_max":538.9375,"ha":643,"o":"m 104 669 l 538 922 l 538 869 l 162 648 l 538 426 l 538 370 l 104 627 l 104 669 m 538 218 l 106 218 l 106 261 l 538 261 l 538 218 "},"ё":{"x_min":55.5625,"x_max":638.9375,"ha":695,"o":"m 306 801 q 266 838 266 801 q 306 876 266 876 q 347 838 347 876 q 306 801 347 801 m 453 801 q 415 838 415 801 q 453 876 415 876 q 491 838 491 876 q 453 801 491 801 m 393 -16 l 377 -16 q 150 81 245 -16 q 55 313 55 180 q 152 542 55 445 q 393 638 250 638 q 638 525 536 638 l 202 94 q 376 22 293 22 q 525 60 459 22 q 634 162 591 98 l 634 91 q 393 -16 536 -16 m 381 600 q 185 514 270 600 q 100 318 100 429 q 173 123 100 206 l 577 525 q 381 600 491 600 "},"Ģ":{"x_min":62.5,"x_max":886.1875,"ha":963,"o":"m 495 397 l 495 437 l 886 437 l 886 61 q 611 -15 763 -15 l 595 -15 q 329 59 452 -15 q 134 259 205 134 q 62 523 62 383 q 222 903 62 744 q 604 1062 381 1062 q 886 984 752 1062 l 886 933 q 604 1022 755 1022 q 254 875 400 1022 q 108 524 108 729 q 254 172 108 319 q 604 25 400 25 q 840 83 718 25 l 840 397 l 495 397 m 595 -270 l 595 -193 q 552 -150 552 -193 q 600 -106 552 -106 q 648 -150 648 -106 q 644 -172 648 -159 l 601 -270 l 595 -270 "},"m":{"x_min":83.34375,"x_max":952.859375,"ha":1036,"o":"m 516 493 q 596 600 537 559 q 740 640 655 640 q 888 579 825 640 q 952 413 952 518 l 952 0 l 908 0 l 908 413 q 855 547 908 494 q 728 601 802 601 q 596 545 654 601 q 538 416 538 490 l 538 0 l 494 0 l 494 416 q 441 546 494 491 q 313 601 388 601 q 183 545 238 601 q 127 416 127 490 l 127 0 l 83 0 l 83 625 l 127 625 l 127 537 q 210 609 155 579 q 324 640 265 640 q 437 599 383 640 q 516 493 491 558 "},"ĕ":{"x_min":55.5625,"x_max":638.9375,"ha":688,"o":"m 395 -16 l 383 -16 q 153 82 251 -16 q 55 313 55 181 q 152 542 55 445 q 393 638 250 638 q 638 525 536 638 l 202 94 q 376 22 293 22 q 525 60 459 22 q 634 162 591 98 l 634 91 q 395 -16 536 -16 m 381 600 q 185 514 270 600 q 100 318 100 429 q 173 123 100 206 l 577 525 q 381 600 491 600 m 209 894 q 252 806 212 844 q 342 768 293 768 q 431 806 391 768 q 476 894 470 844 l 516 894 q 464 781 513 829 q 348 733 415 733 l 337 733 q 222 780 270 733 q 170 894 173 827 l 209 894 "},"ﬃ":{"x_min":83.34375,"x_max":808.390625,"ha":892,"o":"m 790 623 l 790 0 l 745 0 l 745 238 l 450 238 l 450 0 l 405 0 l 405 238 l 127 238 l 127 0 l 83 0 l 83 643 q 152 811 83 745 q 320 877 222 877 l 320 838 q 184 783 240 838 q 127 643 127 727 l 127 277 l 405 277 l 405 643 q 475 811 405 745 q 643 877 544 877 l 643 838 q 506 783 562 838 q 450 643 450 727 l 450 277 l 745 277 l 745 623 l 790 623 m 768 823 q 727 861 727 823 q 768 898 727 898 q 808 861 808 898 q 768 823 808 823 "},"ż":{"x_min":34.71875,"x_max":469.484375,"ha":504,"o":"m 465 38 l 465 0 l 34 0 l 390 586 l 72 586 l 72 625 l 469 625 l 112 38 l 465 38 m 251 776 q 211 813 211 776 q 251 851 211 851 q 291 813 291 851 q 251 776 291 776 "},"Е":{"x_min":104.171875,"x_max":477.8125,"ha":513,"o":"m 477 1001 l 150 1001 l 150 434 l 423 434 l 423 394 l 150 394 l 150 40 l 477 40 l 477 0 l 104 0 l 104 1041 l 477 1041 l 477 1001 "},"Э":{"x_min":48.609375,"x_max":872.296875,"ha":942,"o":"m 330 1059 q 712 900 552 1059 q 872 524 872 741 q 714 144 872 306 q 341 -18 556 -18 l 320 -18 q 48 59 175 -18 l 48 111 q 337 22 179 22 q 631 130 495 22 q 811 397 766 238 l 300 397 l 300 437 l 819 437 q 826 520 826 481 q 680 872 826 726 q 330 1019 534 1019 q 48 930 179 1019 l 48 980 q 330 1059 180 1059 "},"ő":{"x_min":48.609375,"x_max":709.78125,"ha":758,"o":"m 373 -15 q 144 84 240 -15 q 48 315 48 183 q 145 543 48 447 q 379 640 243 640 q 613 543 516 640 q 709 314 709 447 q 615 83 709 181 q 386 -15 520 -15 l 373 -15 m 665 311 q 581 515 665 429 q 380 601 497 601 q 178 514 263 601 q 93 311 93 427 q 178 109 93 194 q 381 23 263 23 q 581 109 498 23 q 665 311 665 194 m 362 894 l 419 894 l 226 734 l 168 734 l 362 894 m 531 894 l 588 894 l 395 734 l 337 734 l 531 894 "},"ž":{"x_min":48.609375,"x_max":483.375,"ha":532,"o":"m 479 38 l 479 0 l 48 0 l 404 586 l 86 586 l 86 625 l 483 625 l 126 38 l 479 38 m 470 894 l 287 734 l 245 734 l 59 894 l 118 894 l 265 768 l 413 894 l 470 894 "},"ю":{"x_min":104.171875,"x_max":966.75,"ha":1022,"o":"m 104 0 l 104 625 l 148 625 l 148 273 l 308 273 q 305 312 305 281 q 402 543 305 447 q 635 640 498 640 q 869 543 772 640 q 966 315 966 447 q 870 84 966 183 q 641 -15 775 -15 l 630 -15 q 434 58 522 -15 q 313 234 345 131 l 148 234 l 148 0 l 104 0 m 837 515 q 636 601 752 601 q 434 515 519 601 q 350 311 350 429 q 434 109 350 194 q 636 23 519 23 q 837 109 752 23 q 922 311 922 194 q 837 515 922 429 "},"á":{"x_min":62.5,"x_max":720.890625,"ha":818,"o":"m 720 625 l 720 0 l 676 0 l 676 155 q 559 30 637 76 q 393 -15 481 -15 q 159 81 256 -15 q 62 312 62 177 q 159 543 62 447 q 393 640 256 640 q 563 593 481 640 q 676 468 644 545 l 676 625 l 720 625 m 106 311 q 192 109 106 194 q 395 23 277 23 q 595 109 512 23 q 679 311 679 194 q 595 515 679 429 q 394 601 511 601 q 192 514 277 601 q 106 311 106 427 m 477 894 l 534 894 l 341 734 l 283 734 l 477 894 "},"Ŏ":{"x_min":62.5,"x_max":1145.921875,"ha":1208,"o":"m 593 -18 q 220 144 377 -18 q 62 524 62 306 q 222 900 62 741 q 605 1059 381 1059 q 987 901 829 1059 q 1145 524 1145 743 q 988 143 1145 305 q 613 -18 832 -18 l 593 -18 m 1100 521 q 954 872 1100 726 q 604 1019 809 1019 q 254 872 400 1019 q 108 521 108 726 q 254 169 108 316 q 604 22 400 22 q 954 169 808 22 q 1100 521 1100 316 m 469 1311 q 512 1223 472 1261 q 602 1184 552 1184 q 691 1223 651 1184 q 736 1311 730 1261 l 776 1311 q 724 1198 773 1245 q 608 1150 675 1150 l 597 1150 q 481 1197 530 1150 q 430 1311 433 1244 l 469 1311 "},"×":{"x_min":104.171875,"x_max":441.703125,"ha":546,"o":"m 241 562 l 104 700 l 134 730 l 272 593 l 408 729 l 441 697 l 304 559 l 440 425 l 409 394 l 273 529 l 143 398 l 109 430 l 241 562 "},"İ":{"x_min":93.0625,"x_max":173.625,"ha":268,"o":"m 111 1041 l 156 1041 l 156 0 l 111 0 l 111 1041 m 133 1193 q 93 1230 93 1193 q 133 1268 93 1268 q 173 1230 173 1268 q 133 1193 173 1193 "},"Ě":{"x_min":87.5,"x_max":498.65625,"ha":513,"o":"m 104 1041 l 477 1041 l 477 1001 l 150 1001 l 150 434 l 423 434 l 423 394 l 150 394 l 150 40 l 477 40 l 477 0 l 104 0 l 104 1041 m 498 1311 l 315 1151 l 273 1151 l 87 1311 l 145 1311 l 293 1184 l 441 1311 l 498 1311 "},"п":{"x_min":104.171875,"x_max":607,"ha":711,"o":"m 104 625 l 607 625 l 607 0 l 562 0 l 562 586 l 148 586 l 148 0 l 104 0 l 104 625 "},"K":{"x_min":104.171875,"x_max":766.734375,"ha":795,"o":"m 104 1041 l 148 1041 l 148 659 l 588 1041 l 644 1041 l 168 626 l 766 0 l 705 0 l 150 579 l 150 0 l 104 0 l 104 1041 "},"7":{"x_min":27.78125,"x_max":715.328125,"ha":743,"o":"m 27 1038 l 715 1038 l 179 0 l 127 0 l 643 998 l 27 998 l 27 1038 "},"¨":{"x_min":20.828125,"x_max":245.859375,"ha":267,"o":"m 61 775 q 20 812 20 775 q 61 850 20 850 q 101 812 101 850 q 61 775 101 775 m 207 775 q 169 812 169 775 q 207 850 169 850 q 245 812 245 850 q 207 775 245 775 "},"Y":{"x_min":27.78125,"x_max":700.0625,"ha":728,"o":"m 390 0 l 344 0 l 344 416 l 27 1041 l 77 1041 l 370 465 l 658 1041 l 700 1041 l 390 416 l 390 0 "},"E":{"x_min":104.171875,"x_max":477.8125,"ha":513,"o":"m 104 1041 l 477 1041 l 477 1001 l 150 1001 l 150 434 l 423 434 l 423 394 l 150 394 l 150 40 l 477 40 l 477 0 l 104 0 l 104 1041 "},"Ô":{"x_min":76.390625,"x_max":1159.8125,"ha":1236,"o":"m 607 -18 q 234 144 391 -18 q 76 524 76 306 q 236 900 76 741 q 619 1059 395 1059 q 1001 901 843 1059 q 1159 524 1159 743 q 1002 143 1159 305 q 627 -18 845 -18 l 607 -18 m 1113 521 q 968 872 1113 726 q 618 1019 823 1019 q 268 872 413 1019 q 122 521 122 726 q 268 169 122 316 q 618 22 413 22 q 968 169 822 22 q 1113 521 1113 316 m 640 1311 l 823 1151 l 766 1151 l 618 1277 l 470 1151 l 412 1151 l 598 1311 l 640 1311 "},"‹":{"x_min":104.171875,"x_max":406.984375,"ha":435,"o":"m 104 333 l 406 601 l 406 541 l 151 315 l 406 87 l 406 25 l 104 297 l 104 333 "},"Є":{"x_min":69.453125,"x_max":893.125,"ha":942,"o":"m 611 1059 q 893 980 761 1059 l 893 930 q 611 1019 762 1019 q 261 872 406 1019 q 115 520 115 726 q 122 437 115 481 l 641 437 l 641 397 l 130 397 q 310 130 175 238 q 604 22 445 22 q 893 111 762 22 l 893 59 q 620 -18 766 -18 l 600 -18 q 227 144 384 -18 q 69 524 69 306 q 229 900 69 741 q 611 1059 388 1059 "},"Ï":{"x_min":34.71875,"x_max":259.75,"ha":296,"o":"m 125 1041 l 170 1041 l 170 0 l 125 0 l 125 1041 m 75 1191 q 34 1229 34 1191 q 75 1266 34 1266 q 115 1229 115 1266 q 75 1191 115 1191 m 221 1191 q 183 1229 183 1191 q 221 1266 183 1266 q 259 1229 259 1266 q 221 1191 259 1191 "},"ġ":{"x_min":48.609375,"x_max":708.390625,"ha":792,"o":"m 663 625 l 708 625 l 708 58 q 619 -195 708 -102 q 386 -288 530 -288 q 231 -252 306 -288 q 115 -158 156 -216 l 115 -94 q 228 -205 151 -161 q 386 -250 305 -250 q 586 -167 508 -250 q 663 58 663 -84 l 663 151 q 545 29 626 75 q 379 -16 465 -16 q 145 79 243 -16 q 48 311 48 176 q 145 542 48 445 q 379 638 243 638 q 547 593 469 638 q 663 469 626 548 l 663 625 m 93 311 q 178 107 93 193 q 381 22 263 22 q 581 107 498 22 q 665 311 665 193 q 581 514 665 429 q 381 600 498 600 q 178 514 263 600 q 93 311 93 429 m 395 776 q 355 813 355 776 q 395 851 355 851 q 436 813 436 851 q 395 776 436 776 "},"ķ":{"x_min":83.34375,"x_max":504.203125,"ha":539,"o":"m 83 1038 l 127 1038 l 127 408 l 375 625 l 431 625 l 145 375 l 504 0 l 444 0 l 127 329 l 127 0 l 83 0 l 83 1038 m 263 -270 l 263 -193 q 220 -150 220 -193 q 268 -106 220 -106 q 316 -150 316 -106 q 312 -172 316 -159 l 269 -270 l 263 -270 "},"±":{"x_min":97.234375,"x_max":529.203125,"ha":626,"o":"m 291 537 l 97 537 l 97 580 l 291 580 l 291 773 l 337 773 l 337 580 l 529 580 l 529 537 l 337 537 l 337 351 l 291 351 l 291 537 m 529 233 l 97 233 l 97 276 l 529 276 l 529 233 "},"ì":{"x_min":12.5,"x_max":263.90625,"ha":275,"o":"m 159 623 l 159 0 l 115 0 l 115 623 l 159 623 m 12 894 l 69 894 l 263 734 l 205 734 l 12 894 "},"|":{"x_min":104.171875,"x_max":150.015625,"ha":254,"o":"m 104 0 l 104 1038 l 150 1038 l 150 0 l 104 0 "},"§":{"x_min":69.453125,"x_max":522.265625,"ha":592,"o":"m 69 520 q 127 664 69 604 q 269 730 186 725 q 177 802 208 768 q 145 897 145 837 q 195 1002 145 957 q 311 1048 244 1048 q 436 1000 379 1048 l 436 926 q 321 1009 381 1009 q 225 976 261 1009 q 190 891 190 943 q 205 841 190 858 q 228 814 220 823 q 253 793 236 805 q 277 777 270 782 q 302 761 283 772 q 323 750 322 751 l 362 729 q 486 636 459 673 q 522 511 522 584 q 463 377 522 438 q 320 308 405 316 q 413 236 381 270 q 445 140 445 201 q 395 34 445 79 q 270 -11 344 -11 q 145 40 197 -11 l 145 116 q 270 29 198 29 q 362 61 325 29 q 400 147 400 94 q 265 293 400 223 l 229 312 q 83 443 113 372 q 69 520 69 477 m 419 643 q 293 693 365 693 q 169 642 220 693 q 118 519 118 591 q 172 397 118 447 q 298 348 226 348 q 422 399 370 348 q 473 521 473 450 q 419 643 473 593 "},"џ":{"x_min":104.171875,"x_max":604.21875,"ha":708,"o":"m 559 625 l 604 625 l 604 0 l 375 0 l 375 -134 l 334 -134 l 334 0 l 104 0 l 104 625 l 148 625 l 148 38 l 559 38 l 559 625 "},"љ":{"x_min":41.671875,"x_max":816.734375,"ha":872,"o":"m 41 0 l 41 38 q 180 94 123 38 q 237 234 237 150 l 237 625 l 580 625 l 580 409 l 615 409 q 757 348 698 409 q 816 204 816 287 q 756 60 816 120 q 611 0 695 0 l 536 0 l 536 586 l 277 586 l 277 234 q 209 65 277 131 q 41 0 140 0 m 580 372 l 580 37 l 613 37 q 727 86 679 37 q 776 203 776 136 q 727 321 776 270 q 613 372 677 372 l 580 372 "},"й":{"x_min":104.171875,"x_max":636.15625,"ha":740,"o":"m 636 623 l 636 0 l 593 0 l 593 554 l 143 0 l 104 0 l 104 623 l 147 623 l 147 69 l 595 623 l 636 623 m 251 965 q 294 877 255 913 q 384 840 333 840 q 473 877 434 840 q 518 965 512 915 l 558 965 q 506 852 555 900 q 390 804 456 804 l 379 804 q 263 851 312 804 q 212 965 215 898 l 251 965 "},"q":{"x_min":48.609375,"x_max":707,"ha":790,"o":"m 707 625 l 707 -277 l 662 -277 l 662 155 q 545 30 623 76 q 379 -15 468 -15 q 145 81 243 -15 q 48 312 48 177 q 145 543 48 447 q 379 640 243 640 q 549 593 468 640 q 662 468 630 545 l 662 625 l 707 625 m 93 311 q 178 109 93 194 q 381 23 263 23 q 581 109 498 23 q 665 311 665 194 q 581 515 665 429 q 380 601 497 601 q 178 514 263 601 q 93 311 93 427 "},"b":{"x_min":83.34375,"x_max":741.71875,"ha":790,"o":"m 83 0 l 83 1041 l 127 1041 l 127 472 q 245 594 165 548 q 411 640 325 640 q 645 543 548 640 q 741 312 741 447 q 645 81 741 177 q 411 -15 548 -15 q 248 29 327 -15 q 127 151 169 75 l 127 0 l 83 0 m 125 311 q 210 109 125 194 q 413 23 295 23 q 613 109 530 23 q 697 311 697 194 q 613 515 697 429 q 412 601 529 601 q 210 514 295 601 q 125 311 125 427 "},"ﬂ":{"x_min":83.34375,"x_max":643.109375,"ha":671,"o":"m 643 26 l 643 -12 q 475 53 544 -12 q 405 222 405 119 l 405 238 l 127 238 l 127 0 l 83 0 l 83 643 q 152 811 83 745 q 320 877 222 877 l 320 838 q 184 783 240 838 q 127 643 127 727 l 127 277 l 405 277 l 405 879 l 450 879 l 450 222 q 506 81 450 137 q 643 26 562 26 "},"Ж":{"x_min":34.71875,"x_max":1240.375,"ha":1275,"o":"m 615 1041 l 659 1041 l 659 665 l 1005 1041 l 1057 1041 l 676 627 l 1240 0 l 1183 0 l 659 579 l 659 0 l 615 0 l 615 579 l 93 0 l 34 0 l 600 627 l 219 1041 l 269 1041 l 615 665 l 615 1041 "},"®":{"x_min":76.390625,"x_max":1159.8125,"ha":1236,"o":"m 627 -18 l 607 -18 q 234 144 391 -18 q 76 524 76 306 q 236 900 76 741 q 619 1059 395 1059 q 1001 901 843 1059 q 1159 524 1159 743 q 1002 143 1159 305 q 627 -18 845 -18 m 1113 521 q 968 872 1113 726 q 618 1019 823 1019 q 268 872 413 1019 q 122 521 122 726 q 268 169 122 316 q 618 22 413 22 q 968 169 822 22 q 1113 521 1113 316 m 511 429 l 511 213 l 468 213 l 468 838 l 605 838 q 750 778 690 838 q 811 639 811 718 q 768 505 811 561 q 657 433 725 450 l 818 213 l 761 213 l 608 429 l 511 429 m 511 801 l 511 466 l 608 466 q 721 517 672 466 q 770 634 770 568 q 721 750 770 700 q 608 801 672 801 l 511 801 "},"Н":{"x_min":104.171875,"x_max":909.796875,"ha":1014,"o":"m 863 1041 l 909 1041 l 909 0 l 863 0 l 863 397 l 150 397 l 150 0 l 104 0 l 104 1041 l 150 1041 l 150 437 l 863 437 l 863 1041 "},"ф":{"x_min":55.5625,"x_max":779.234375,"ha":835,"o":"m 401 873 l 445 873 l 445 640 l 452 640 q 684 545 588 640 q 779 317 779 450 q 685 88 779 184 q 455 -8 591 -8 l 445 -8 l 445 -275 l 401 -275 l 401 -8 l 390 -8 q 154 88 252 -8 q 55 317 55 186 q 154 544 55 448 q 390 640 254 640 l 401 640 l 401 873 m 401 601 l 390 601 q 185 516 273 601 q 97 315 97 430 q 185 115 97 200 q 390 30 273 30 l 401 30 l 401 601 m 445 601 l 445 30 l 454 30 q 653 114 570 30 q 736 315 736 198 q 652 516 736 431 q 452 601 569 601 l 445 601 "},"л":{"x_min":34.71875,"x_max":650.046875,"ha":685,"o":"m 75 0 l 34 0 l 341 643 l 650 0 l 601 0 l 337 548 l 75 0 "},"Ũ":{"x_min":104.171875,"x_max":725.0625,"ha":829,"o":"m 422 -19 l 408 -19 q 192 69 280 -19 q 104 293 104 158 l 104 1041 l 150 1041 l 150 294 q 226 98 150 176 q 415 20 302 20 q 603 97 527 20 q 679 294 679 175 l 679 1041 l 725 1041 l 725 295 q 636 70 725 159 q 422 -19 548 -19 m 526 1176 q 417 1214 486 1176 q 306 1252 348 1252 q 220 1177 265 1251 l 177 1177 q 309 1288 231 1288 l 322 1288 q 426 1252 363 1288 q 527 1215 488 1215 q 608 1283 565 1215 l 651 1283 q 526 1176 586 1176 "},"Щ":{"x_min":104.171875,"x_max":995.90625,"ha":1031,"o":"m 955 0 l 104 0 l 104 1041 l 150 1041 l 150 40 l 473 40 l 473 1041 l 518 1041 l 518 40 l 841 40 l 841 1041 l 888 1041 l 888 40 l 995 40 l 995 -134 l 955 -134 l 955 0 "},"L":{"x_min":104.171875,"x_max":472.265625,"ha":500,"o":"m 150 1041 l 150 40 l 472 40 l 472 0 l 104 0 l 104 1041 l 150 1041 "},"ď":{"x_min":48.609375,"x_max":872.296875,"ha":896,"o":"m 707 1041 l 707 0 l 662 0 l 662 151 q 541 29 620 75 q 379 -15 462 -15 q 145 81 241 -15 q 48 312 48 177 q 145 543 48 447 q 379 640 241 640 q 545 594 465 640 q 662 472 625 548 l 662 1041 l 707 1041 m 93 311 q 176 109 93 194 q 377 23 259 23 q 579 109 494 23 q 665 311 665 194 q 579 514 665 427 q 377 601 494 601 q 177 515 261 601 q 93 311 93 429 m 819 879 l 819 957 q 776 1000 776 957 q 824 1043 776 1043 q 872 1000 872 1043 q 868 977 872 990 l 825 879 l 819 879 "}," ":{"x_min":0,"x_max":0,"ha":486},"Ĭ":{"x_min":-38.890625,"x_max":306.96875,"ha":268,"o":"m 111 1041 l 156 1041 l 156 0 l 111 0 l 111 1041 m 0 1311 q 43 1223 2 1261 q 132 1184 83 1184 q 221 1223 181 1184 q 266 1311 261 1261 l 306 1311 q 254 1198 304 1245 q 138 1150 205 1150 l 127 1150 q 12 1197 61 1150 q -38 1311 -36 1244 l 0 1311 "},"ŧ":{"x_min":13.890625,"x_max":322.25,"ha":347,"o":"m 322 30 l 322 -8 q 154 57 223 -8 q 84 226 84 123 l 84 727 l 13 727 l 13 763 l 84 763 l 84 876 l 129 876 l 129 763 l 304 763 l 304 727 l 129 727 l 129 623 l 320 623 l 320 584 l 129 584 l 129 226 q 185 86 129 141 q 322 30 241 30 "},"À":{"x_min":41.671875,"x_max":1082.03125,"ha":1124,"o":"m 561 1066 l 1082 0 l 1033 0 l 836 397 l 279 397 l 84 0 l 41 0 l 561 1066 m 556 970 l 297 437 l 819 437 l 556 970 m 436 1311 l 493 1311 l 687 1151 l 629 1151 l 436 1311 "},"ẃ":{"x_min":34.71875,"x_max":915.34375,"ha":950,"o":"m 34 625 l 80 625 l 337 79 l 458 333 l 323 622 l 368 622 l 480 376 l 595 625 l 637 625 l 501 333 l 620 76 l 875 623 l 915 623 l 619 -15 l 477 288 l 334 -15 l 34 625 m 543 894 l 600 894 l 406 734 l 348 734 l 543 894 "},"+":{"x_min":20.828125,"x_max":452.8125,"ha":474,"o":"m 215 537 l 20 537 l 20 580 l 215 580 l 215 773 l 261 773 l 261 580 l 452 580 l 452 537 l 261 537 l 261 351 l 215 351 l 215 537 "},"Ë":{"x_min":118.0625,"x_max":491.703125,"ha":540,"o":"m 118 1041 l 491 1041 l 491 1001 l 163 1001 l 163 434 l 437 434 l 437 394 l 163 394 l 163 40 l 491 40 l 491 0 l 118 0 l 118 1041 m 230 1191 q 190 1229 190 1191 q 230 1266 190 1266 q 270 1229 270 1266 q 230 1191 270 1191 m 377 1191 q 338 1229 338 1191 q 377 1266 338 1266 q 415 1229 415 1266 q 377 1191 415 1191 "},"'":{"x_min":104.171875,"x_max":150.015625,"ha":254,"o":"m 104 877 l 104 1125 l 150 1125 l 150 877 l 104 877 "},"Š":{"x_min":69.453125,"x_max":650.046875,"ha":720,"o":"m 537 894 q 450 986 505 952 q 327 1019 395 1019 q 211 977 259 1019 q 163 861 163 934 l 163 854 q 261 694 163 766 q 354 634 302 663 q 459 570 406 604 q 553 497 511 536 q 622 404 595 459 q 650 281 650 348 l 650 268 q 560 58 650 136 q 338 -19 470 -19 q 69 123 165 -19 l 69 198 q 175 70 105 119 q 350 20 245 20 q 530 87 454 20 q 607 265 607 154 l 607 273 q 570 400 607 343 q 480 495 534 458 q 362 572 426 531 q 244 647 298 612 q 154 734 190 682 q 118 850 118 787 l 118 859 q 180 1008 118 957 q 334 1059 243 1059 q 537 965 462 1059 l 537 894 m 565 1311 l 381 1151 l 340 1151 l 154 1311 l 212 1311 l 359 1184 l 508 1311 l 565 1311 "},"Р":{"x_min":104.171875,"x_max":497.265625,"ha":567,"o":"m 104 1041 l 150 1041 q 395 942 294 1041 q 497 708 497 843 q 392 476 497 573 q 161 379 287 379 l 150 379 l 150 0 l 104 0 l 104 1041 m 150 418 l 161 418 q 364 504 277 418 q 451 708 451 590 q 363 913 451 826 q 161 1001 275 1001 l 150 1001 l 150 418 "},"˛":{"x_min":20.828125,"x_max":180.5625,"ha":201,"o":"m 127 -243 l 180 -243 l 180 -277 l 125 -277 q 50 -250 79 -277 q 20 -180 20 -222 l 20 -170 l 140 0 l 179 0 l 58 -173 q 77 -222 58 -202 q 127 -243 95 -243 "},"щ":{"x_min":104.171875,"x_max":851.453125,"ha":886,"o":"m 104 0 l 104 625 l 148 625 l 148 38 l 405 38 l 405 625 l 450 625 l 450 38 l 707 38 l 707 625 l 751 625 l 751 40 l 851 40 l 851 -134 l 808 -134 l 808 0 l 104 0 "},"ð":{"x_min":76.390625,"x_max":737.5625,"ha":793,"o":"m 737 422 l 737 316 q 642 83 737 184 q 418 -18 547 -18 l 397 -18 q 170 80 263 -18 q 76 311 76 179 q 172 541 76 444 q 406 637 269 637 q 575 590 495 637 q 694 459 654 543 l 694 472 q 405 805 694 690 l 148 700 l 148 740 l 352 826 l 148 911 l 148 951 l 402 847 l 638 947 l 638 904 l 454 826 q 566 770 522 797 q 652 697 609 743 q 737 422 737 607 m 120 309 q 204 106 120 191 q 404 20 287 20 q 607 106 522 20 q 693 308 693 191 q 607 511 693 425 q 405 598 522 598 q 204 512 288 598 q 120 309 120 426 "},"ş":{"x_min":44.453125,"x_max":429.203125,"ha":478,"o":"m 180 -104 l 180 -12 q 44 73 80 4 l 44 140 q 213 23 97 23 q 335 68 286 23 q 384 167 384 112 q 353 259 384 222 q 277 323 322 297 q 189 375 233 350 q 114 438 145 401 q 83 524 83 475 q 122 607 83 573 q 225 641 162 641 q 331 593 287 641 l 331 536 q 219 602 287 602 q 155 579 183 602 q 127 520 127 555 q 159 456 127 486 q 234 403 190 427 q 322 351 277 379 q 397 280 366 323 q 429 181 429 237 q 367 42 429 100 q 218 -15 305 -15 l 215 -15 l 215 -68 l 229 -68 q 304 -98 273 -68 q 336 -170 336 -129 l 336 -176 q 305 -247 336 -218 q 229 -277 275 -277 l 180 -277 l 180 -243 l 229 -243 q 281 -222 261 -243 q 302 -173 302 -202 q 281 -124 302 -144 q 229 -104 261 -104 l 180 -104 "},"ı":{"x_min":101.390625,"x_max":145.84375,"ha":247,"o":"m 145 623 l 145 0 l 101 0 l 101 623 l 145 623 "},"Ć":{"x_min":62.5,"x_max":886.1875,"ha":970,"o":"m 611 -15 l 595 -15 q 329 59 452 -15 q 134 259 205 134 q 62 523 62 383 q 222 903 62 744 q 604 1062 381 1062 q 886 984 752 1062 l 886 933 q 604 1022 755 1022 q 254 875 400 1022 q 108 524 108 729 q 254 172 108 319 q 604 25 400 25 q 886 113 755 25 l 886 62 q 611 -15 759 -15 m 670 1311 l 727 1311 l 534 1151 l 476 1151 l 670 1311 "},"Т":{"x_min":34.71875,"x_max":558.375,"ha":593,"o":"m 558 1041 l 558 1001 l 320 1001 l 320 0 l 275 0 l 275 1001 l 34 1001 l 34 1041 l 558 1041 "},"ä":{"x_min":62.5,"x_max":720.890625,"ha":818,"o":"m 720 625 l 720 0 l 676 0 l 676 155 q 559 30 637 76 q 393 -15 481 -15 q 159 81 256 -15 q 62 312 62 177 q 159 543 62 447 q 393 640 256 640 q 563 593 481 640 q 676 468 644 545 l 676 625 l 720 625 m 106 311 q 192 109 106 194 q 395 23 277 23 q 595 109 512 23 q 679 311 679 194 q 595 515 679 429 q 394 601 511 601 q 192 514 277 601 q 106 311 106 427 m 336 775 q 295 812 295 775 q 336 850 295 850 q 376 812 376 850 q 336 775 376 775 m 482 775 q 444 812 444 775 q 482 850 444 850 q 520 812 520 850 q 482 775 520 775 "},"£":{"x_min":27.78125,"x_max":707,"ha":735,"o":"m 245 433 l 526 433 l 526 394 l 247 394 l 247 140 q 403 90 312 140 q 547 40 494 40 q 657 130 600 40 l 707 130 q 544 -2 625 -2 q 395 47 488 -2 q 247 98 301 98 l 201 98 q 77 0 133 93 l 27 0 q 201 140 97 129 l 201 394 l 73 394 l 73 433 l 201 433 l 201 761 q 270 970 201 887 q 452 1052 340 1052 l 465 1052 q 638 983 559 1052 l 638 934 q 556 995 605 972 q 458 1018 508 1018 q 302 945 358 1018 q 245 761 245 873 l 245 433 "},"ů":{"x_min":69.453125,"x_max":630.609375,"ha":700,"o":"m 586 625 l 630 625 l 630 0 l 586 0 l 586 126 q 344 -15 515 -15 q 148 65 227 -15 q 69 261 69 145 l 69 625 l 113 625 l 113 261 q 181 94 113 165 q 344 23 248 23 q 513 94 440 23 q 586 261 586 165 l 586 625 m 351 711 l 345 711 q 274 742 304 711 q 244 816 244 773 q 275 888 244 858 q 349 919 305 919 q 423 888 393 919 q 454 816 454 858 q 423 742 454 773 q 351 711 393 711 m 418 815 q 397 865 418 844 q 349 886 377 886 q 300 864 320 886 q 279 815 279 843 q 300 766 279 787 q 349 744 320 744 q 397 765 377 744 q 418 815 418 786 "},"Ō":{"x_min":62.5,"x_max":1145.921875,"ha":1208,"o":"m 593 -18 q 220 144 377 -18 q 62 524 62 306 q 222 900 62 741 q 605 1059 381 1059 q 987 901 829 1059 q 1145 524 1145 743 q 988 143 1145 305 q 613 -18 832 -18 l 593 -18 m 1100 521 q 954 872 1100 726 q 604 1019 809 1019 q 254 872 400 1019 q 108 521 108 726 q 254 169 108 316 q 604 22 400 22 q 954 169 808 22 q 1100 521 1100 316 m 740 1202 l 466 1202 l 466 1241 l 740 1241 l 740 1202 "},"W":{"x_min":27.78125,"x_max":1389,"ha":1421,"o":"m 484 -18 l 27 1041 l 79 1041 l 491 87 l 684 538 l 469 1041 l 519 1041 l 712 584 l 911 1041 l 950 1041 l 733 540 l 930 83 l 1351 1041 l 1389 1041 l 926 -18 l 705 490 l 484 -18 "},"а":{"x_min":55.5625,"x_max":713.953125,"ha":818,"o":"m 713 625 l 713 0 l 669 0 l 669 155 q 552 30 630 76 q 386 -15 475 -15 q 152 81 250 -15 q 55 312 55 177 q 152 543 55 447 q 386 640 250 640 q 556 593 475 640 q 669 468 637 545 l 669 625 l 713 625 m 100 311 q 185 109 100 194 q 388 23 270 23 q 588 109 505 23 q 672 311 672 194 q 588 515 672 429 q 387 601 504 601 q 185 514 270 601 q 100 311 100 427 "},"Ğ":{"x_min":62.5,"x_max":886.1875,"ha":963,"o":"m 495 397 l 495 437 l 886 437 l 886 61 q 611 -15 763 -15 l 595 -15 q 329 59 452 -15 q 134 259 205 134 q 62 523 62 383 q 222 903 62 744 q 604 1062 381 1062 q 886 984 752 1062 l 886 933 q 604 1022 755 1022 q 254 875 400 1022 q 108 524 108 729 q 254 172 108 319 q 604 25 400 25 q 840 83 718 25 l 840 397 l 495 397 m 473 1311 q 516 1223 476 1261 q 606 1184 556 1184 q 695 1223 655 1184 q 740 1311 734 1261 l 780 1311 q 728 1198 777 1245 q 612 1150 679 1150 l 601 1150 q 486 1197 534 1150 q 434 1311 437 1244 l 473 1311 "},"v":{"x_min":34.71875,"x_max":650.046875,"ha":685,"o":"m 609 625 l 650 625 l 343 -18 l 34 625 l 83 625 l 347 76 l 609 625 "},">":{"x_min":104.171875,"x_max":538.9375,"ha":567,"o":"m 104 869 l 538 615 l 538 575 l 104 318 l 104 373 l 480 595 l 104 816 l 104 869 "},"Ї":{"x_min":20.828125,"x_max":241.6875,"ha":263,"o":"m 152 1041 l 152 0 l 106 0 l 106 1041 l 152 1041 m 56 1118 q 20 1154 20 1118 q 56 1190 20 1190 q 93 1154 93 1190 q 56 1118 93 1118 m 205 1118 q 169 1154 169 1118 q 205 1190 169 1190 q 241 1154 241 1190 q 205 1118 241 1118 "},"û":{"x_min":83.34375,"x_max":644.5,"ha":728,"o":"m 600 625 l 644 625 l 644 0 l 600 0 l 600 126 q 358 -15 529 -15 q 162 65 241 -15 q 83 261 83 145 l 83 625 l 127 625 l 127 261 q 195 94 127 165 q 358 23 262 23 q 527 94 454 23 q 600 261 600 165 l 600 625 m 386 894 l 569 734 l 512 734 l 363 861 l 216 734 l 158 734 l 344 894 l 386 894 "},"Ź":{"x_min":34.71875,"x_max":562.546875,"ha":593,"o":"m 558 40 l 558 0 l 34 0 l 493 1001 l 34 1001 l 34 1041 l 562 1041 l 102 40 l 558 40 m 365 1311 l 422 1311 l 229 1151 l 170 1151 l 365 1311 "},"Ų":{"x_min":104.171875,"x_max":725.0625,"ha":829,"o":"m 725 1041 l 725 295 q 647 81 725 169 q 454 -18 569 -6 l 345 -173 q 364 -222 345 -202 q 415 -243 383 -243 l 468 -243 l 468 -277 l 412 -277 q 337 -250 366 -277 q 308 -180 308 -222 l 308 -170 l 413 -19 l 408 -19 q 192 69 280 -19 q 104 293 104 158 l 104 1041 l 150 1041 l 150 294 q 226 98 150 176 q 415 20 302 20 q 603 97 527 20 q 679 294 679 175 l 679 1041 l 725 1041 "},"Ŵ":{"x_min":27.78125,"x_max":1389,"ha":1421,"o":"m 484 -18 l 27 1041 l 79 1041 l 491 87 l 684 538 l 469 1041 l 519 1041 l 712 584 l 911 1041 l 950 1041 l 733 540 l 930 83 l 1351 1041 l 1389 1041 l 926 -18 l 705 490 l 484 -18 m 732 1311 l 915 1151 l 858 1151 l 709 1277 l 562 1151 l 504 1151 l 690 1311 l 732 1311 "},"Ð":{"x_min":20.828125,"x_max":668.109375,"ha":731,"o":"m 104 1041 l 148 1041 q 525 888 381 1041 q 668 520 668 734 q 525 152 668 305 q 148 0 383 0 l 104 0 l 104 501 l 20 501 l 20 541 l 104 541 l 104 1041 m 159 1000 l 148 1000 l 148 541 l 320 541 l 320 501 l 148 501 l 148 43 l 159 43 q 492 183 362 43 q 622 520 622 323 q 492 858 622 716 q 159 1000 362 1000 "},"Х":{"x_min":34.71875,"x_max":650.046875,"ha":685,"o":"m 588 1041 l 365 583 l 650 0 l 598 0 l 338 534 l 77 0 l 34 0 l 316 581 l 87 1041 l 140 1041 l 343 629 l 544 1041 l 588 1041 "},"Ĺ":{"x_min":26.390625,"x_max":472.265625,"ha":500,"o":"m 150 1041 l 150 40 l 472 40 l 472 0 l 104 0 l 104 1041 l 150 1041 m 220 1311 l 277 1311 l 84 1151 l 26 1151 l 220 1311 "},"r":{"x_min":83.34375,"x_max":448.640625,"ha":483,"o":"m 448 540 q 313 601 387 601 q 184 545 240 601 q 127 416 127 490 l 127 0 l 83 0 l 83 625 l 127 625 l 127 531 q 205 609 152 579 q 323 640 258 640 q 448 595 388 640 l 448 540 "},"₤":{"x_min":27.78125,"x_max":707,"ha":735,"o":"m 538 233 l 247 233 l 247 140 q 403 90 312 140 q 547 40 494 40 q 657 130 600 40 l 707 130 q 544 -2 625 -2 q 395 47 488 -2 q 247 98 301 98 l 201 98 q 77 0 133 93 l 27 0 q 201 140 97 129 l 201 233 l 73 233 l 73 273 l 201 273 l 201 394 l 73 394 l 73 433 l 201 433 l 201 761 q 270 970 201 887 q 452 1052 340 1052 l 465 1052 q 638 983 559 1052 l 638 934 q 556 995 605 972 q 458 1018 508 1018 q 302 945 358 1018 q 245 761 245 873 l 245 433 l 538 433 l 538 394 l 247 394 l 247 273 l 538 273 l 538 233 "},"ж":{"x_min":34.71875,"x_max":820.90625,"ha":856,"o":"m 405 625 l 450 625 l 450 423 l 650 625 l 700 625 l 455 375 l 820 0 l 761 0 l 450 320 l 450 0 l 405 0 l 405 320 l 94 0 l 34 0 l 400 375 l 155 625 l 205 625 l 405 423 l 405 625 "},"Č":{"x_min":62.5,"x_max":886.1875,"ha":970,"o":"m 611 -15 l 595 -15 q 329 59 452 -15 q 134 259 205 134 q 62 523 62 383 q 222 903 62 744 q 604 1062 381 1062 q 886 984 752 1062 l 886 933 q 604 1022 755 1022 q 254 875 400 1022 q 108 524 108 729 q 254 172 108 319 q 604 25 400 25 q 886 113 755 25 l 886 62 q 611 -15 759 -15 m 807 1311 l 623 1151 l 581 1151 l 395 1311 l 454 1311 l 601 1184 l 750 1311 l 807 1311 "},"x":{"x_min":29.171875,"x_max":573.65625,"ha":601,"o":"m 322 379 l 573 0 l 522 0 l 297 340 l 73 0 l 29 0 l 275 375 l 109 625 l 161 625 l 300 413 l 438 625 l 483 625 l 322 379 "},"è":{"x_min":69.453125,"x_max":652.828125,"ha":715,"o":"m 409 -16 l 397 -16 q 167 82 265 -16 q 69 313 69 181 q 166 542 69 445 q 406 638 263 638 q 652 525 550 638 l 216 94 q 390 22 306 22 q 539 60 473 22 q 648 162 605 98 l 648 91 q 409 -16 550 -16 m 395 600 q 199 514 284 600 q 113 318 113 429 q 187 123 113 206 l 591 525 q 395 600 505 600 m 231 894 l 288 894 l 483 734 l 425 734 l 231 894 "},"Ø":{"x_min":69.453125,"x_max":1152.875,"ha":1222,"o":"m 1152 520 q 995 143 1152 305 q 620 -18 838 -18 l 600 -18 q 306 75 438 -18 l 251 0 l 200 0 l 275 100 q 124 287 179 177 q 69 520 69 397 q 229 900 69 741 q 611 1059 388 1059 q 918 963 779 1059 l 973 1038 l 1027 1038 l 951 937 q 1099 752 1045 861 q 1152 520 1152 644 m 611 1019 q 261 872 406 1019 q 115 520 115 726 q 164 304 115 405 q 300 133 213 204 l 893 930 q 611 1019 762 1019 m 1107 520 q 1059 734 1107 634 q 926 904 1011 833 l 331 109 q 611 22 461 22 q 961 169 815 22 q 1107 520 1107 316 "},"Ń":{"x_min":104.171875,"x_max":911.1875,"ha":1015,"o":"m 870 1041 l 911 1041 l 911 -15 l 144 927 l 144 0 l 104 0 l 104 1057 l 870 115 l 870 1041 m 576 1311 l 633 1311 l 440 1151 l 381 1151 l 576 1311 "},"Ỳ":{"x_min":27.78125,"x_max":700.0625,"ha":728,"o":"m 390 0 l 344 0 l 344 416 l 27 1041 l 77 1041 l 370 465 l 658 1041 l 700 1041 l 390 416 l 390 0 m 237 1311 l 294 1311 l 488 1151 l 430 1151 l 237 1311 "},"с":{"x_min":55.5625,"x_max":633.390625,"ha":675,"o":"m 393 -18 l 380 -18 q 151 80 247 -18 q 55 311 55 179 q 152 541 55 444 q 391 637 250 637 q 633 530 533 637 l 633 459 q 524 561 590 523 q 386 598 458 598 q 185 513 270 598 q 100 309 100 427 q 185 106 100 191 q 386 20 270 20 q 524 58 458 20 q 633 161 590 95 l 633 88 q 393 -18 536 -18 "},"÷":{"x_min":104.171875,"x_max":536.15625,"ha":640,"o":"m 536 537 l 104 537 l 104 580 l 536 580 l 536 537 m 324 354 q 276 397 276 354 q 324 440 276 440 q 372 397 372 440 q 324 354 372 354 m 324 687 q 276 730 276 687 q 324 773 276 773 q 372 730 372 773 q 324 687 372 687 "},"h":{"x_min":83.34375,"x_max":644.5,"ha":714,"o":"m 127 0 l 83 0 l 83 1040 l 127 1040 l 127 504 q 368 640 197 640 q 564 559 484 640 q 644 363 644 479 l 644 0 l 600 0 l 600 363 q 531 531 600 461 q 368 601 463 601 q 200 530 272 601 q 127 363 127 459 l 127 0 "},".":{"x_min":48.609375,"x_max":144.453125,"ha":193,"o":"m 96 -9 q 48 33 48 -9 q 96 76 48 76 q 144 33 144 76 q 96 -9 144 -9 "},"f":{"x_min":83.34375,"x_max":322.25,"ha":350,"o":"m 320 877 l 320 838 q 184 783 240 838 q 127 643 127 727 l 127 277 l 322 277 l 322 238 l 127 238 l 127 0 l 83 0 l 83 643 q 152 811 83 745 q 320 877 222 877 "},"“":{"x_min":138.90625,"x_max":443.09375,"ha":478,"o":"m 188 951 l 188 787 l 138 787 l 138 951 q 175 1063 138 1016 q 270 1127 211 1109 l 270 1079 q 188 951 188 1041 m 361 951 l 361 787 l 311 787 l 311 951 q 347 1063 311 1016 q 443 1127 383 1109 l 443 1079 q 361 951 361 1041 "},"A":{"x_min":41.671875,"x_max":1082.03125,"ha":1124,"o":"m 561 1066 l 1082 0 l 1033 0 l 836 397 l 279 397 l 84 0 l 41 0 l 561 1066 m 556 970 l 297 437 l 819 437 l 556 970 "},"‘":{"x_min":138.90625,"x_max":270.859375,"ha":306,"o":"m 188 951 l 188 787 l 138 787 l 138 951 q 175 1063 138 1016 q 270 1127 211 1109 l 270 1079 q 188 951 188 1041 "},"O":{"x_min":62.5,"x_max":1145.921875,"ha":1208,"o":"m 593 -18 q 220 144 377 -18 q 62 524 62 306 q 222 900 62 741 q 605 1059 381 1059 q 987 901 829 1059 q 1145 524 1145 743 q 988 143 1145 305 q 613 -18 832 -18 l 593 -18 m 1100 521 q 954 872 1100 726 q 604 1019 809 1019 q 254 872 400 1019 q 108 521 108 726 q 254 169 108 316 q 604 22 400 22 q 954 169 808 22 q 1100 521 1100 316 "},"Đ":{"x_min":20.828125,"x_max":668.109375,"ha":731,"o":"m 104 1041 l 148 1041 q 525 888 381 1041 q 668 520 668 734 q 525 152 668 305 q 148 0 383 0 l 104 0 l 104 501 l 20 501 l 20 541 l 104 541 l 104 1041 m 159 1000 l 148 1000 l 148 541 l 320 541 l 320 501 l 148 501 l 148 43 l 159 43 q 492 183 362 43 q 622 520 622 323 q 492 858 622 716 q 159 1000 362 1000 "},"3":{"x_min":41.671875,"x_max":755.609375,"ha":818,"o":"m 755 336 q 650 88 755 190 q 398 -13 545 -13 q 146 84 251 -13 q 41 320 41 183 l 41 350 l 84 350 l 84 327 q 175 113 84 201 q 395 25 266 25 q 617 113 525 25 q 709 329 709 201 q 663 498 709 416 q 541 612 616 580 l 515 623 l 540 643 q 596 716 576 670 q 616 808 616 761 q 553 955 616 893 q 402 1018 490 1018 q 247 953 313 1018 q 179 798 181 888 l 134 798 q 214 981 137 905 q 400 1057 291 1057 q 585 986 509 1057 q 661 813 661 915 q 587 630 661 711 q 709 506 663 584 q 755 336 755 427 "},"9":{"x_min":38.890625,"x_max":827.84375,"ha":876,"o":"m 423 270 q 154 388 269 270 q 38 667 38 505 q 155 943 38 829 q 435 1058 272 1058 q 713 943 598 1058 q 827 669 827 829 q 687 348 827 509 l 383 0 l 330 0 l 605 315 q 527 284 581 297 q 423 270 473 270 m 784 667 q 682 916 784 812 q 435 1019 579 1019 q 190 916 291 1019 q 88 666 88 812 q 190 415 88 520 q 434 309 293 309 q 680 416 576 309 q 784 667 784 522 "},"Ǿ":{"x_min":62.5,"x_max":1145.921875,"ha":1208,"o":"m 1145 520 q 988 143 1145 305 q 613 -18 832 -18 l 593 -18 q 298 76 431 -18 l 241 0 l 190 0 l 265 101 q 116 288 170 179 q 62 520 62 398 q 222 900 62 741 q 604 1059 381 1059 q 908 965 769 1059 l 963 1038 l 1018 1038 l 943 938 q 1091 753 1037 862 q 1145 520 1145 644 m 604 1019 q 254 872 400 1019 q 108 520 108 726 q 156 306 108 406 q 291 134 205 205 l 883 932 q 604 1019 755 1019 m 1100 520 q 918 905 1100 752 l 323 109 q 604 22 452 22 q 954 169 808 22 q 1100 520 1100 316 m 672 1311 l 729 1311 l 536 1151 l 477 1151 l 672 1311 "},"l":{"x_min":83.34375,"x_max":320.859375,"ha":349,"o":"m 320 26 l 320 -12 q 152 53 222 -12 q 83 222 83 119 l 83 1041 l 127 1041 l 127 222 q 184 81 127 137 q 320 26 240 26 "},"4":{"x_min":23.609375,"x_max":659.78125,"ha":681,"o":"m 493 0 l 493 126 l 23 126 l 538 1055 l 538 172 l 659 172 l 659 126 l 538 126 l 538 0 l 493 0 m 493 172 l 493 895 l 91 172 l 493 172 "},"Ẁ":{"x_min":27.78125,"x_max":1389,"ha":1421,"o":"m 484 -18 l 27 1041 l 79 1041 l 491 87 l 684 538 l 469 1041 l 519 1041 l 712 584 l 911 1041 l 950 1041 l 733 540 l 930 83 l 1351 1041 l 1389 1041 l 926 -18 l 705 490 l 484 -18 m 584 1311 l 641 1311 l 836 1151 l 777 1151 l 584 1311 "},"Ъ":{"x_min":34.71875,"x_max":580.609375,"ha":650,"o":"m 34 1001 l 34 1041 l 254 1041 l 254 634 l 266 634 q 480 540 380 634 q 580 318 580 445 q 482 95 580 190 q 254 0 384 0 l 208 0 l 208 1001 l 34 1001 m 265 594 l 254 594 l 254 40 l 265 40 q 452 123 369 40 q 534 318 534 206 q 452 511 534 429 q 265 594 370 594 "},"Ť":{"x_min":27.78125,"x_max":551.4375,"ha":579,"o":"m 551 1041 l 551 1001 l 313 1001 l 313 0 l 268 0 l 268 1001 l 27 1001 l 27 1041 l 551 1041 m 494 1311 l 311 1151 l 269 1151 l 83 1311 l 141 1311 l 288 1184 l 437 1311 l 494 1311 "},"Ś":{"x_min":55.5625,"x_max":636.15625,"ha":692,"o":"m 523 894 q 436 986 491 952 q 313 1019 381 1019 q 197 977 245 1019 q 150 861 150 934 l 150 854 q 247 694 150 766 q 341 634 288 663 q 445 570 393 604 q 539 497 497 536 q 609 404 581 459 q 636 281 636 348 l 636 268 q 546 58 636 136 q 325 -19 456 -19 q 55 123 151 -19 l 55 198 q 161 70 91 119 q 336 20 231 20 q 516 87 440 20 q 593 265 593 154 l 593 273 q 556 400 593 343 q 466 495 520 458 q 348 572 412 531 q 230 647 284 612 q 140 734 176 682 q 104 850 104 787 l 104 859 q 166 1008 104 957 q 320 1059 229 1059 q 523 965 448 1059 l 523 894 m 413 1311 l 470 1311 l 277 1151 l 219 1151 l 413 1311 "},"Ü":{"x_min":118.0625,"x_max":738.953125,"ha":857,"o":"m 436 -19 l 422 -19 q 206 69 294 -19 q 118 293 118 158 l 118 1041 l 163 1041 l 163 294 q 240 98 163 176 q 429 20 316 20 q 617 97 541 20 q 693 294 693 175 l 693 1041 l 738 1041 l 738 295 q 650 70 738 159 q 436 -19 562 -19 m 355 1191 q 315 1229 315 1191 q 355 1266 315 1266 q 395 1229 395 1266 q 355 1191 395 1191 m 502 1191 q 463 1229 463 1191 q 502 1266 463 1266 q 540 1229 540 1266 q 502 1191 540 1191 "},"à":{"x_min":62.5,"x_max":720.890625,"ha":818,"o":"m 720 625 l 720 0 l 676 0 l 676 155 q 559 30 637 76 q 393 -15 481 -15 q 159 81 256 -15 q 62 312 62 177 q 159 543 62 447 q 393 640 256 640 q 563 593 481 640 q 676 468 644 545 l 676 625 l 720 625 m 106 311 q 192 109 106 194 q 395 23 277 23 q 595 109 512 23 q 679 311 679 194 q 595 515 679 429 q 394 601 511 601 q 192 514 277 601 q 106 311 106 427 m 283 894 l 340 894 l 534 734 l 476 734 l 283 894 "},"ó":{"x_min":62.5,"x_max":723.671875,"ha":786,"o":"m 387 -15 q 158 84 254 -15 q 62 315 62 183 q 159 543 62 447 q 393 640 256 640 q 627 543 530 640 q 723 314 723 447 q 629 83 723 181 q 400 -15 534 -15 l 387 -15 m 679 311 q 595 515 679 429 q 394 601 511 601 q 192 514 277 601 q 106 311 106 427 q 192 109 106 194 q 395 23 277 23 q 595 109 512 23 q 679 311 679 194 m 461 894 l 518 894 l 325 734 l 266 734 l 461 894 "},"ŗ":{"x_min":81.953125,"x_max":448.640625,"ha":483,"o":"m 448 540 q 313 601 387 601 q 184 545 240 601 q 127 416 127 490 l 127 0 l 83 0 l 83 625 l 127 625 l 127 531 q 205 609 152 579 q 323 640 258 640 q 448 595 388 640 l 448 540 m 125 -270 l 125 -193 q 81 -150 81 -193 q 129 -106 81 -106 q 177 -150 177 -106 q 173 -172 177 -159 l 130 -270 l 125 -270 "},"\r":{"x_min":0,"x_max":0,"ha":653}}}
